<ttFont>
          <CharString index="0">
            -2 -14 9 -9 14 0 rrcurveto
            115 hlineto
            14 0 10 8 2 15 rrcurveto
            19 117 rlineto
            2 14 -6 11 -15 0 rrcurveto
            -115 hlineto
            -16 0 -10 -10 -2 -15 rrcurveto
            return
          </CharString>
          <CharString index="1">
            162 0 31 134 11 67 -184 0 -11 -67 rlineto
            return
          </CharString>
          <CharString index="2">
            164 0 31 134 11 67 -184 0 -11 -67 rlineto
            return
          </CharString>
          <CharString index="3">
            8 53 rlineto
            5 34 18 6 22 0 rrcurveto
            51 hlineto
            25 0 11 -7 -5 -33 rrcurveto
            -8 -53 rlineto
            -3 -22 -9 -18 -34 0 rrcurveto
            -51 hlineto
            -33 0 0 18 3 22 rrcurveto
            return
          </CharString>
          <CharString index="4">
            131 0 563 732 -124 0 rlineto
            return
          </CharString>
          <CharString index="5">
            8 53 rlineto
            5 34 19 6 22 0 rrcurveto
            50 hlineto
            25 0 11 -7 -5 -33 rrcurveto
            -8 -53 rlineto
            -3 -22 -9 -18 -34 0 rrcurveto
            -50 hlineto
            -33 0 -1 18 3 22 rrcurveto
            return
          </CharString>
          <CharString index="6">
            130 0 -21 -131 154 0 21 131 132 0 24 154 -132 0 21 131 -154 0 -21 -131 -130 0 rlineto
            return
          </CharString>
          <CharString index="7">
            0 0 147 -47 20 124 rrcurveto
            24 150 rlineto
            2 15 -4 12 -18 0 rrcurveto
            -111 hlineto
            -16 0 -10 -9 -3 -18 rrcurveto
            -18 -114 rlineto
            -3 -17 10 -8 14 0 rrcurveto
            11 0 -1 -5 rlineto
            -2 -10 -2 -12 -30 1 rrcurveto
            return
          </CharString>
          <CharString index="8">
            314 0 24 154 -314 0 rlineto
            return
          </CharString>
          <CharString index="9">
            -2 -14 9 -9 14 0 rrcurveto
            113 hlineto
            14 0 11 5 3 18 rrcurveto
            19 117 rlineto
            3 16 -6 9 -18 0 rrcurveto
            -113 hlineto
            -16 0 -10 -10 -2 -15 rrcurveto
            return
          </CharString>
          <CharString index="10">
            -19 -120 72 -72 130 0 rrcurveto
            164 hlineto
            120 0 57 73 19 119 rrcurveto
            55 348 rlineto
            16 100 -45 92 -145 0 rrcurveto
            -164 hlineto
            -125 0 -60 -72 -21 -130 rrcurveto
            return
          </CharString>
          <CharString index="11">
            42 267 rlineto
            2 13 5 45 52 0 rrcurveto
            57 hlineto
            27 0 19 -12 -7 -46 rrcurveto
            -43 -268 rlineto
            -9 -54 -23 -4 -33 0 rrcurveto
            -42 hlineto
            -22 0 -34 3 9 56 rrcurveto
            return
          </CharString>
          <CharString index="12">
            525 0 28 174 -210 0 rlineto
            71 56 167 111 22 138 22 140 -64 123 -156 0 rrcurveto
            return
          </CharString>
          <CharString index="13">
            -144 0 -70 -12 -85 -18 rrcurveto
            -23 -145 rlineto
            return
          </CharString>
          <CharString index="14">
            223 hlineto
            81 0 33 -7 -10 -61 -12 -75 -282 -202 -89 -54 rrcurveto
            return
          </CharString>
          <CharString index="15">
            83 -31 114 3 114 0 122 0 84 47 19 121 rrcurveto
            5 29 rlineto
            12 76 -8 81 -64 17 60 9 35 44 12 73 rrcurveto
            7 39 rlineto
            19 119 -69 84 -110 2 -117 2 -123 1 -93 -31 rrcurveto
            -23 -146 231 0 rlineto
            52 0 43 0 -9 -51 rrcurveto
            -1 -8 rlineto
            -7 -46 -26 0 -69 -3 rrcurveto
            -164 -8 -26 -158 162 -9 rlineto
            63 -4 28 -1 -7 -46 rrcurveto
            -1 -10 rlineto
            -7 -47 -21 -1 -78 0 rrcurveto
            return
          </CharString>
          <CharString index="16">
            20 -87 325 0 -21 -135 194 0 21 135 65 29 23 149 -60 0 34 212 -167 0 -39 -78 -22 -134 -97 0 223 417 -208 0 rlineto
            return
          </CharString>
          <CharString index="17">
            130 -23 56 -1 124 0 98 0 113 23 22 137 rrcurveto
            15 114 rlineto
            14 106 -36 90 -115 10 -13 1 -36 1 -26 -2 -13 -1 -27 -3 -29 -16 rrcurveto
            20 102 274 0 28 174 -463 0 -96 -465 186 0 rlineto
            5 31 14 14 32 0 rrcurveto
            44 hlineto
            38 0 7 -20 -5 -33 rrcurveto
            -5 -31 rlineto
            -3 -20 -2 -33 -62 0 rrcurveto
            -264 hlineto
            return
          </CharString>
          <CharString index="18">
            -50 -315 68 -90 122 0 rrcurveto
            138 hlineto
            116 0 81 19 21 130 rrcurveto
            15 101 rlineto
            17 109 -22 100 -146 0 -84 0 -32 -2 -40 -19 12 73 8 54 91 0 rrcurveto
            219 0 23 148 rlineto
            -90 20 -135 17 -103 -16 -91 -14 -96 -50 -42 -265 rrcurveto
            return
          </CharString>
          <CharString index="19">
            107 hlineto
            37 0 0 -12 -7 -43 rrcurveto
            -4 -20 rlineto
            -6 -37 -11 -9 -33 0 rrcurveto
            -22 hlineto
            -65 0 -13 15 17 106 rrcurveto
            return
          </CharString>
          <CharString index="20">
            291 0 -286 -558 206 0 332 654 -34 78 -481 0 rlineto
            return
          </CharString>
          <CharString index="21">
            -10 -64 -13 -135 190 0 rrcurveto
            155 hlineto
            97 0 90 2 26 163 rrcurveto
            12 76 rlineto
            7 43 7 106 -67 13 66 9 24 60 4 27 rrcurveto
            7 44 rlineto
            20 128 -57 66 -118 0 rrcurveto
            -156 hlineto
            -103 0 -98 -13 -22 -140 rrcurveto
            -10 -65 rlineto
            -10 -61 -8 -72 68 -37 -57 -9 -28 -38 -8 -50 rrcurveto
            return
          </CharString>
          <CharString index="22">
            6 40 rlineto
            4 27 9 20 42 0 rrcurveto
            54 hlineto
            39 0 2 -21 -4 -26 rrcurveto
            -6 -40 rlineto
            -4 -28 -7 -18 -44 0 rrcurveto
            -52 hlineto
            -35 0 -10 11 6 35 rrcurveto
            return
          </CharString>
          <CharString index="23">
            4 30 rlineto
            7 46 18 3 30 0 rrcurveto
            52 hlineto
            24 0 23 -1 -8 -48 rrcurveto
            -4 -30 rlineto
            -5 -30 -5 -14 -44 0 rrcurveto
            -52 hlineto
            -34 0 -12 5 6 39 rrcurveto
            return
          </CharString>
          <CharString index="24">
            90 -20 136 -17 103 16 91 14 94 30 42 265 50 315 -63 110 -128 0 rrcurveto
            -138 hlineto
            -116 0 -80 -29 -20 -130 rrcurveto
            -13 -81 rlineto
            -17 -109 20 -110 146 0 84 0 33 2 40 19 -12 -73 -9 -54 -91 0 rrcurveto
            -219 hlineto
            return
          </CharString>
          <CharString index="25">
            3 20 rlineto
            6 37 11 9 33 0 rrcurveto
            21 hlineto
            65 0 14 -15 -17 -106 rrcurveto
            -107 hlineto
            -37 0 1 12 7 43 rrcurveto
            return
          </CharString>
          <CharString index="26">
            427 0 24 154 -427 0 rlineto
            return
          </CharString>
          <CharString index="27">
            -19 -125 27 -133 213 0 rrcurveto
            88 hlineto
            return
          </CharString>
          <CharString index="28">
            126 0 116 17 50 10 rrcurveto
            19 117 rlineto
            return
          </CharString>
          <CharString index="29">
            -386 hlineto
            -86 0 -11 37 9 57 rrcurveto
            70 442 rlineto
            9 57 16 56 95 0 rrcurveto
            342 hlineto
            71 0 22 -22 -13 -91 rrcurveto
            -36 -244 rlineto
            -12 -81 -7 -9 -48 0 rrcurveto
            47 330 rlineto
            -51 49 -57 20 -118 0 -104 0 -107 -32 -34 -222 -27 -177 54 -115 125 -4 73 -2 27 36 15 23 rrcurveto
            24 -50 124 0 rlineto
            144 0 52 44 16 110 rrcurveto
            45 304 rlineto
            22 151 -31 127 -170 0 rrcurveto
            -355 hlineto
            -155 0 -111 -31 -30 -187 rrcurveto
            return
          </CharString>
          <CharString index="30">
            15 96 21 33 57 0 24 0 26 -1 29 -4 rrcurveto
            -29 -188 rlineto
            -4 -47 -35 -21 -55 -2 -70 -3 13 87 8 50 rrcurveto
            return
          </CharString>
          <CharString index="31">
            215 0 57 128 188 0 21 -128 199 0 -106 732 -229 0 rlineto
            return
          </CharString>
          <CharString index="32">
            82 196 23 -196 rlineto
            return
          </CharString>
          <CharString index="33">
            313 hlineto
            154 0 87 6 27 190 13 95 -40 77 -73 12 73 6 48 64 10 62 20 124 -52 96 -156 0 rrcurveto
            -308 hlineto
            return
          </CharString>
          <CharString index="34">
            22 142 109 0 rlineto
            39 0 5 -35 -6 -37 -7 -44 -15 -26 -38 0 rrcurveto
            return
          </CharString>
          <CharString index="35">
            17 108 99 0 rlineto
            22 0 21 -13 -7 -44 -4 -28 -19 -23 -30 0 rrcurveto
            return
          </CharString>
          <CharString index="36">
            -38 -246 48 -156 184 -3 148 -3 55 9 66 26 rrcurveto
            24 151 rlineto
            0 -100 -9 -105 vhcurveto
            -101 0 -13 34 26 164 32 204 35 -4 84 0 103 0 97 -17 1 0 rrcurveto
            24 151 rlineto
            -81 32 -33 8 -144 0 -199 0 -77 -108 -36 -233 rrcurveto
            return
          </CharString>
          <CharString index="37">
            333 hlineto
            167 0 88 53 41 280 33 224 -31 175 -199 0 rrcurveto
            -316 hlineto
            return
          </CharString>
          <CharString index="38">
            64 404 94 0 rlineto
            58 0 29 -23 -29 -181 -22 -141 -26 -59 -64 0 rrcurveto
            return
          </CharString>
          <CharString index="39">
            0 0 194 3 106 14 rrcurveto
            26 162 rlineto
            return
          </CharString>
          <CharString index="40">
            -237 hlineto
            -29 0 -34 -1 9 53 rrcurveto
            8 48 rlineto
            return
          </CharString>
          <CharString index="41">
            249 9 26 161 rlineto
            return
          </CharString>
          <CharString index="42">
            -246 11 6 40 rlineto
            4 27 4 29 52 0 rrcurveto
            return
          </CharString>
          <CharString index="43">
            247 0 26 163 rlineto
            return
          </CharString>
          <CharString index="44">
            -115 16 -189 0 0 0 -89 0 -101 -16 -23 -144 rrcurveto
            return
          </CharString>
          <CharString index="45">
            251 9 25 161 rlineto
            return
          </CharString>
          <CharString index="46">
            -247 11 7 44 rlineto
            4 27 5 29 52 0 rrcurveto
            247 0 rlineto
            return
          </CharString>
          <CharString index="47">
            -115 16 -189 0 0 0 -90 0 -102 -36 -23 -144 rrcurveto
            return
          </CharString>
          <CharString index="48">
            -41 -208 11 -220 209 13 80 5 18 12 34 37 rrcurveto
            47 -49 137 0 70 436 rlineto
            -24 2 -23 1 -21 0 -66 0 -64 -1 -49 -24 rrcurveto
            -19 -120 49 0 -12 -75 rlineto
            0 -17 -46 -62 vhcurveto
            -88 0 -1 31 26 164 26 163 23 45 93 0 127 0 107 -22 6 0 rrcurveto
            24 147 rlineto
            -129 37 -10 2 -159 0 -199 0 -57 -97 -46 -233 rrcurveto
            return
          </CharString>
          <CharString index="49">
            194 0 42 267 170 0 -42 -267 194 0 116 732 -194 0 -46 -291 -170 0 46 291 -194 0 rlineto
            return
          </CharString>
          <CharString index="50">
            194 0 116 732 -194 0 rlineto
            return
          </CharString>
          <CharString index="51">
            47 -34 142 -7 58 34 55 32 15 68 7 47 rrcurveto
            90 567 -194 0 -72 -456 rlineto
            -12 -77 -7 -20 -105 0 rrcurveto
            return
          </CharString>
          <CharString index="52">
            185 0 44 280 49 0 100 -280 218 0 -143 349 259 383 -233 0 -195 -288 -30 0 46 288 -184 0 rlineto
            return
          </CharString>
          <CharString index="53">
            -18 -113 68 -43 91 0 rrcurveto
            296 0 28 174 -206 0 rlineto
            -29 0 -33 -1 8 53 rrcurveto
            80 506 -194 0 rlineto
            return
          </CharString>
          <CharString index="54">
            196 0 104 399 1 -399 227 0 126 399 -20 -399 191 0 37 732 -275 0 -126 -411 3 411 -270 0 rlineto
            return
          </CharString>
          <CharString index="55">
            195 0 58 369 152 -369 194 0 116 732 -194 0 -59 -379 -150 379 -196 0 rlineto
            return
          </CharString>
          <CharString index="56">
            -53 -333 118 -57 180 0 180 0 130 17 51 323 54 343 -125 58 -173 0 -168 0 -140 -8 -54 -343 rrcurveto
            return
          </CharString>
          <CharString index="57">
            28 179 25 23 88 0 91 0 13 -32 -27 -170 -25 -155 -29 -36 -86 0 -98 0 -4 38 24 153 rrcurveto
            return
          </CharString>
          <CharString index="58">
            194 0 42 268 rlineto
            5 -3 64 -14 40 -3 91 -7 137 -11 37 235 34 212 -120 55 -102 0 rrcurveto
            -306 hlineto
            return
          </CharString>
          <CharString index="59">
            25 155 92 0 rlineto
            35 0 12 -25 -8 -50 -8 -51 -18 -29 -38 0 rrcurveto
            return
          </CharString>
          <CharString index="60">
            194 0 43 273 36 -4 75 -269 221 0 -102 277 rlineto
            41 6 74 15 28 174 29 182 -86 78 -130 0 rrcurveto
            -307 hlineto
            return
          </CharString>
          <CharString index="61">
            24 148 87 0 rlineto
            44 0 6 -26 -7 -44 -8 -52 -8 -26 -51 0 rrcurveto
            return
          </CharString>
          <CharString index="62">
            184 0 -88 -558 194 0 88 558 190 0 28 174 -568 0 rlineto
            return
          </CharString>
          <CharString index="63">
            -53 -333 153 -22 136 0 121 0 171 -28 51 323 rrcurveto
            60 442 -195 0 -65 -412 rlineto
            -14 -90 -12 -61 -89 0 -95 0 7 57 15 94 rrcurveto
            65 412 -194 0 rlineto
            return
          </CharString>
          <CharString index="64">
            91 -732 241 0 92 241 35 -241 226 0 295 732 -204 0 -176 -484 -44 322 64 162 -204 0 -171 -484 -41 484 rlineto
            return
          </CharString>
          <CharString index="65">
            131 -532 -32 -200 194 0 32 200 315 532 -219 0 -162 -324 -48 324 rlineto
            return
          </CharString>
          <CharString index="66">
            513 0 28 174 -262 0 322 384 28 174 -513 0 -28 -174 281 0 -341 -384 rlineto
            return
          </CharString>
          <CharString index="67">
            132 0 48 51 31 -51 111 0 -69 140 -131 0 rlineto
            return
          </CharString>
          <CharString index="68">
            90 -143 109 0 -54 143 rlineto
            return
          </CharString>
          <CharString index="69">
            -43 -201 76 -116 95 0 53 0 63 13 24 44 rrcurveto
            30 -50 153 0 70 477 rlineto
            -51 49 -119 13 -82 0 -104 0 -118 -7 -47 -222 rrcurveto
            return
          </CharString>
          <CharString index="70">
            12 87 29 14 29 7 20 5 25 -2 8 -7 rrcurveto
            -27 -190 rlineto
            -3 -33 -20 -19 -42 0 -50 0 9 68 10 70 rrcurveto
            return
          </CharString>
          <CharString index="71">
            166 0 37 49 rlineto
            34 -33 29 -22 59 0 119 0 65 36 31 193 30 189 -15 127 -144 0 -45 0 -52 -11 -39 -19 rrcurveto
            43 276 -194 0 rlineto
            return
          </CharString>
          <CharString index="72">
            34 212 rlineto
            12 11 30 4 25 0 28 0 14 -14 -18 -113 -17 -109 -17 -13 -29 0 -31 0 -24 5 -7 17 rrcurveto
            return
          </CharString>
          <CharString index="73">
            -33 -208 66 -92 99 -1 132 -2 66 7 73 33 rrcurveto
            18 114 rlineto
            0 -66 -8 -92 vhcurveto
            -72 0 -17 3 19 122 21 130 22 3 68 0 rrcurveto
            89 59 -6 0 hvcurveto
            18 114 rlineto
            -78 31 -123 5 -52 0 -102 0 -82 -37 -33 -208 rrcurveto
            return
          </CharString>
          <CharString index="74">
            -32 -179 43 -130 119 0 59 0 36 22 44 33 rrcurveto
            22 -49 166 0 124 785 -194 0 -44 -276 rlineto
            -33 19 -49 11 -45 0 -144 0 -45 -85 -27 -151 rrcurveto
            return
          </CharString>
          <CharString index="75">
            18 113 18 14 28 0 25 0 30 -4 8 -11 rrcurveto
            -34 -212 rlineto
            -13 -17 -24 -5 -31 0 -29 0 -13 13 17 109 rrcurveto
            return
          </CharString>
          <CharString index="76">
            -36 -194 46 -120 127 -11 134 -12 88 16 77 25 rrcurveto
            24 136 rlineto
            -49 -10 -96 -9 -46 0 -71 0 -20 7 7 46 37 -15 269 -50 5 261 3 127 -120 27 -105 -1 -195 -2 -48 -58 -31 -163 rrcurveto
            return
          </CharString>
          <CharString index="77">
            7 45 10 34 42 2 29 1 14 -13 -6 -32 -12 -64 -84 27 0 0 rrcurveto
            return
          </CharString>
          <CharString index="78">
            72 0 -63 -397 194 0 63 397 98 0 21 134 -98 0 6 39 rlineto
            10 62 -1 21 50 -1 rrcurveto
            0 72 -1 1 vhcurveto
            18 111 rlineto
            -36 20 -40 4 -49 0 -120 0 -70 -35 -19 -121 rrcurveto
            -16 -99 -74 -17 rlineto
            return
          </CharString>
          <CharString index="79">
            224 -24 rlineto
            188 -20 75 92 23 146 rrcurveto
            89 561 rlineto
            -51 22 -131 14 -106 0 -125 0 -89 -41 -30 -189 -30 -192 36 -115 153 0 45 0 32 10 26 28 rrcurveto
            -11 -68 rlineto
            -10 -64 -37 -31 -53 0 rrcurveto
            -198 hlineto
            return
          </CharString>
          <CharString index="80">
            10 60 10 58 58 0 rrcurveto
            47 0 -39 -244 rlineto
            -14 -15 -18 -4 -20 0 -52 0 0 33 18 112 rrcurveto
            return
          </CharString>
          <CharString index="81">
            194 0 57 359 rlineto
            16 27 26 10 37 0 22 0 9 -10 -7 -42 rrcurveto
            -54 -344 194 0 54 340 rlineto
            18 112 -2 88 -138 0 -81 0 -42 -32 -34 -29 rrcurveto
            48 303 -193 0 rlineto
            return
          </CharString>
          <CharString index="82">
            194 0 84 531 -194 0 rlineto
            return
          </CharString>
          <CharString index="83">
            -2 -14 8 -9 14 0 rrcurveto
            150 hlineto
            14 0 10 8 2 15 rrcurveto
            18 117 rlineto
            2 14 -5 11 -15 0 rrcurveto
            -150 hlineto
            -16 0 -10 -10 -2 -15 rrcurveto
            return
          </CharString>
          <CharString index="84">
            148 hlineto
            57 78 18 102 13 86 rrcurveto
            85 535 -194 0 rlineto
            return
          </CharString>
          <CharString index="85">
            194 0 36 223 38 1 93 -224 210 0 -131 288 rlineto
            56 34 66 58 41 151 rrcurveto
            -203 hlineto
            -32 -95 -49 -50 -69 -30 rrcurveto
            68 426 -194 0 rlineto
            return
          </CharString>
          <CharString index="86">
            -22 -141 69 -48 95 0 rrcurveto
            108 0 18 113 rlineto
            -7 -38 21 0 hvcurveto
            -20 12 -13 14 11 69 rrcurveto
            87 554 -194 0 rlineto
            return
          </CharString>
          <CharString index="87">
            194 0 57 359 rlineto
            16 27 26 10 37 0 22 0 9 -10 -7 -42 rrcurveto
            -54 -344 194 0 54 340 rlineto
            1 9 2 9 1 8 17 22 30 8 33 0 22 0 10 -10 -7 -42 rrcurveto
            -55 -344 194 0 54 340 rlineto
            18 112 -2 88 -138 0 -77 0 -57 -33 -48 -28 -15 38 -35 23 -70 0 -81 0 -33 -28 -42 -33 rrcurveto
            return
          </CharString>
          <CharString index="88">
            -24 52 -162 0 rlineto
            return
          </CharString>
          <CharString index="89">
            194 0 57 359 rlineto
            16 27 26 10 37 0 22 0 9 -10 -7 -42 rrcurveto
            -54 -344 194 0 54 340 rlineto
            18 112 -2 88 -138 0 -81 0 -37 -30 -38 -31 rrcurveto
            return
          </CharString>
          <CharString index="90">
            -30 -190 50 -98 187 0 191 0 69 41 31 197 33 211 -52 95 -186 0 -184 0 -75 -39 -34 -217 rrcurveto
            return
          </CharString>
          <CharString index="91">
            18 114 -1 23 59 0 56 0 -4 -22 -18 -115 -18 -111 -1 -8 -55 0 -51 0 -2 14 17 105 rrcurveto
            return
          </CharString>
          <CharString index="92">
            194 0 47 299 rlineto
            17 -29 29 -10 45 0 153 0 64 56 30 192 32 200 -67 99 -125 0 -106 0 -134 -14 -57 -22 rrcurveto
            return
          </CharString>
          <CharString index="93">
            41 254 47 0 rlineto
            58 0 -10 -68 -10 -60 -18 -112 -10 -33 -52 0 -20 0 -16 4 -10 15 rrcurveto
            return
          </CharString>
          <CharString index="94">
            194 0 45 285 rlineto
            10 60 43 0 40 0 rrcurveto
            79 0 29 186 rlineto
            -15 5 -13 0 -18 0 -53 0 -51 -36 -23 -36 rrcurveto
            -11 67 -172 0 rlineto
            return
          </CharString>
          <CharString index="95">
            30 -41 135 4 143 0 64 0 73 19 17 109 rrcurveto
            9 59 rlineto
            13 79 -27 85 -113 0 rrcurveto
            -100 hlineto
            -12 0 -11 0 3 16 rrcurveto
            1 6 rlineto
            3 18 9 0 13 0 rrcurveto
            223 0 18 114 rlineto
            -26 39 -126 -3 -143 0 -103 0 -46 -50 -13 -82 rrcurveto
            -8 -46 rlineto
            -16 -103 56 -69 94 0 rrcurveto
            95 hlineto
            16 0 3 -6 -2 -12 rrcurveto
            -1 -5 rlineto
            -2 -10 -3 -7 -17 0 rrcurveto
            -231 hlineto
            return
          </CharString>
          <CharString index="96">
            75 0 -33 -208 rlineto
            -22 -141 71 -50 80 0 rrcurveto
            120 0 18 113 rlineto
            -7 -39 21 0 hvcurveto
            -20 12 -12 14 11 71 rrcurveto
            27 168 89 0 21 134 -89 0 24 148 -166 0 -52 -148 -81 -38 rlineto
            return
          </CharString>
          <CharString index="97">
            -18 -112 2 -88 138 0 81 0 33 22 42 39 rrcurveto
            return
          </CharString>
          <CharString index="98">
            23 -52 162 0 85 531 -194 0 -57 -359 rlineto
            return
          </CharString>
          <CharString index="99">
            -16 -27 -26 -10 -37 0 -22 0 -10 10 7 42 rrcurveto
            55 344 -194 0 rlineto
            return
          </CharString>
          <CharString index="100">
            82 -531 234 0 58 142 23 -142 222 0 164 325 rlineto
            25 48 35 83 -13 77 rrcurveto
            -186 hlineto
            -5 -66 -19 -45 -13 -27 rrcurveto
            -78 -186 -28 161 6 16 rlineto
            16 44 12 53 -8 50 rrcurveto
            -186 hlineto
            -5 -66 -19 -45 -13 -27 rrcurveto
            -78 -186 -20 322 rlineto
            return
          </CharString>
          <CharString index="101">
            24 -375 rlineto
            6 -90 41 -66 117 0 -37 -74 -44 -50 -96 -44 rrcurveto
            -136 vlineto
            56 8 186 4 125 292 rrcurveto
            130 324 rlineto
            21 50 28 81 -13 77 rrcurveto
            -186 hlineto
            -5 -66 -11 -44 -10 -28 rrcurveto
            -86 -238 rlineto
            -16 1 -20 7 -1 31 rrcurveto
            -8 336 rlineto
            return
          </CharString>
          <CharString index="102">
            441 hlineto
            0 0 25 153 -1 1 rrcurveto
            -181 0 217 222 24 154 -456 0 -24 -154 212 0 -233 -224 rlineto
            return
          </CharString>
          <CharString index="103">
            35 24 25 11 39 0 rrcurveto
            return
          </CharString>
          <CharString index="104">
            39 0 28 -35 43 0 51 0 46 39 27 33 rrcurveto
            -14 74 rlineto
            -26 -23 -34 -19 -40 2 rrcurveto
            return
          </CharString>
          <CharString index="105">
            -40 0 -16 35 -44 0 rrcurveto
            -56 0 -48 -38 -31 -36 rrcurveto
            return
          </CharString>
          <CharString index="106">
            186 0 66 535 -147 0 rlineto
            return
          </CharString>
          <CharString index="107">
            -3 -19 10 -8 13 0 rrcurveto
            116 hlineto
            17 0 7 14 2 13 rrcurveto
            18 112 rlineto
            2 14 -10 11 -12 1 rrcurveto
            -114 hlineto
            -14 -1 -12 -8 -2 -14 rrcurveto
            return
          </CharString>
          <CharString index="108">
            -6 -36 25 -30 36 0 36 0 34 30 6 36 6 36 -25 29 -36 0 -36 0 -34 -29 -6 -36 rrcurveto
            return
          </CharString>
          <CharString index="109">
            -35 -221 64 -167 193 0 rrcurveto
            200 hlineto
            151 0 117 79 41 259 34 215 -29 179 -203 0 rrcurveto
            -200 hlineto
            -229 0 -73 -149 -31 -195 rrcurveto
            return
          </CharString>
          <CharString index="110">
            34 215 81 45 89 0 rrcurveto
            200 hlineto
            131 0 -13 -140 -19 -120 -32 -204 -70 -60 -90 0 rrcurveto
            -190 hlineto
            -114 0 -32 105 25 159 rrcurveto
            return
          </CharString>
          <CharString index="111">
            335 0 12 78 -335 0 rlineto
            return
          </CharString>
          <CharString index="112">
            178 -208 109 78 -104 120 137 118 -82 95 rlineto
            return
          </CharString>
          <CharString index="113">
            292 0 15 93 -292 0 rlineto
            return
          </CharString>
          <CharString index="114">
            416 0 24 154 -416 0 rlineto
            return
          </CharString>
          <CharString index="115">
            367 0 21 131 -117 0 rlineto
            52 36 83 71 14 88 14 89 -46 79 -109 0 rrcurveto
            return
          </CharString>
          <CharString index="116">
            -100 0 -49 -9 -59 -13 rrcurveto
            -18 -109 rlineto
            return
          </CharString>
          <CharString index="117">
            148 hlineto
            54 0 23 -4 -6 -36 -7 -44 -186 -121 -59 -32 rrcurveto
            return
          </CharString>
          <CharString index="118">
            57 -23 80 2 80 0 85 0 58 31 13 81 rrcurveto
            4 20 rlineto
            8 51 -7 53 -48 12 45 6 25 29 8 49 rrcurveto
            4 26 rlineto
            13 79 -48 56 -77 1 -82 2 -86 -1 -65 -23 rrcurveto
            -17 -109 155 0 rlineto
            35 0 28 0 -5 -24 rrcurveto
            -4 vlineto
            -3 -22 -17 1 -46 -2 rrcurveto
            -111 -4 -18 -119 108 -4 rlineto
            43 -2 18 -1 -3 -22 rrcurveto
            -1 -5 rlineto
            -3 -23 -14 -1 -52 0 rrcurveto
            -146 hlineto
            return
          </CharString>
          <CharString index="119">
            109 0 136 143 -145 0 rlineto
            return
          </CharString>
          <CharString index="120">
            61 hlineto
            92 0 36 44 16 102 rrcurveto
            -117 hlineto
            -6 -38 0 -2 -30 -12 rrcurveto
            -39 -15 rlineto
            return
          </CharString>
          <CharString index="121">
            0 0 63 -9 28 22 rrcurveto
            -56 -345 146 0 77 487 -144 0 rlineto
            -32 -37 -67 -18 0 0 rrcurveto
            return
          </CharString>
          <CharString index="122">
            10 65 -5 11 44 0 42 0 -8 -11 -10 -65 -10 -63 4 -5 -41 0 -34 0 -2 8 10 60 rrcurveto
            return
          </CharString>
          <CharString index="123">
            141 0 488 770 -141 0 rlineto
            return
          </CharString>
          <CharString index="124">
            114 -5 83 12 90 23 rrcurveto
            23 145 rlineto
            return
          </CharString>
          <CharString index="125">
            -3 -16 6 -9 18 0 rrcurveto
            113 hlineto
            16 0 10 10 2 15 rrcurveto
            18 117 rlineto
            2 14 -8 9 -14 0 rrcurveto
            -113 hlineto
            -14 0 -12 -5 -3 -18 rrcurveto
            return
          </CharString>
          <CharString index="126">
            122 0 58 51 31 -51 111 0 -69 140 -131 0 rlineto
            return
          </CharString>
          <CharString index="127">
            -5 -57 45 -43 56 0 56 0 46 43 5 57 5 57 -43 43 -56 0 -56 0 -48 -43 -5 -57 rrcurveto
            return
          </CharString>
          <CharString index="128">
            2 19 16 15 19 0 19 0 13 -15 -2 -19 -2 -19 -15 -14 -19 0 -19 0 -14 14 2 19 rrcurveto
            return
          </CharString>
          <CharString index="129">
            -24 -153 118.666992188 -25.3330078125 74.3330078125 2.3330078125 rrcurveto
            return
          </CharString>
          <CharString index="130">
            65 0 -53 -336 343 0 rlineto
            167 0 78 77 41 256 33 207 -24 192 -199 0 rrcurveto
            -323 0 -51 -322 -65 0 rlineto
            return
          </CharString>
          <CharString index="131">
            27 172 89 0 12 74 -89 0 25 158 109 0 rlineto
            47 0 24 -23 -29 -181 -22 -141 -27 -59 -57 0 rrcurveto
            return
          </CharString>
          <CharString index="132">
            -3 -20 10 -12 20 0 rrcurveto
            144 hlineto
            20 0 17 8 4 24 rrcurveto
            23 150 rlineto
            3 22 -7 13 -25 0 rrcurveto
            -144 hlineto
            -22 0 -14 -14 -3 -21 rrcurveto
            return
          </CharString>
          <CharString index="133">
            0 0 149 -35 21 132 rrcurveto
            26 160 rlineto
            2 15 -4 12 -18 0 rrcurveto
            -111 hlineto
            -16 0 -10 -9 -3 -18 rrcurveto
            -18 -114 rlineto
            -3 -17 10 -8 14 0 rrcurveto
            11 0 -3 -15 rlineto
            -2 -10 -4 -21 -30 0 rrcurveto
            return
          </CharString>
          <CharString index="134">
            -2 -15 3 -12 18 0 rrcurveto
            111 hlineto
            16 0 11 9 3 18 rrcurveto
            18 114 rlineto
            3 17 -10 8 -14 0 rrcurveto
            -11 0 2 15 rlineto
            2 10 4 21 30 0 rrcurveto
            11 72 rlineto
            0 0 -149 35 -21 -132 rrcurveto
            return
          </CharString>
          <CharString index="135">
            -13 -80 54 -48 94 0 rrcurveto
            119 hlineto
            87 0 40 49 13 79 rrcurveto
            36 231 rlineto
            11 67 -34 61 -105 0 rrcurveto
            -119 hlineto
            -91 0 -43 -48 -14 -86 rrcurveto
            return
          </CharString>
          <CharString index="136">
            30 156 rlineto
            4 21 3 13 31 0 rrcurveto
            38 hlineto
            18 0 14 -7 -5 -27 rrcurveto
            -30 -157 rlineto
            -5 -32 -16 -2 -22 0 rrcurveto
            -28 hlineto
            -15 0 -22 2 5 33 rrcurveto
            return
          </CharString>
          <CharString index="137">
            23 -65 222 0 -13 -78 140 0 10 79 46 21 18 112 -40 0 22 138 -119 0 -29 -51 -14 -87 -67 0 149 273 -153 0 rlineto
            return
          </CharString>
          <CharString index="138">
            91 -17 39 -1 87 0 68 0 83 15 8 94 rrcurveto
            10 77 rlineto
            6 50 -6 82 -100 8 -34 3 -26 0 -31 -18 rrcurveto
            10 48 187 0 21 131 -322 0 -64 -310 124 0 rlineto
            3 16 8 7 21 0 rrcurveto
            29 hlineto
            26 0 4 -10 -2 -17 rrcurveto
            -1 -15 rlineto
            -2 -23 -6 -4 -37 0 rrcurveto
            -176 hlineto
            return
          </CharString>
          <CharString index="139">
            -33 -210 70 -60 89 0 rrcurveto
            80 hlineto
            84 0 60 13 14 89 rrcurveto
            11 68 rlineto
            12 74 -19 69 -109 0 -57 0 -21 -2 -27 -14 6 38 3 29 65 0 rrcurveto
            156 0 18 111 rlineto
            -66 13 -108 13 -75 -12 -66 -9 -59 -33 -28 -177 rrcurveto
            return
          </CharString>
          <CharString index="140">
            72 hlineto
            25 0 0 -6 -3 -21 rrcurveto
            -3 -20 rlineto
            -2 -18 -9 -4 -22 0 rrcurveto
            -15 hlineto
            -43 0 -8 17 8 52 rrcurveto
            return
          </CharString>
          <CharString index="141">
            224 0 -209 -356 159 0 251 428 -27 59 -377 0 rlineto
            return
          </CharString>
          <CharString index="142">
            -7 -42 -7 -90 138 0 rrcurveto
            112 hlineto
            71 0 66 1 17 110 rrcurveto
            8 51 rlineto
            5 29 4 72 -51 9 50 6 16 39 3 18 rrcurveto
            5 29 rlineto
            13 84 -42 43 -86 0 rrcurveto
            -113 hlineto
            -75 0 -71 -8 -15 -94 rrcurveto
            -7 -44 rlineto
            -6 -41 -6 -48 52 -25 -43 -6 -21 -25 -5 -33 rrcurveto
            return
          </CharString>
          <CharString index="143">
            4 21 rlineto
            2 14 4 10 28 0 rrcurveto
            36 hlineto
            26 0 3 -11 -2 -13 rrcurveto
            -4 -21 rlineto
            -2 -15 -3 -9 -29 0 rrcurveto
            -36 hlineto
            -23 0 -7 6 3 18 rrcurveto
            return
          </CharString>
          <CharString index="144">
            3 15 rlineto
            4 23 10 1 20 0 rrcurveto
            35 hlineto
            16 0 16 0 -4 -24 rrcurveto
            -3 -15 rlineto
            -2 -15 -3 -7 -29 0 rrcurveto
            -35 hlineto
            -23 0 -8 3 3 19 rrcurveto
            return
          </CharString>
          <CharString index="145">
            66 -13 108 -13 75 12 67 10 57 20 29 182 34 216 -59 73 -93 0 rrcurveto
            -89 2 rlineto
            -84 2 -59 -22 -13 -91 rrcurveto
            -8 -56 rlineto
            -12 -76 16 -77 110 0 57 0 21 2 27 14 -7 -42 -4 -31 -65 0 rrcurveto
            -156 hlineto
            return
          </CharString>
          <CharString index="146">
            2 10 rlineto
            3 20 7 5 22 0 rrcurveto
            14 hlineto
            43 0 10 -8 -9 -57 rrcurveto
            -72 hlineto
            -25 0 1 7 4 23 rrcurveto
            return
          </CharString>
          <CharString index="147">
            -20 -120 73 -72 130 0 rrcurveto
            164 hlineto
            120 0 57 73 19 119 rrcurveto
            41 248 rlineto
            16 100 -26 92 -165 0 rrcurveto
            -164 hlineto
            -125 0 -60 -72 -21 -130 rrcurveto
            return
          </CharString>
          <CharString index="148">
            27 167 rlineto
            2 13 9 45 49 0 rrcurveto
            57 hlineto
            27 0 18 -12 -7 -46 rrcurveto
            -27 -168 rlineto
            -9 -54 -24 -4 -33 0 rrcurveto
            -42 hlineto
            -22 0 -34 3 9 56 rrcurveto
            return
          </CharString>
          <CharString index="149">
            525 0 28 174 -140 0 rlineto
            80 34 88 43 22 138 22 140 -64 103 -156 0 rrcurveto
            return
          </CharString>
          <CharString index="150">
            223 hlineto
            81 0 28 -7 -10 -61 -12 -75 -266 -106 -100 -40 rrcurveto
            return
          </CharString>
          <CharString index="151">
            473 0 25 155 -473 0 rlineto
            return
          </CharString>
          <CharString index="152">
            696 0 25 155 -696 0 rlineto
            return
          </CharString>
          <CharString index="153">
            -6 -68 45 -44 69 0 71 0 45 44 6 68 rrcurveto
            -67 hlineto
            -2 -28 -14 -19 -38 0 -32 0 -13 17 3 30 rrcurveto
            return
          </CharString>
          <CharString index="154">
            -148 -78 96 -147 104 34 rrcurveto
            14 90 rlineto
            -37 -6 -45 54 85 53 rrcurveto
            return
          </CharString>
          <CharString index="155">
            74 -140 126 0 122 140 -122 0 -54 -51 -35 51 rlineto
            return
          </CharString>
          <CharString index="156">
            -2 -14 9 -9 14 0 rrcurveto
            90 hlineto
            14 0 10 8 2 15 rrcurveto
            15 94 rlineto
            2 14 -6 11 -15 0 rrcurveto
            -90 hlineto
            -16 0 -10 -10 -2 -15 rrcurveto
            return
          </CharString>
          <CharString index="157">
            93 0 31 134 10 67 -114 0 -10 -67 rlineto
            return
          </CharString>
          <CharString index="158">
            95 -34 44.2998046875 0 144.700195312 0 99 0 142 6 7 188 rrcurveto
            2 63 rlineto
            10 80 -18 132 -152 0 rrcurveto
            -74 hlineto
            -54 0 -4 17 5 31 rrcurveto
            2 11 rlineto
            7 42 20 2 54 0 66 0 100 -3 63 -7 rrcurveto
            24 151 rlineto
            -70 27 -77 10 -148 -4 -112 -3 -99 -22 -20 -145 rrcurveto
            -11 -84 rlineto
            -6.169921875 -47.115234375 -7.830078125 -169.884765625 191 0 rrcurveto
            70 hlineto
            44 0 7 -15 -5 -29 rrcurveto
            -2 -16 rlineto
            -5 -30 -18 -11 -43 0 -93 0 -115 7 -39 4 rrcurveto
            return
          </CharString>
          <CharString index="159">
            93 0 31 134 11 67 -114 0 -11 -67 rlineto
            return
          </CharString>
          <CharString index="160">
            18 113 18 14 28 0 25 0 30 -4 8 -11 rrcurveto
            -34 -212 rlineto
            -13 -17 -25 -5 -31 0 -29 0 -12 13 17 109 rrcurveto
            return
          </CharString>
          <CharString index="161">
            -19 -96 34 -78 158 0 rrcurveto
            109 hlineto
            147 0 43 55 14 89 rrcurveto
            9 53 rlineto
            17 109 -71 39 -67 16 rrcurveto
            -106 22 rlineto
            -20 4 -23 1 5 18 5 17 24 -5 16 0 rrcurveto
            47 hlineto
            142 0 62 89 12 77 30 182 -113 34 -68 1 rrcurveto
            -95 2 rlineto
            -94 2 -102 -15 -23 -146 -8 -53 -9 -85 62 -36 -50 0 -22 -50 -5 -36 rrcurveto
            return
          </CharString>
          <CharString index="162">
            8 47 68 -11 rlineto
            25 -5 4 -2 -4 -28 rrcurveto
            -1 -11 rlineto
            -3 -18 -4 -9 -24 0 rrcurveto
            -40 hlineto
            -36 0 3 13 4 24 rrcurveto
            return
          </CharString>
          <CharString index="163">
            9 52 5 3 30 0 rrcurveto
            11 hlineto
            30 0 1 0 -9 -55 -5 -34 -4 -27 -31 0 rrcurveto
            -11 hlineto
            -36 0 2 12 8 49 rrcurveto
            return
          </CharString>
          <CharString index="164">
            -13 -85 31 -65 98 0 rrcurveto
            101 hlineto
            101 0 46 35 13 85 rrcurveto
            18 113 rlineto
            13 85 -31 65 -98 0 rrcurveto
            -101 hlineto
            -101 0 -46 -35 -13 -85 rrcurveto
            return
          </CharString>
          <CharString index="165">
            0 0 132.30078125 -42.2998046875 18 111.599609375 rrcurveto
            21.599609375 135 rlineto
            1.7998046875 13.5 -3.599609375 10.80078125 -16.2001953125 0 rrcurveto
            -99.900390625 hlineto
            -14.3994140625 0 -9 -8.1005859375 -2.7001953125 -16.2001953125 rrcurveto
            -16.2001953125 -102.599609375 rlineto
            -2.7001953125 -15.2998046875 9 -7.2001953125 12.6005859375 0 rrcurveto
            9.8994140625 0 -0.8994140625 -4.5 rlineto
            -1.7998046875 -9 -1.80078125 -10.7998046875 -27 0.8994140625 rrcurveto
            return
          </CharString>
          <CharString index="166">
            131 0 342 570 -125 0 rlineto
            return
          </CharString>
          <CharString index="167">
            201 0 38 87 144 0 12 -87 186 0 -74 570 -244 0 rlineto
            return
          </CharString>
          <CharString index="168">
            53 113 15 -113 rlineto
            return
          </CharString>
          <CharString index="169">
            274 hlineto
            126 0 85 5 22 137 13 83 -40 60 -48 6 49 0 49 30 14 87 19 121 -75 42 -124 0 rrcurveto
            -274 hlineto
            return
          </CharString>
          <CharString index="170">
            12 78 60 0 rlineto
            20 0 8 -10 -4 -28 -6 -36 -14 -4 -16 0 rrcurveto
            return
          </CharString>
          <CharString index="171">
            9 60 60 0 rlineto
            25 0 3 -12 -3 -17 -3 -21 -8 -10 -23 0 rrcurveto
            return
          </CharString>
          <CharString index="172">
            -28 -176 7 -153 208 0 116 0 37 -1 78 37 rrcurveto
            20 127 rlineto
            0 -85 -19 -84 vhcurveto
            -115 2 27 71 13 82 15 98 5 41 102 0 65 0 83 -17 15 -3 rrcurveto
            20 129 rlineto
            -69 32 -49 3 -102 0 -184 0 -66 -69 -29 -184 rrcurveto
            return
          </CharString>
          <CharString index="173">
            287 hlineto
            94 0 140 -14 30 271 18 157 -11 156 -184 2 rrcurveto
            -283 hlineto
            return
          </CharString>
          <CharString index="174">
            39 244 65 0 rlineto
            36 0 12 -31 -15 -94 -10 -62 -12 -57 -50 0 rrcurveto
            return
          </CharString>
          <CharString index="175">
            -14 -87 44 -36 74 -2 rrcurveto
            return
          </CharString>
          <CharString index="176">
            0 0 202 -8 118 26 rrcurveto
            23 146 rlineto
            return
          </CharString>
          <CharString index="177">
            -211 hlineto
            -21 0 -15 3 5 29 rrcurveto
            2 12 rlineto
            return
          </CharString>
          <CharString index="178">
            207 7 22 141 rlineto
            return
          </CharString>
          <CharString index="179">
            -205 8 2 13 rlineto
            4 24 4 9 30 0 rrcurveto
            return
          </CharString>
          <CharString index="180">
            215 0 23 146 rlineto
            return
          </CharString>
          <CharString index="181">
            -90 17 -205 0 0 0 -81 -1 -68 -32 -15 -97 rrcurveto
            return
          </CharString>
          <CharString index="182">
            208 7 22 141 rlineto
            return
          </CharString>
          <CharString index="183">
            -205 8 5 33 rlineto
            4 24 4 9 30 0 rrcurveto
            return
          </CharString>
          <CharString index="184">
            -8 -50 -52 -273 197 0 79 0 26 15 27 36 rrcurveto
            38 -44 146 0 54 343 rlineto
            -24 2 -21 1 -21 0 -81 0 -45 -4 -42 -11 rrcurveto
            -15 -99 38 0 -4 -24 rlineto
            -4 -28 -23 -14 -31 0 -72 1 24 67 9 54 23 146 21 1 78 0 56 0 44 -1 89 -12 rrcurveto
            21 132 rlineto
            -63 26 -124 5 -100 -6 -152 -9 -59 -70 -29 -184 rrcurveto
            return
          </CharString>
          <CharString index="185">
            194 0 30 189 111 0 -30 -189 194 0 90 571 -194 0 -33 -208 -111 0 33 208 -194 0 rlineto
            return
          </CharString>
          <CharString index="186">
            194 0 90 570 -194 0 rlineto
            return
          </CharString>
          <CharString index="187">
            44 -29 91 -10 79 33 60 25 28 79 7 46 rrcurveto
            64 405 -194 0 -52 -325 rlineto
            -7 -43 -1 -27 -95 0 rrcurveto
            return
          </CharString>
          <CharString index="188">
            184 0 32 203 51 0 63 -203 203 0 -89 270 169 301 -207 0 -127 -214 -38 0 33 214 -184 0 rlineto
            return
          </CharString>
          <CharString index="189">
            -16 -104 60 -42 79 0 rrcurveto
            296 0 27 174 -170 0 rlineto
            -47 0 -31 -1 11 68 rrcurveto
            52 329 -194 0 rlineto
            return
          </CharString>
          <CharString index="190">
            197 0 67 291 1 -291 202 0 88 293 -16 -293 191 0 38 571 -262 0 -104 -312 -4 312 -255 0 rlineto
            return
          </CharString>
          <CharString index="191">
            194 0 37 237 102 -237 190 0 90 571 -193 0 -35 -242 -104 242 -191 0 rlineto
            return
          </CharString>
          <CharString index="192">
            -39 -249 97 -61 161 0 168 0 104 22 39 245 41 256 -98 57 -163 0 -166 0 -105 -26 -39 -244 rrcurveto
            return
          </CharString>
          <CharString index="193">
            16 101 15 15 57 0 65 0 4 -15 -16 -99 -15 -94 -12 -24 -63 0 -67 0 1 24 15 92 rrcurveto
            return
          </CharString>
          <CharString index="194">
            194 0 29 186 rlineto
            3 -7 69 -7 33 1 65 2 111 -4 29 186 24 154 -69 58 -117 0 rrcurveto
            -281 hlineto
            return
          </CharString>
          <CharString index="195">
            17 108 53 0 rlineto
            31 0 -3 -22 -5 -34 -6 -38 -11 -14 -23 0 rrcurveto
            return
          </CharString>
          <CharString index="196">
            194 0 29 186 38 -4 36 -182 204 0 -61 197 rlineto
            37 16 38 18 18 116 24 154 -79 68 -117 0 rrcurveto
            -271 hlineto
            return
          </CharString>
          <CharString index="197">
            38 -28 219 2 45 0 92 0 64 26 20 127 rrcurveto
            5 30 rlineto
            14 90 -8 99 -128 0 rrcurveto
            -110 hlineto
            -19 0 -4 8 2 14 rrcurveto
            2 12 rlineto
            2 14 10 10 16 0 rrcurveto
            114 118 -9 0 hvcurveto
            21 137 rlineto
            -85 22 -142 3 -52 0 -136 0 -45 -67 -14 -89 rrcurveto
            -6 -37 rlineto
            -15 -96 22 -86 125 0 rrcurveto
            100 hlineto
            16 0 10 -3 -3 -17 rrcurveto
            -3 -14 rlineto
            0 -4 -20 -25 -104 -131 7 0 vhcurveto
            return
          </CharString>
          <CharString index="198">
            146 0 -63 -396 194 0 63 396 146 0 28 174 -486 0 rlineto
            return
          </CharString>
          <CharString index="199">
            -39 -239 126 -56 136 0 121 0 132 2 37 233 rrcurveto
            49 340 -195 0 -49 -310 rlineto
            -12 -76 -21 -15 -40 0 -36 0 -27 11 13 80 rrcurveto
            49 310 -195 0 rlineto
            return
          </CharString>
          <CharString index="200">
            53 -570 244 0 40 111 6 -111 244 0 224 570 -201 0 -111 -344 -30 212 52 132 -201 0 -110 -344 -9 344 rlineto
            return
          </CharString>
          <CharString index="201">
            133 -370 -31 -201 194 0 31 201 239 370 -216 0 -96 -162 -51 162 rlineto
            return
          </CharString>
          <CharString index="202">
            466 0 28 174 -204 0 239 222 27 174 -466 0 -27 -174 218 0 -253 -222 rlineto
            return
          </CharString>
          <CharString index="203">
            2 19 16 15 19 0 19 0 13 -15 -2 -19 -2 -19 -14 -14 -19 0 -19 0 -15 14 2 19 rrcurveto
            return
          </CharString>
          <CharString index="204">
            55 0 -40 -253 290 0 rlineto
            94 0 121 -35 46 293 25 156 -19 156 -184 2 rrcurveto
            -282 0 -39 -245 -55 0 rlineto
            return
          </CharString>
          <CharString index="205">
            14 89 65 0 12 74 -65 0 13 81 65 0 rlineto
            36 0 12 -31 -15 -94 -10 -62 -12 -57 -50 0 rrcurveto
            return
          </CharString>
          <CharString index="206">
            195 0 89 562 rlineto
            3 17 24 6 -1 -16 rrcurveto
            -22 -406 rlineto
            -13 -226 382 6 34 212 rrcurveto
            90 577 -194 0 -87 -547 rlineto
            -2 -15 -23 -8 1 20 rrcurveto
            22 401 rlineto
            11 201 -383 22 -36 -227 rrcurveto
            return
          </CharString>
          <CharString index="207">
            193 0 93 496 rlineto
            3 17 26 7 -2 -17 rrcurveto
            -33 -230 rlineto
            -14 -163 342 8 36 152 rrcurveto
            38 222 rlineto
            3 16 26 7 -2 -17 rrcurveto
            -60 -498 196 0 62 612 rlineto
            17 169 -369 1 -32 -200 rrcurveto
            -38 -242 rlineto
            -2 -16 -32 -4 3 20 rrcurveto
            38 238 rlineto
            32 204 -363 0 -37 -182 rrcurveto
            return
          </CharString>
          <CharString index="208">
            194 0 57 359 rlineto
            20 25 31 2 24 0 33 0 -1 -16 -6 -40 rrcurveto
            -52 -330 194 0 54 338 3 21 rlineto
            20 25 31 2 24 0 33 0 -1 -16 -6 -40 rrcurveto
            -52 -330 194 0 58 370 rlineto
            15 96 -36 74 -106 0 -69 0 -70 -12 -59 -28 -21 25 -63 15 -47 0 -166 0 -57 -9 -100 -68 rrcurveto
            return
          </CharString>
          <CharString index="209">
            194 0 57 359 rlineto
            20 25 31 2 24 0 33 0 -1 -16 -6 -40 rrcurveto
            -52 -330 194 0 59 370 rlineto
            15 96 -56 74 -106 0 -166 0 -67 -9 -100 -68 rrcurveto
            return
          </CharString>
          <CharString index="210">
            194 0 58 369 rlineto
            38 17 73 0 55 -13 rrcurveto
            26 165 rlineto
            -161 14 -130 -10 -78 -69 rrcurveto
            return
          </CharString>
          <CharString index="211">
            -32 -200 66 -100 164 0 93 0 111 1 57 35 rrcurveto
            62 438 rlineto
            -64 52 -90 21 -122 0 -133 0 -82 -55 -30 -192 rrcurveto
            return
          </CharString>
          <CharString index="212">
            18 112 9 34 50 0 27 0 15 -5 8 -6 rrcurveto
            -42 -263 -47 0 rlineto
            -57 0 9 68 10 60 rrcurveto
            return
          </CharString>
          <CharString index="213">
            -15 -96 46 -104 142 0 166 0 46 7 94 60 rrcurveto
            69 473 -194 0 -56 -359 rlineto
            -20 -25 -32 -2 -24 0 -33 0 1 16 6 40 rrcurveto
            52 330 -194 0 rlineto
            return
          </CharString>
          <CharString index="214">
            54 -35 138 -1 93 0 125 0 89 39 32 200 30 192 -26 116 -153 0 -24 0 -62 -10 -27 -29 rrcurveto
            44 281 -194 0 rlineto
            return
          </CharString>
          <CharString index="215">
            40 254 rlineto
            14 15 18 4 20 0 52 0 0 -33 -18 -112 -10 -60 -11 -68 -58 0 rrcurveto
            return
          </CharString>
          <CharString index="216">
            -32 -200 67 -99 125 0 93 0 147 1 57 35 rrcurveto
            119 754 -194 0 -44 -282 rlineto
            -17 29 -49 10 -45 0 -133 0 -64 -56 -30 -192 rrcurveto
            return
          </CharString>
          <CharString index="217">
            18 112 10 33 52 0 20 0 16 -4 10 -15 rrcurveto
            -41 -254 -47 0 rlineto
            -58 0 11 68 9 60 rrcurveto
            return
          </CharString>
          <CharString index="218">
            194 0 63 397 97 0 21 134 -97 0 6 39 rlineto
            12 74 4 10 45 0 rrcurveto
            0 91 -1 1 vhcurveto
            18 109 rlineto
            -45 20 -48 4 -64 0 -154 0 -38 -122 -9 -54 rrcurveto
            return
          </CharString>
          <CharString index="219">
            194 0 47 299 rlineto
            17 -29 29 -10 45 0 153 0 62 56 32 192 36 218 -71 81 -125 0 -106 0 -134 -14 -57 -22 rrcurveto
            return
          </CharString>
          <CharString index="220">
            -24 -151 79 -40 74 0 rrcurveto
            120 0 18 113 rlineto
            -7 -38 21 0 hvcurveto
            -20 12 -12 14 11 71 rrcurveto
            26 168 85 0 22 134 -85 0 23 148 -194 0 rlineto
            return
          </CharString>
          <CharString index="221">
            18 112 10 33 52 0 20 0 16 -4 10 -15 rrcurveto
            -41 -254 -47 0 rlineto
            -58 0 10 68 10 60 rrcurveto
            return
          </CharString>
          <CharString index="222">
            93 0 32 134 10 67 -114 0 -10 -67 rlineto
            return
          </CharString>
        <CharString name=".notdef">
          243 0 13 505 13 hstem
          100 14 530 14 vstem
          100 hmoveto
          558 531 -558 hlineto
          14 -509 rmoveto
          0 485 256 -241 rlineto
          -246 252 rmoveto
          511 0 -254 -242 rlineto
          -254 -263 rmoveto
          254 243 253 -243 rlineto
          -242 253 rmoveto
          252 240 0 -481 rlineto
          endchar
        </CharString>
        <CharString name="A">
          196 21 -21 128 165 439 -20 hstem
          25 hmoveto
          -76 callsubr
          -3 -439 rmoveto
          -75 callsubr
          endchar
        </CharString>
        <CharString name="AE">
          579 -3 179 -162 162 96 181 -172 161 111 179 -179 163 hstemhm
          hintmask 10000000
          17 hmoveto
          215 0 110 167 147 0 -7 -43 rlineto
          -18 -113 127 -18 71 4 rrcurveto
          hintmask 01000000
          0 0 191 3 105 14 rrcurveto
          26 162 rlineto
          hintmask 10100000
          -237 hlineto
          -29 0 -33 -1 8 53 rrcurveto
          7 44 rlineto
          hintmask 00010000
          -62 callsubr
          hintmask 00101000
          -61 callsubr
          hintmask 00000100
          25 163 rlineto
          hintmask 10001000
          -114 16 -190 0 0 0 -138 7 -145 -22 -107 -165 rrcurveto
          71 -221 rmoveto
          93 151 -24 -151 rlineto
          endchar
        </CharString>
        <CharString name="Aacute">
          196 0 21 107 165 419 20 65 143 hstem
          440 245 vstem
          440 797 rmoveto
          12 callsubr
          -515 -940 rmoveto
          -76 callsubr
          -3 -439 rmoveto
          -75 callsubr
          endchar
        </CharString>
        <CharString name="Abreve">
          196 0 21 107 165 419 20 65 65 hstem
          398 67 96 67 vstem
          398 909 rmoveto
          46 callsubr
          -440 -909 rmoveto
          -76 callsubr
          -3 -439 rmoveto
          -75 callsubr
          endchar
        </CharString>
        <CharString name="Acircumflex">
          196 0 21 107 165 419 20 65 140 hstem
          334 322 vstem
          334 797 rmoveto
          19 callsubr
          0 vmoveto
          131 hmoveto
          -562 -937 rmoveto
          -76 callsubr
          -3 -439 rmoveto
          -75 callsubr
          endchar
        </CharString>
        <CharString name="Adieresis">
          196 0 21 107 165 419 20 65 131 hstem
          313 131 124 131 vstem
          313 863 rmoveto
          1 callsubr
          255 hmoveto
          1 callsubr
          -543 -863 rmoveto
          -76 callsubr
          -3 -439 rmoveto
          -75 callsubr
          endchar
        </CharString>
        <CharString name="Agrave">
          196 0 21 107 165 419 20 65 143 hstem
          350 199 vstem
          350 940 rmoveto
          -39 callsubr
          -470 -940 rmoveto
          -76 callsubr
          -3 -439 rmoveto
          -75 callsubr
          endchar
        </CharString>
        <CharString name="Amacron">
          196 0 21 107 165 419 20 65 93 hstem
          349 307 vstem
          349 797 rmoveto
          6 callsubr
          -339 -890 rmoveto
          -76 callsubr
          -3 -439 rmoveto
          -75 callsubr
          endchar
        </CharString>
        <CharString name="Aogonek">
          196 -19 20 -1 21 107 165 419 20 hstemhm
          hintmask 10000000
          576 1 rmoveto
          47 callsubr
          hintmask 01110000
          -620 -1 rmoveto
          -76 callsubr
          -3 -439 rmoveto
          -75 callsubr
          endchar
        </CharString>
        <CharString name="Aring">
          196 0 21 107 165 419 20 -2 67 67 66 hstemhm
          391 203 hintmask 00011100
          391 830 rmoveto
          20 callsubr
          68 hmoveto
          21 callsubr
          hintmask 11100000
          -434 -830 rmoveto
          -76 callsubr
          -3 -439 rmoveto
          -75 callsubr
          endchar
        </CharString>
        <CharString name="Atilde">
          196 0 21 107 165 419 20 65 106 -71 106 hstemhm
          hintmask 00010000
          332 864 rmoveto
          16 -67 rlineto
          hintmask 00001000
          -4 callsubr
          hintmask 00010000
          -3 callsubr
          hintmask 00001000
          -2 callsubr
          hintmask 11100000
          -307 -864 rmoveto
          -76 callsubr
          -3 -439 rmoveto
          -75 callsubr
          endchar
        </CharString>
        <CharString name="B">
          86 0 164 142 154 108 164 hstem
          45 hmoveto
          -74 callsubr
          104 -568 rmoveto
          -73 callsubr
          -62 296 rmoveto
          -72 callsubr
          endchar
        </CharString>
        <CharString name="C">
          51 -6 174 398 174 hstem
          88 399 rmoveto
          -71 callsubr
          endchar
        </CharString>
        <CharString name="Cacute">
          51 -6 174 398 174 60 143 hstem
          405 245 vstem
          405 800 rmoveto
          12 callsubr
          -417 -544 rmoveto
          -71 callsubr
          endchar
        </CharString>
        <CharString name="Ccaron">
          51 -6 174 398 174 60 140 hstem
          326 322 vstem
          326 940 rmoveto
          48 callsubr
          -37 -140 rmoveto
          126 hmoveto
          -438 -401 rmoveto
          -71 callsubr
          endchar
        </CharString>
        <CharString name="Ccedilla">
          51 -6 174 398 174 hstem
          88 399 rmoveto
          -71 callsubr
          77 -581 rmoveto
          61 hlineto
          92 0 37 44 16 102 rrcurveto
          -117 hlineto
          -6 -38 -1 -2 -30 -12 rrcurveto
          -39 -15 rlineto
          endchar
        </CharString>
        <CharString name="Ccircumflex">
          51 -6 174 398 174 60 140 hstem
          279 322 vstem
          279 800 rmoveto
          19 callsubr
          0 vmoveto
          131 hmoveto
          -444 -541 rmoveto
          -71 callsubr
          endchar
        </CharString>
        <CharString name="Cdotaccent">
          51 -6 174 398 174 60 142 hstem
          385 152 vstem
          385 823 rmoveto
          49 callsubr
          -312 -518 rmoveto
          -71 callsubr
          endchar
        </CharString>
        <CharString name="D">
          131 0 164 404 164 hstem
          45 hmoveto
          -70 callsubr
          104 -568 rmoveto
          -69 callsubr
          endchar
        </CharString>
        <CharString name="Dcaron">
          131 0 164 404 164 65 140 hstem
          291 322 vstem
          291 937 rmoveto
          48 callsubr
          -37 -140 rmoveto
          126 hmoveto
          -446 -797 rmoveto
          -70 callsubr
          104 -568 rmoveto
          -69 callsubr
          endchar
        </CharString>
        <CharString name="Dcroat">
          125 0 164 172 74 158 164 hstem
          44 336 rmoveto
          23 callsubr
          220 -246 rmoveto
          24 callsubr
          endchar
        </CharString>
        <CharString name="E">
          -3 179 -162 162 100 181 -172 161 107 179 -179 163 hstemhm
          hintmask 10000000
          64 173 rmoveto
          -24 -153 118.667007446 -25.3333282471 74.3329925537 2.33332824707 rrcurveto
          hintmask 01000000
          -68 callsubr
          hintmask 10100000
          -67 callsubr
          hintmask 00010000
          -66 callsubr
          hintmask 00101000
          -65 callsubr
          hintmask 00000100
          -64 callsubr
          hintmask 10001000
          -63 callsubr
          endchar
        </CharString>
        <CharString name="Eacute">
          -3 179 -162 162 100 181 -172 161 107 163 -163 179 60 143 hstemhm
          368 245 hintmask 00000011
          368 792 rmoveto
          12 callsubr
          hintmask 10000000
          -404 -762 rmoveto
          22 callsubr
          hintmask 01000000
          -68 callsubr
          hintmask 10100000
          -67 callsubr
          hintmask 00010000
          -66 callsubr
          hintmask 00100100
          -65 callsubr
          hintmask 00001000
          -64 callsubr
          hintmask 10000100
          -63 callsubr
          endchar
        </CharString>
        <CharString name="Ecaron">
          -3 179 -162 162 100 181 -172 161 107 163 -163 179 65 140 hstemhm
          280 322 hintmask 00000011
          280 937 rmoveto
          48 callsubr
          -37 -140 rmoveto
          126 hmoveto
          hintmask 10000000
          -416 -624 rmoveto
          22 callsubr
          hintmask 01000000
          -68 callsubr
          hintmask 10100000
          -67 callsubr
          hintmask 00010000
          -66 callsubr
          hintmask 00100100
          -65 callsubr
          hintmask 00001000
          -64 callsubr
          hintmask 10000100
          -63 callsubr
          endchar
        </CharString>
        <CharString name="Ecircumflex">
          -3 179 -162 162 100 181 -172 161 107 163 -163 179 60 140 hstemhm
          267 322 hintmask 00000011
          267 792 rmoveto
          -40 callsubr
          0 vmoveto
          131 hmoveto
          hintmask 10000000
          -456 -759 rmoveto
          22 callsubr
          hintmask 01000000
          -68 callsubr
          hintmask 10100000
          -67 callsubr
          hintmask 00010000
          -66 callsubr
          hintmask 00100100
          -65 callsubr
          hintmask 00001000
          -64 callsubr
          hintmask 10000100
          -63 callsubr
          endchar
        </CharString>
        <CharString name="Edieresis">
          -3 179 -162 162 100 181 -172 161 107 163 -163 179 45 131 hstemhm
          231 131 124 131 hintmask 0000001110000000
          231 843 rmoveto
          1 callsubr
          255 hmoveto
          1 callsubr
          hintmask 1000000000000000
          -422 -670 rmoveto
          22 callsubr
          hintmask 0100000000000000
          -68 callsubr
          hintmask 1010000000000000
          -67 callsubr
          hintmask 0001000000000000
          -66 callsubr
          hintmask 0010010000000000
          -65 callsubr
          hintmask 0000100000000000
          -64 callsubr
          hintmask 1000010000000000
          -63 callsubr
          endchar
        </CharString>
        <CharString name="Edotaccent">
          -3 179 -162 162 100 181 -172 161 107 163 -163 179 65 142 hstemhm
          363 152 hintmask 00000011
          363 820 rmoveto
          49 callsubr
          hintmask 10000000
          -314 -741 rmoveto
          22 callsubr
          hintmask 01000000
          -68 callsubr
          hintmask 10100000
          -67 callsubr
          hintmask 00010000
          -66 callsubr
          hintmask 00100100
          -65 callsubr
          hintmask 00001000
          -64 callsubr
          hintmask 10000100
          -63 callsubr
          endchar
        </CharString>
        <CharString name="Egrave">
          -3 179 -162 162 100 181 -172 161 107 163 -163 179 60 143 hstemhm
          271 199 hintmask 00000011
          271 935 rmoveto
          -39 callsubr
          hintmask 10000000
          -352 -762 rmoveto
          22 callsubr
          hintmask 01000000
          -68 callsubr
          hintmask 10100000
          -67 callsubr
          hintmask 00010000
          -66 callsubr
          hintmask 00100100
          -65 callsubr
          hintmask 00001000
          -64 callsubr
          hintmask 10000100
          -63 callsubr
          endchar
        </CharString>
        <CharString name="Emacron">
          -3 179 -162 162 100 181 -172 161 107 163 -163 179 60 93 hstemhm
          275 307 hintmask 00000011
          275 792 rmoveto
          6 callsubr
          hintmask 10000000
          -226 -712 rmoveto
          22 callsubr
          hintmask 01000000
          -68 callsubr
          hintmask 10100000
          -67 callsubr
          hintmask 00010000
          -66 callsubr
          hintmask 00100100
          -65 callsubr
          hintmask 00001000
          -64 callsubr
          hintmask 10000100
          -63 callsubr
          endchar
        </CharString>
        <CharString name="Eng">
          162 -257 137 141 -21 732 -20 hstem
          45 hmoveto
          195 0 58 364 152 -364 -10 -60 rlineto
          -9 -58 -39 -1 -51 -1 rrcurveto
          -22 -137 rlineto
          118 -13 166 13 31 193 rrcurveto
          10 64 116 732 -194 0 -59 -374 -150 374 -196 0 rlineto
          endchar
        </CharString>
        <CharString name="Eogonek">
          -6 20 -17 179 -162 162 100 181 -172 161 107 163 -163 179 hstemhm
          hintmask 10000000
          463 14 rmoveto
          47 callsubr
          hintmask 01000000
          -468 159 rmoveto
          22 callsubr
          hintmask 00100000
          -68 callsubr
          hintmask 01010000
          -67 callsubr
          hintmask 00001000
          -66 callsubr
          hintmask 00010010
          -65 callsubr
          hintmask 00000100
          -64 callsubr
          hintmask 01000010
          -63 callsubr
          endchar
        </CharString>
        <CharString name="Eth">
          125 0 164 172 74 158 164 hstem
          33 336 rmoveto
          23 callsubr
          220 -246 rmoveto
          24 callsubr
          endchar
        </CharString>
        <CharString name="Euro">
          178 -6 154 0 90 7 87 48 100 -92 83 105 164 hstemhm
          hintmask 01100100
          45 245 rmoveto
          67 -7 rlineto
          hintmask 10100100
          -36 -226 174 -18 77 0 123 0 89 6 74 39 rrcurveto
          22 136 rlineto
          0 -137 -27 -86 vhcurveto
          hintmask 01110100
          -58 0 -62 -1 14 91 -3 2 238 5 0 0 rrcurveto
          14 87 -233 7 6 41 235 7 14 86 -233 7 rlineto
          11 67 3 29 121 0 rrcurveto
          82 131 -15 0 hvcurveto
          22 139 rlineto
          -81 32 -136 8 -52 0 -244 0 -40 -188 -11 -72 rrcurveto
          hintmask 00101100
          -69 -9 -13 -83 rlineto
          hintmask 01110100
          66 -8 -6 -41 -69 -7 rlineto
          endchar
        </CharString>
        <CharString name="Euro.smcp">
          7 -5 157 42 77 30 74 48 154 hstem
          39 194 rmoveto
          47 -6 rlineto
          -19 -155 104 -38 97 0 65 0 124 5 50 23 rrcurveto
          22 142 rlineto
          0 -113 -13 -73 vhcurveto
          -28 0 -40 -5 6 41 -2 2 168 4 0 0 rrcurveto
          12 77 -164 5 3 19 166 5 12 76 -164 6 rlineto
          7 43 27 -2 40 0 rrcurveto
          64 116 -11 0 hvcurveto
          22 142 rlineto
          -85 16 -101 7 -41 0 -203 0 -29 -108 -12 -87 rrcurveto
          -49 -7 -12 -74 47 -6 -3 -19 -49 -5 rlineto
          endchar
        </CharString>
        <CharString name="F">
          42 21 -21 272 181 -172 161 111 179 -179 163 hstemhm
          hintmask 11000000
          40 hmoveto
          194 0 43 272 rlineto
          hintmask 10100000
          -62 callsubr
          hintmask 11010000
          -61 callsubr
          hintmask 10001000
          25 163 rlineto
          hintmask 11010000
          -60 callsubr
          endchar
        </CharString>
        <CharString name="G">
          103 576 164 hstem
          93 410 rmoveto
          -59 callsubr
          endchar
        </CharString>
        <CharString name="Gbreve">
          103 576 164 60 65 hstem
          345 67 96 67 vstem
          345 912 rmoveto
          46 callsubr
          -319 -502 rmoveto
          -59 callsubr
          endchar
        </CharString>
        <CharString name="Gcircumflex">
          103 576 164 60 140 hstem
          283 322 vstem
          283 800 rmoveto
          19 callsubr
          0 vmoveto
          131 hmoveto
          -443 -530 rmoveto
          -59 callsubr
          endchar
        </CharString>
        <CharString name="Gcommaaccent">
          103 -289.199996948 55.8000030518 809.399993896 164 hstem
          229.100006104 171.899993896 vstem
          hintmask 00000000
          229.099609375 -289.200195312 rmoveto
          58 callsubr
          -145.099609375 643.400390625 rmoveto
          -59 callsubr
          endchar
        </CharString>
        <CharString name="Gdotaccent">
          103 576 164 60 142 hstem
          382 152 vstem
          382 823 rmoveto
          49 callsubr
          -304 -507 rmoveto
          -59 callsubr
          endchar
        </CharString>
        <CharString name="H">
          121 21 -21 267 174 291 -20 hstem
          45 hmoveto
          -58 callsubr
          endchar
        </CharString>
        <CharString name="Hbar">
          165 21 -21 267 174 75 74 142 -20 hstem
          46 hmoveto
          194 0 42 267 170 0 -42 -267 194 0 82 516 65 0 11 74 -65 0 23 142 -194 0 -23 -142 -170 0 23 142 -194 0 rlineto
          -23 -142 -65 0 -11 -74 65 0 rlineto
          182 -75 rmoveto
          12 75 170 0 -12 -75 rlineto
          endchar
        </CharString>
        <CharString name="Hcircumflex">
          121 0 21 246 174 271 20 65 140 hstem
          289 322 vstem
          289 797 rmoveto
          19 callsubr
          0 vmoveto
          131 hmoveto
          -497 -937 rmoveto
          -58 callsubr
          endchar
        </CharString>
        <CharString name="I">
          -233 21 -21 732 -20 hstem
          45 310 vstem
          45 hmoveto
          -57 callsubr
          endchar
        </CharString>
        <CharString name="Iacute">
          -233 0 21 691 20 65 143 hstemhm
          45 310 -141 245 hintmask 00101000
          214 797 rmoveto
          12 callsubr
          hintmask 11010000
          -269 -940 rmoveto
          -57 callsubr
          endchar
        </CharString>
        <CharString name="Icircumflex">
          -233 0 21 691 20 65 140 hstemhm
          45 310 -248 322 hintmask 00101000
          107 797 rmoveto
          19 callsubr
          0 vmoveto
          131 hmoveto
          hintmask 11010000
          -315 -937 rmoveto
          -57 callsubr
          endchar
        </CharString>
        <CharString name="Idieresis">
          -233 0 21 691 20 65 131 hstemhm
          45 310 -269 131 124 131 hintmask 00101100
          86 863 rmoveto
          1 callsubr
          255 hmoveto
          1 callsubr
          hintmask 11010000
          -296 -863 rmoveto
          -57 callsubr
          endchar
        </CharString>
        <CharString name="Idotaccent">
          -233 0 21 691 20 65 142 hstemhm
          45 310 -152 152 hintmask 00101000
          203 820 rmoveto
          49 callsubr
          hintmask 11010000
          -173 -914 rmoveto
          -57 callsubr
          endchar
        </CharString>
        <CharString name="Idotaccent.smcp">
          -247 21 -21 612 142 hstemhm
          29 284 -154 152 hintmask 11100000
          29 hmoveto
          79 callsubr
          hintmask 01010000
          40 65 rmoveto
          49 callsubr
          endchar
        </CharString>
        <CharString name="Igrave">
          -233 0 21 691 20 65 143 hstemhm
          45 310 -231 199 hintmask 00101000
          124 940 rmoveto
          -39 callsubr
          hintmask 11010000
          -224 -940 rmoveto
          -57 callsubr
          endchar
        </CharString>
        <CharString name="Imacron">
          -233 0 21 691 20 65 93 hstemhm
          45 310 -233 307 hintmask 00101000
          122 797 rmoveto
          6 callsubr
          hintmask 11010000
          -92 -890 rmoveto
          -57 callsubr
          endchar
        </CharString>
        <CharString name="Iogonek">
          -233 -19 20 -1 21 691 20 hstemhm
          45 310 hintmask 10000000
          115.579101562 1 rmoveto
          -146.969726562 -78 95.33203125 -147 103.275390625 34 rrcurveto
          13.90234375 90 rlineto
          -36.7421875 -6 -44.6865234375 54 84.4072265625 53 rrcurveto
          hintmask 01110000
          -139.09765625 -1 rmoveto
          -57 callsubr
          endchar
        </CharString>
        <CharString name="Itilde">
          -233 0 21 691 20 65 106 -71 106 hstemhm
          45 310 hintmask 00100000
          105 864 rmoveto
          16 -67 rlineto
          hintmask 00010000
          -4 callsubr
          hintmask 00100000
          -3 callsubr
          hintmask 00010000
          -2 callsubr
          hintmask 11001000
          -60 -864 rmoveto
          -57 callsubr
          endchar
        </CharString>
        <CharString name="J">
          -161 732 -20 hstem
          23 25 rmoveto
          -56 callsubr
          endchar
        </CharString>
        <CharString name="Jcircumflex">
          -161 712 20 65 140 hstem
          189 322 vstem
          189 797 rmoveto
          19 callsubr
          0 vmoveto
          131 hmoveto
          -419 -912 rmoveto
          -56 callsubr
          endchar
        </CharString>
        <CharString name="K">
          145 21 -21 732 -20 hstem
          45 hmoveto
          -55 callsubr
          endchar
        </CharString>
        <CharString name="Kcommaaccent">
          145 -284.199996948 55.8000030518 228.399993896 21 691 20 hstem
          216.100006104 171.899993896 vstem
          hintmask 00000000
          216.099609375 -284.200195312 rmoveto
          58 callsubr
          -180.099609375 228.400390625 rmoveto
          -55 callsubr
          endchar
        </CharString>
        <CharString name="L">
          10 0 174 558 -20 hstem
          69 156 rmoveto
          -54 callsubr
          endchar
        </CharString>
        <CharString name="Lacute">
          10 0 174 538 20 60 143 hstem
          163 245 vstem
          163 792 rmoveto
          12 callsubr
          -235 -779 rmoveto
          -54 callsubr
          endchar
        </CharString>
        <CharString name="Lcaron">
          10 0 174 558 -20 hstem
          69 156 rmoveto
          -54 callsubr
          230 -161 rmoveto
          50 callsubr
          endchar
        </CharString>
        <CharString name="Lcommaaccent">
          10 -284.199996948 55.8000030518 228.399993896 174 538 20 hstem
          177.100006104 171.899993896 vstem
          hintmask 00000000
          177.099609375 -284.200195312 rmoveto
          58 callsubr
          -117.099609375 384.400390625 rmoveto
          -54 callsubr
          endchar
        </CharString>
        <CharString name="Lslash">
          12 0 174 558 -20 hstem
          18 293 rmoveto
          79 31 -27 -168 rlineto
          -18 -113 69 -43 91 0 rrcurveto
          296 0 27 174 -206 0 rlineto
          -29 0 -33 -1 8 53 rrcurveto
          29 181 96 38 13 81 -96 -38 38 244 -194 0 -51 -327 -79 -31 rlineto
          endchar
        </CharString>
        <CharString name="M">
          334 21 -21 732 -20 hstem
          665 191 vstem
          31 hmoveto
          -53 callsubr
          endchar
        </CharString>
        <CharString name="M.salt">
          391 21 -21 hstem
          31 hmoveto
          100 callsubr
          endchar
        </CharString>
        <CharString name="N">
          162 21 -21 732 -20 hstem
          45 hmoveto
          -52 callsubr
          endchar
        </CharString>
        <CharString name="N.salt">
          228 21 -21 732 -20 hstem
          45 hmoveto
          99 callsubr
          endchar
        </CharString>
        <CharString name="Nacute">
          162 0 21 691 20 65 143 hstem
          416 245 vstem
          416 797 rmoveto
          12 callsubr
          -471 -940 rmoveto
          -52 callsubr
          endchar
        </CharString>
        <CharString name="Nacute.salt">
          228 0 21 691 20 69 143 hstem
          485 245 vstem
          485 801 rmoveto
          12 callsubr
          -540 -944 rmoveto
          99 callsubr
          endchar
        </CharString>
        <CharString name="Ncaron">
          162 0 21 691 20 65 140 hstem
          332 322 vstem
          332 937 rmoveto
          48 callsubr
          -37 -140 rmoveto
          126 hmoveto
          -487 -797 rmoveto
          -52 callsubr
          endchar
        </CharString>
        <CharString name="Ncaron.salt">
          228 0 21 691 20 69 140 hstem
          361 322 vstem
          361 941 rmoveto
          48 callsubr
          -37 -140 rmoveto
          126 hmoveto
          -516 -801 rmoveto
          99 callsubr
          endchar
        </CharString>
        <CharString name="Ncommaaccent">
          162 -284.199996948 55.8000030518 228.399993896 21 691 20 hstem
          241.100006104 171.899993896 vstem
          hintmask 00000000
          241.099609375 -284.200195312 rmoveto
          58 callsubr
          -205.099609375 228.400390625 rmoveto
          -52 callsubr
          endchar
        </CharString>
        <CharString name="Ncommaaccent.salt">
          228 -319 62 257 21 691 20 hstem
          284 191 vstem
          284 -319 rmoveto
          -100 callsubr
          -249 257 rmoveto
          99 callsubr
          endchar
        </CharString>
        <CharString name="Ntilde">
          162 0 21 691 20 65 106 -71 106 hstemhm
          hintmask 00100000
          308 864 rmoveto
          16 -67 rlineto
          hintmask 00010000
          -4 callsubr
          hintmask 00100000
          -3 callsubr
          hintmask 00010000
          -2 callsubr
          hintmask 11000000
          -263 -864 rmoveto
          -52 callsubr
          endchar
        </CharString>
        <CharString name="Ntilde.salt">
          228 0 21 691 20 65 106 -71 106 hstemhm
          hintmask 00100000
          321 864 rmoveto
          16 -67 rlineto
          hintmask 00010000
          -4 callsubr
          hintmask 00100000
          -3 callsubr
          hintmask 00010000
          -2 callsubr
          hintmask 11000000
          -276 -864 rmoveto
          99 callsubr
          endchar
        </CharString>
        <CharString name="O">
          151 -4 174 393 174 hstem
          94 386 rmoveto
          -51 callsubr
          194 -25 rmoveto
          -50 callsubr
          endchar
        </CharString>
        <CharString name="OE">
          492 -4 174 -156 162 100 181 -172 161 107 179 -179 163 -153 174 hstemhm
          hintmask 10000000
          73 386 rmoveto
          -53 -333 118 -57 180 0 75 0 66 3 56 27 37 -25 49 -6 33 2 rrcurveto
          hintmask 01100000
          0 0 194 3 106 14 rrcurveto
          25 162 -237 0 rlineto
          -29 0 -33 -1 9 53 rrcurveto
          8 48 rlineto
          hintmask 00010000
          249 9 25 161 rlineto
          hintmask 00101000
          -246 11 6 40 rlineto
          4 27 5 29 52 0 rrcurveto
          hintmask 00000100
          -64 callsubr
          hintmask 00001000
          -115 16 -190 0 0 0 -48 3 -51 -5 -41 -28 rrcurveto
          hintmask 10000010
          -44 27 -57 8 -64 0 rrcurveto
          -168 0 -140 -8 -54 -343 rrcurveto
          194 -25 rmoveto
          -50 callsubr
          endchar
        </CharString>
        <CharString name="Oacute">
          151 -4 174 393 174 60 143 hstem
          411 245 vstem
          411 797 rmoveto
          12 callsubr
          -417 -554 rmoveto
          -51 callsubr
          194 -25 rmoveto
          -50 callsubr
          endchar
        </CharString>
        <CharString name="Ocircumflex">
          151 -4 174 393 174 60 140 hstem
          305 322 vstem
          305 797 rmoveto
          19 callsubr
          0 vmoveto
          131 hmoveto
          -464 -551 rmoveto
          -51 callsubr
          194 -25 rmoveto
          -50 callsubr
          endchar
        </CharString>
        <CharString name="Odieresis">
          151 -4 174 393 174 60 131 hstem
          284 131 124 131 vstem
          284 863 rmoveto
          1 callsubr
          255 hmoveto
          1 callsubr
          -445 -477 rmoveto
          -51 callsubr
          194 -25 rmoveto
          -50 callsubr
          endchar
        </CharString>
        <CharString name="Ograve">
          151 -4 174 393 174 60 143 hstem
          321 199 vstem
          321 940 rmoveto
          -39 callsubr
          -372 -554 rmoveto
          -51 callsubr
          194 -25 rmoveto
          -50 callsubr
          endchar
        </CharString>
        <CharString name="Ohungarumlaut">
          151 -4 174 393 174 60 143 hstem
          325 797 rmoveto
          12 callsubr
          73 -143 rmoveto
          12 callsubr
          -504 -554 rmoveto
          -51 callsubr
          194 -25 rmoveto
          -50 callsubr
          endchar
        </CharString>
        <CharString name="Omacron">
          151 -4 174 393 174 60 93 hstem
          320 307 vstem
          320 797 rmoveto
          6 callsubr
          -241 -504 rmoveto
          -51 callsubr
          194 -25 rmoveto
          -50 callsubr
          endchar
        </CharString>
        <CharString name="Omega">
          236 0 157 408 174 hstem
          42 hmoveto
          260 0 27 168 rlineto
          -52 62 -1 63 14 87 11 70 34 115 130 0 120 0 2 -115 -10 -65 -14 -89 -24 -72 -65 -56 rrcurveto
          -27 -168 268 0 25 157 -87 10 rlineto
          57 59 43 50 19 117 29 182 -70 164 -248 0 -262 0 -96 -147 -24 -154 -18 -112 22 -114 57 -44 rrcurveto
          -95 -10 rlineto
          endchar
        </CharString>
        <CharString name="Oslash">
          151 -4 174 393 174 hstem
          21 hmoveto
          86 0 35 40 rlineto
          46 -38 69 -6 81 0 180 0 130 12 51 323 23 148 -10 120 -32 55 rrcurveto
          68 78 -86 0 -27 -31 rlineto
          -45 30 -63 6 -71 0 -168 0 -141 -3 -54 -343 -21 -130 7 -114 24 -54 rrcurveto
          184 268 rmoveto
          28 179 25 23 88 0 33 0 23 -4 14 -14 rrcurveto
          -221 -252 rlineto
          2 20 4 22 4 26 rrcurveto
          -3 -159 rmoveto
          233 267 rlineto
          0 -28 -5 -35 -7 -45 -25 -155 -28 -36 -86 0 -45 0 -25 8 -12 24 rrcurveto
          endchar
        </CharString>
        <CharString name="Otilde">
          151 -4 174 393 174 60 106 -71 106 hstemhm
          hintmask 00100000
          302 864 rmoveto
          16 -67 rlineto
          hintmask 00010000
          -4 callsubr
          hintmask 00100000
          -3 callsubr
          hintmask 00010000
          -2 callsubr
          hintmask 11000000
          -208 -478 rmoveto
          -51 callsubr
          194 -25 rmoveto
          -50 callsubr
          endchar
        </CharString>
        <CharString name="P">
          85 21 -21 567 165 hstem
          44 hmoveto
          -49 callsubr
          143 -320 rmoveto
          -48 callsubr
          endchar
        </CharString>
        <CharString name="Q">
          151 -4 174 393 174 hstem
          94 391 rmoveto
          -53 -333 118 -62 180 0 180 2 130 10 51 323 54 343 -125 63 -173 0 -168 0 -140 -3 -54 -343 rrcurveto
          194 -30 rmoveto
          -50 callsubr
          -8 -394 rmoveto
          -23 -151 129 -42 127 18 rrcurveto
          22 140 rlineto
          -62 -12 -95 -14 4 61 rrcurveto
          endchar
        </CharString>
        <CharString name="R">
          84 21 -21 567 165 hstem
          44 hmoveto
          -47 callsubr
          145 -313 rmoveto
          -46 callsubr
          endchar
        </CharString>
        <CharString name="Racute">
          84 0 21 546 165 60 143 hstem
          352 245 vstem
          352 792 rmoveto
          12 callsubr
          -420 -935 rmoveto
          -47 callsubr
          145 -313 rmoveto
          -46 callsubr
          endchar
        </CharString>
        <CharString name="Rcaron">
          84 0 21 546 165 65 140 hstem
          287 322 vstem
          287 937 rmoveto
          48 callsubr
          -37 -140 rmoveto
          126 hmoveto
          -443 -797 rmoveto
          -47 callsubr
          145 -313 rmoveto
          -46 callsubr
          endchar
        </CharString>
        <CharString name="Rcommaaccent">
          84 -284.199996948 55.8000030518 228.399993896 21 546 165 hstem
          205.100006104 171.899993896 vstem
          hintmask 00000000
          205.099609375 -284.200195312 rmoveto
          58 callsubr
          -170.099609375 228.400390625 rmoveto
          -47 callsubr
          145 -313 rmoveto
          -46 callsubr
          endchar
        </CharString>
        <CharString name="S">
          71 -8 174 398 174 hstem
          64 26 rmoveto
          95 -34 44.3000030518 0 144.699996948 0 99 0 142 6 7 188 rrcurveto
          2 63 rlineto
          10 80 -18 132 -152 0 rrcurveto
          -74 hlineto
          -54 0 -4 17 5 31 rrcurveto
          2 11 rlineto
          7 42 20 2 54 0 66 0 100 -3 63 -7 rrcurveto
          24 151 rlineto
          -70 27 -77 10 -148 -4 -112 -3 -99 -22 -20 -145 rrcurveto
          -11 -84 rlineto
          -6.16999816895 -47.1150054932 -7.83000183105 -169.884994507 191 0 rrcurveto
          70 hlineto
          44 0 7 -15 -5 -29 rrcurveto
          -2 -16 rlineto
          -5 -30 -18 -11 -43 0 -93 0 -115 7 -39 4 rrcurveto
          endchar
        </CharString>
        <CharString name="Sacute">
          71 -8 174 398 174 61 143 hstem
          355 245 vstem
          355 799 rmoveto
          12 callsubr
          -391 -916 rmoveto
          51 callsubr
          endchar
        </CharString>
        <CharString name="Scaron">
          71 -8 174 398 174 61 140 hstem
          271 322 vstem
          271 939 rmoveto
          48 callsubr
          -37 -140 rmoveto
          126 hmoveto
          -407 -773 rmoveto
          51 callsubr
          endchar
        </CharString>
        <CharString name="Scedilla">
          71 -191 146 37 174 398 174 hstem
          188 205 vstem
          188 -191 rmoveto
          13 callsubr
          -137 138 rmoveto
          51 callsubr
          endchar
        </CharString>
        <CharString name="Scircumflex">
          71 -8 174 398 174 61 140 hstem
          249 322 vstem
          249 799 rmoveto
          19 callsubr
          0 vmoveto
          131 hmoveto
          -438 -913 rmoveto
          51 callsubr
          endchar
        </CharString>
        <CharString name="T">
          82 21 -21 558 174 hstem
          108 558 rmoveto
          -45 callsubr
          endchar
        </CharString>
        <CharString name="Tbar">
          102 21 -21 350 74 134 174 hstem
          108 558 rmoveto
          184 0 -21 -134 -80 0 -12 -74 80 0 -55 -350 194 0 55 350 80 0 12 74 -80 0 21 134 190 0 28 174 -568 0 rlineto
          endchar
        </CharString>
        <CharString name="Tcaron">
          82 0 21 537 174 65 140 hstem
          291 322 vstem
          291 937 rmoveto
          48 callsubr
          -37 -140 rmoveto
          126 hmoveto
          -383 -239 rmoveto
          -45 callsubr
          endchar
        </CharString>
        <CharString name="Tcommaaccent">
          82 -181 146 35 21 537 174 hstem
          126 205 vstem
          126 -181 rmoveto
          13 callsubr
          -54 660 rmoveto
          -45 callsubr
          endchar
        </CharString>
        <CharString name="Thorn">
          23 21 -21 149 164 hstem
          34 hmoveto
          194 0 27 168 rlineto
          40 -21 18 0 46 2 74 3 105 6 32 204 28 179 -91 47 -79 0 rrcurveto
          -107 0 22 141 -194 0 rlineto
          -38 -243 -39 -243 -38 -243 rrcurveto
          244 313 rmoveto
          17 111 27 0 rlineto
          40 0 21 -1 -8 -51 -9 -55 -9 -4 -52 0 rrcurveto
          endchar
        </CharString>
        <CharString name="U">
          137 -5 174 563 -20 hstem
          96 350 rmoveto
          -44 callsubr
          endchar
        </CharString>
        <CharString name="Uacute">
          137 -5 174 543 20 65 143 hstem
          402 245 vstem
          402 797 rmoveto
          12 callsubr
          -406 -590 rmoveto
          -44 callsubr
          endchar
        </CharString>
        <CharString name="Ubreve">
          137 -5 174 543 20 65 65 hstem
          360 67 96 67 vstem
          360 909 rmoveto
          46 callsubr
          -331 -559 rmoveto
          -44 callsubr
          endchar
        </CharString>
        <CharString name="Ucircumflex">
          137 -5 174 543 20 65 140 hstem
          296 322 vstem
          296 797 rmoveto
          19 callsubr
          0 vmoveto
          131 hmoveto
          -453 -587 rmoveto
          -44 callsubr
          endchar
        </CharString>
        <CharString name="Udieresis">
          137 -5 174 543 20 65 131 hstem
          275 131 124 131 vstem
          275 863 rmoveto
          1 callsubr
          255 hmoveto
          1 callsubr
          -434 -513 rmoveto
          -44 callsubr
          endchar
        </CharString>
        <CharString name="Ugrave">
          137 -5 174 543 20 65 143 hstem
          312 199 vstem
          312 940 rmoveto
          -39 callsubr
          -361 -590 rmoveto
          -44 callsubr
          endchar
        </CharString>
        <CharString name="Uhungarumlaut">
          137 -5 174 543 20 65 143 hstem
          316 797 rmoveto
          12 callsubr
          73 -143 rmoveto
          12 callsubr
          -493 -590 rmoveto
          -44 callsubr
          endchar
        </CharString>
        <CharString name="Umacron">
          137 -5 174 543 20 65 93 hstem
          311 307 vstem
          311 797 rmoveto
          6 callsubr
          -230 -540 rmoveto
          -44 callsubr
          endchar
        </CharString>
        <CharString name="Uogonek">
          137 -19 20 -6 174 543 20 hstemhm
          hintmask 10000000
          309 1 rmoveto
          47 callsubr
          hintmask 01100000
          -282 349 rmoveto
          -44 callsubr
          endchar
        </CharString>
        <CharString name="Uring">
          137 -5 174 543 20 65 67 67 66 hstem
          371 203 vstem
          371 897 rmoveto
          20 callsubr
          68 hmoveto
          21 callsubr
          -343 -547 rmoveto
          -44 callsubr
          endchar
        </CharString>
        <CharString name="Utilde">
          137 -5 174 543 20 65 106 -71 106 hstemhm
          hintmask 00100000
          293 864 rmoveto
          16 -67 rlineto
          hintmask 00010000
          -4 callsubr
          hintmask 00100000
          -3 callsubr
          hintmask 00010000
          -2 callsubr
          hintmask 11000000
          -197 -514 rmoveto
          -44 callsubr
          endchar
        </CharString>
        <CharString name="V">
          184 21 -21 732 -20 hstem
          130 732 rmoveto
          91 -732 234 0 335 732 -214 0 -203 -494 -39 494 rlineto
          endchar
        </CharString>
        <CharString name="W">
          502 21 -21 732 -20 hstem
          130 732 rmoveto
          -43 callsubr
          endchar
        </CharString>
        <CharString name="Wacute">
          502 0 21 691 20 65 143 hstem
          576 245 vstem
          576 797 rmoveto
          12 callsubr
          -546 -208 rmoveto
          -43 callsubr
          endchar
        </CharString>
        <CharString name="Wcircumflex">
          502 0 21 691 20 65 140 hstem
          427 322 vstem
          427 797 rmoveto
          19 callsubr
          0 vmoveto
          131 hmoveto
          -550 -205 rmoveto
          -43 callsubr
          endchar
        </CharString>
        <CharString name="Wdieresis">
          502 0 21 691 20 65 131 hstem
          458 131 124 131 vstem
          458 863 rmoveto
          1 callsubr
          255 hmoveto
          1 callsubr
          -583 -131 rmoveto
          -43 callsubr
          endchar
        </CharString>
        <CharString name="Wgrave">
          502 0 21 691 20 65 143 hstem
          486 199 vstem
          486 940 rmoveto
          -39 callsubr
          -501 -208 rmoveto
          -43 callsubr
          endchar
        </CharString>
        <CharString name="X">
          164 21 -21 732 -20 hstem
          28 hmoveto
          215 0 132 196 70 -196 215 0 -151 343 272 389 -215 0 -137 -203 -73 203 -215 0 153 -349 rlineto
          endchar
        </CharString>
        <CharString name="X.salt">
          178 21 -21 732 -20 hstem
          11 hmoveto
          220 0 141 251 rlineto
          0 0 37 222 -1 4 rrcurveto
          -71 255 -210 0 84 -265 rlineto
          19 -70 -7 -19 -36 -63 rrcurveto
          215 -64 rmoveto
          70 -251 210 0 -80 295 rlineto
          -16 63 -1 19 41 70 rrcurveto
          172 285 -210 0 -150 -255 rlineto
          -1 -2 -35 -224 0 0 rrcurveto
          endchar
        </CharString>
        <CharString name="Y">
          164 21 -21 732 -20 hstem
          130 732 rmoveto
          -42 callsubr
          endchar
        </CharString>
        <CharString name="Yacute">
          164 0 21 691 20 65 143 hstem
          406 245 vstem
          406 797 rmoveto
          12 callsubr
          -376 -208 rmoveto
          -42 callsubr
          endchar
        </CharString>
        <CharString name="Ycircumflex">
          164 0 21 691 20 65 140 hstem
          299 322 vstem
          299 797 rmoveto
          19 callsubr
          0 vmoveto
          131 hmoveto
          -422 -205 rmoveto
          -42 callsubr
          endchar
        </CharString>
        <CharString name="Ydieresis">
          164 0 21 691 20 65 131 hstem
          278 131 124 131 vstem
          278 863 rmoveto
          1 callsubr
          255 hmoveto
          1 callsubr
          -403 -131 rmoveto
          -42 callsubr
          endchar
        </CharString>
        <CharString name="Ygrave">
          164 0 21 691 20 65 143 hstem
          316 199 vstem
          316 940 rmoveto
          -39 callsubr
          -331 -208 rmoveto
          -42 callsubr
          endchar
        </CharString>
        <CharString name="Z">
          37 0 174 384 174 hstem
          20 hmoveto
          -41 callsubr
          endchar
        </CharString>
        <CharString name="Zacute">
          37 0 174 384 174 65 143 hstem
          348 245 vstem
          348 797 rmoveto
          12 callsubr
          -428 -940 rmoveto
          -41 callsubr
          endchar
        </CharString>
        <CharString name="Zcaron">
          37 0 174 384 174 65 140 hstem
          264 322 vstem
          264 937 rmoveto
          48 callsubr
          -37 -140 rmoveto
          126 hmoveto
          -444 -797 rmoveto
          -41 callsubr
          endchar
        </CharString>
        <CharString name="Zdotaccent">
          37 0 174 384 174 65 142 hstem
          338 152 vstem
          338 820 rmoveto
          49 callsubr
          -333 -914 rmoveto
          -41 callsubr
          endchar
        </CharString>
        <CharString name="a">
          31 -5 155 hstem
          69 312 rmoveto
          -38 callsubr
          190 -24 rmoveto
          -37 callsubr
          endchar
        </CharString>
        <CharString name="a.salt">
          37 -8 134 274 139 hstem
          66 292 rmoveto
          104 callsubr
          191 -38 rmoveto
          105 callsubr
          endchar
        </CharString>
        <CharString name="a.smcp">
          105 21 -21 87 144 hstem
          20 hmoveto
          60 callsubr
          39 -339 rmoveto
          61 callsubr
          endchar
        </CharString>
        <CharString name="a.superior">
          -116 364 111 hstem
          98 581 rmoveto
          -29 -134 51 -88 77 0 53 0 27 11 17 36 rrcurveto
          22 -42 115 0 46 321 rlineto
          -36 33 -78 11 -61 0 -73 0 -98 1 -33 -149 rrcurveto
          135 -24 rmoveto
          7 52 19 10 20 4 13 3 14 -2 15 -4 rrcurveto
          -16 -115 rlineto
          -2 -19 -20 -11 -28 0 -33 0 5 40 6 42 rrcurveto
          endchar
        </CharString>
        <CharString name="aacute">
          31 -5 155 451 143 hstem
          297 245 vstem
          297 601 rmoveto
          12 callsubr
          -328 -432 rmoveto
          -38 callsubr
          190 -24 rmoveto
          -37 callsubr
          endchar
        </CharString>
        <CharString name="aacute.salt">
          37 -8 134 274 139 60 143 hstem
          306 245 vstem
          306 599 rmoveto
          12 callsubr
          -340 -450 rmoveto
          104 callsubr
          191 -38 rmoveto
          105 callsubr
          endchar
        </CharString>
        <CharString name="aacute.smcp">
          105 0 21 66 144 399 143 hstem
          360 245 vstem
          360 630 rmoveto
          12 callsubr
          -440 -773 rmoveto
          60 callsubr
          39 -339 rmoveto
          61 callsubr
          endchar
        </CharString>
        <CharString name="abreve">
          31 -5 155 453 65 hstem
          244 67 96 67 vstem
          244 715 rmoveto
          46 callsubr
          -242 -403 rmoveto
          -38 callsubr
          190 -24 rmoveto
          -37 callsubr
          endchar
        </CharString>
        <CharString name="abreve.salt">
          37 -8 134 274 139 60 65 hstem
          263 67 96 67 vstem
          263 711 rmoveto
          46 callsubr
          -264 -419 rmoveto
          104 callsubr
          191 -38 rmoveto
          105 callsubr
          endchar
        </CharString>
        <CharString name="abreve.smcp">
          105 0 21 66 144 399 65 hstem
          318 67 96 67 vstem
          318 742 rmoveto
          46 callsubr
          -365 -742 rmoveto
          60 callsubr
          39 -339 rmoveto
          61 callsubr
          endchar
        </CharString>
        <CharString name="acircumflex">
          31 -5 155 451 140 hstem
          196 322 vstem
          196 601 rmoveto
          19 callsubr
          0 vmoveto
          131 hmoveto
          -380 -429 rmoveto
          -38 callsubr
          190 -24 rmoveto
          -37 callsubr
          endchar
        </CharString>
        <CharString name="acircumflex.salt">
          37 -8 134 274 139 60 140 hstem
          196 322 vstem
          196 599 rmoveto
          19 callsubr
          0 vmoveto
          131 hmoveto
          -383 -447 rmoveto
          104 callsubr
          191 -38 rmoveto
          105 callsubr
          endchar
        </CharString>
        <CharString name="acircumflex.smcp">
          105 0 21 66 144 399 140 hstem
          254 322 vstem
          254 630 rmoveto
          19 callsubr
          0 vmoveto
          131 hmoveto
          -487 -770 rmoveto
          60 callsubr
          39 -339 rmoveto
          61 callsubr
          endchar
        </CharString>
        <CharString name="acute">
          -271 531 143 hstem
          95 245 vstem
          95 531 rmoveto
          12 callsubr
          endchar
        </CharString>
        <CharString name="acute.smcp">
          -271 531 143 hstem
          95 245 vstem
          95 531 rmoveto
          12 callsubr
          endchar
        </CharString>
        <CharString name="adieresis">
          31 -5 155 451 131 hstem
          172 131 124 131 vstem
          172 667 rmoveto
          1 callsubr
          255 hmoveto
          1 callsubr
          -358 -355 rmoveto
          -38 callsubr
          190 -24 rmoveto
          -37 callsubr
          endchar
        </CharString>
        <CharString name="adieresis.salt">
          37 -8 134 274 139 60 131 hstem
          170 131 124 131 vstem
          170 665 rmoveto
          1 callsubr
          255 hmoveto
          1 callsubr
          -359 -373 rmoveto
          104 callsubr
          191 -38 rmoveto
          105 callsubr
          endchar
        </CharString>
        <CharString name="adieresis.smcp">
          105 0 21 66 144 399 131 hstem
          233 131 124 131 vstem
          233 696 rmoveto
          1 callsubr
          255 hmoveto
          1 callsubr
          -468 -696 rmoveto
          60 callsubr
          39 -339 rmoveto
          61 callsubr
          endchar
        </CharString>
        <CharString name="ae">
          302 -7 155 -126 136 239 144 hstemhm
          hintmask 10100000
          68 318 rmoveto
          -43 -201 76 -124 96 0 46 0 90 5 46 64 25 -40 39 -24 53 -5 rrcurveto
          hintmask 01100000
          134 -12 78 16 77 25 rrcurveto
          24 136 rlineto
          -49 -10 -85 -9 -46 0 -71 0 -20 7 7 46 37 -15 268 -50 5 261 3 127 -134 27 -105 -1 -59 -1 -32 -6 -36 -12 -44 14 -65 5 -49 0 rrcurveto
          -104 0 -115 -1 -47 -222 rrcurveto
          191 -32 rmoveto
          12 87 28 16 29 7 18 4 20 0 12 -6 -7 -22 -7 -26 -5 -28 -10 -53 -3 -48 2 -41 rrcurveto
          hintmask 10100000
          -9 -18 -20 -10 -30 0 -50 0 10 68 10 70 rrcurveto
          300 30 rmoveto
          7 45 10 34 42 2 29 1 15 -13 -6 -32 -12 -64 -85 27 0 0 rrcurveto
          endchar
        </CharString>
        <CharString name="ae.smcp">
          310 -3 164 -146 146 44 156 -149 141 54 163 -163 146 hstemhm
          hintmask 10000000
          13 hmoveto
          208 0 64 118 95 0 -1 -7 rlineto
          -14 -91 74 -24 56 1 rrcurveto
          hintmask 01000000
          0 0 191 -8 118 26 rrcurveto
          24 146 rlineto
          hintmask 10100000
          -212 hlineto
          -21 0 -14 3 5 29 rrcurveto
          1 12 rlineto
          hintmask 00010000
          75 callsubr
          hintmask 00101000
          -205 8 2 13 rlineto
          4 24 3 9 30 0 rrcurveto
          215 0 rlineto
          hintmask 00000100
          24 146 rlineto
          hintmask 10001000
          -90 17 -205 0 0 0 -94 -1 -174 13 -74 -137 rrcurveto
          99 -203 rmoveto
          67 124 -20 -124 rlineto
          endchar
        </CharString>
        <CharString name="afii61289">
          8 1 113 hstem
          57 258 rmoveto
          8 -93 rlineto
          12 6 14 7 11 7 rrcurveto
          -1 -8 rlineto
          -21 -135 88 -41 97 0 rrcurveto
          178 0 18 113 rlineto
          -7 -51 11 0 hvcurveto
          -110 18 5 53 9 54 rrcurveto
          4 vlineto
          78 40 169 102 22 142 23 144 -91 57 -85 0 -157 0 -86 -65 -19 -122 rrcurveto
          -39 -238 rlineto
          -22 -20 -21 -19 -22 -17 rrcurveto
          279 178 rmoveto
          24 123 rlineto
          9 57 68 -20 -18 -46 -13 -32 -23 -36 -47 -46 rrcurveto
          endchar
        </CharString>
        <CharString name="afii61352">
          628 21 -21 381 132 87 134 hstem
          40 hmoveto
          195 0 89 562 rlineto
          3 17 24 6 -1 -16 rrcurveto
          -22 -403 rlineto
          -13 -226 382 8 31 197 rrcurveto
          61 386 rlineto
          11 69 33 0 89 0 57 0 53 -1 0 0 41 0 -1 -6 -6 -40 -6 -40 -3 0 -24 0 rrcurveto
          -14 hlineto
          -24 0 -1 4 9 58 rrcurveto
          -142 hlineto
          -28 -176 66 -13 116 -5 rrcurveto
          26 hlineto
          122 5 25 41 20 126 22 139 -34 42 -102 0 rrcurveto
          -299 hlineto
          -91 -2 -83 -42 -20 -125 rrcurveto
          -61 -380 rlineto
          -2 -15 -23 -8 1 20 rrcurveto
          22 411 rlineto
          11 201 -382 7 -34 -212 rrcurveto
          endchar
        </CharString>
        <CharString name="agrave">
          31 -5 155 451 143 hstem
          202 199 vstem
          202 744 rmoveto
          -39 callsubr
          -278 -432 rmoveto
          -38 callsubr
          190 -24 rmoveto
          -37 callsubr
          endchar
        </CharString>
        <CharString name="agrave.salt">
          37 -8 134 274 139 60 143 hstem
          203 199 vstem
          203 742 rmoveto
          -39 callsubr
          -282 -450 rmoveto
          104 callsubr
          191 -38 rmoveto
          105 callsubr
          endchar
        </CharString>
        <CharString name="agrave.smcp">
          105 0 21 66 144 399 143 hstem
          270 199 vstem
          270 773 rmoveto
          -39 callsubr
          -395 -773 rmoveto
          60 callsubr
          39 -339 rmoveto
          61 callsubr
          endchar
        </CharString>
        <CharString name="amacron">
          31 -5 155 451 93 hstem
          211.535507202 307 vstem
          211.53515625 601 rmoveto
          6 callsubr
          -157.53515625 -382 rmoveto
          -38 callsubr
          190 -24 rmoveto
          -37 callsubr
          endchar
        </CharString>
        <CharString name="amacron.salt">
          37 -8 134 274 139 60 93 hstem
          214 307 vstem
          214 599 rmoveto
          6 callsubr
          -163 -400 rmoveto
          104 callsubr
          191 -38 rmoveto
          105 callsubr
          endchar
        </CharString>
        <CharString name="amacron.smcp">
          105 0 21 66 144 399 93 hstem
          265 307 vstem
          265 630 rmoveto
          6 callsubr
          -260 -723 rmoveto
          60 callsubr
          39 -339 rmoveto
          61 callsubr
          endchar
        </CharString>
        <CharString name="ampersand">
          196 21 -21 566 144 hstem
          78 87 rmoveto
          64 -114 150 3 66 49 rrcurveto
          76 56 46 -81 216 0 -107 188 45 43 70 124 -56 88 -138 -115 -91 160 rlineto
          -36 64 -3 14 76 0 rrcurveto
          133 0 23 144 rlineto
          -69 17 -107 25 -125 -22 -89 -15 -80 -121 62 -107 rrcurveto
          32 -57 -87 -65 rlineto
          -108 -80 -20 -97 57 -101 rrcurveto
          157 107 rmoveto
          -9 15 -4 18 37 30 rrcurveto
          48 33 44 -73 -43 -34 rlineto
          -36 -28 -22 14 -15 25 rrcurveto
          endchar
        </CharString>
        <CharString name="ampersand.salt">
          490 -2 151 27 296 38 151 hstem
          80 367 rmoveto
          -24 -149 94 -49 130 0 -19 -117 105 -53 105 -1 rrcurveto
          164 hlineto
          153 0 137 17 32 199 rrcurveto
          43 297 78 19 20 129 -75 0 17 107 -176 0 -35 -105 -421 0 rlineto
          -189 -2 -103 -20 -25 -189 rrcurveto
          182 -94 rmoveto
          12 74 rlineto
          9 54 3 26 97 0 rrcurveto
          411 0 -41 -263 rlineto
          -9 -58 -13 -40 -83 0 rrcurveto
          -159 hlineto
          -27 0 1 15 2 12 rrcurveto
          40 hlineto
          106 0 103 -5 21 133 21 130 -87 38 -115 0 rrcurveto
          -29 hlineto
          -126 0 -88 -40 -20 -124 -31 0 -4 13 6 35 rrcurveto
          223 -50 rmoveto
          6 36 8 0 16 0 rrcurveto
          14 hlineto
          9 0 8 -2 -2 -14 -3 -16 -6 -4 -12 0 rrcurveto
          endchar
        </CharString>
        <CharString name="ampersand.smcp">
          100 21 -21 415 133 hstem
          60 90 rmoveto
          57 -133 159 36 51 39 rrcurveto
          36 28 38 -60 192 0 -97 159 40 29 77 98 -61 84 -131 -80 -51 87 rlineto
          -19 32 25 6 24 0 rrcurveto
          80 0 21 133 rlineto
          -33 14 -123 22 -76 -13 -73 -12 -64 -93 46 -80 rrcurveto
          16 -28 -48 -37 rlineto
          -81 -64 -50 -62 45 -105 rrcurveto
          154 79 rmoveto
          -9 15 8 10 15 10 rrcurveto
          35 25 23 -41 -34 -25 rlineto
          -19 -13 -9 4 -10 15 rrcurveto
          endchar
        </CharString>
        <CharString name="aogonek">
          31 -19 20 -6 155 hstemhm
          hintmask 10000000
          411 1 rmoveto
          47 callsubr
          hintmask 01000000
          -411 311 rmoveto
          -38 callsubr
          190 -24 rmoveto
          -37 callsubr
          endchar
        </CharString>
        <CharString name="aogonek.salt">
          42 -8 134 -118 20 372 139 hstemhm
          hintmask 01000000
          451 28 rmoveto
          47 callsubr
          hintmask 10100000
          -454 264 rmoveto
          104 callsubr
          191 -38 rmoveto
          105 callsubr
          endchar
        </CharString>
        <CharString name="aogonek.smcp">
          105 -19 20 -1 21 66 144 hstemhm
          hintmask 10000000
          482 1 rmoveto
          47 callsubr
          hintmask 01100000
          -531 -1 rmoveto
          60 callsubr
          39 -339 rmoveto
          61 callsubr
          endchar
        </CharString>
        <CharString name="approxequal">
          -23 187 115 -77 114 32 115 -77 114 hstemhm
          hintmask 10000000
          70 268 rmoveto
          8 -81 rlineto
          hintmask 01000000
          50 15 29 23 51 0 rrcurveto
          hintmask 10000000
          60 0 38 -38 45 0 62 0 51 36 41 39 rrcurveto
          -14 79 rlineto
          -44 -27 -29 -12 -47 0 rrcurveto
          hintmask 01000000
          -60 0 -23 37 -60 0 rrcurveto
          -64 0 -56 -39 -38 -32 rrcurveto
          29 184 rmoveto
          hintmask 00100000
          8 -81 rlineto
          hintmask 00010000
          50 15 29 23 51 0 rrcurveto
          hintmask 00100000
          60 0 38 -38 45 0 62 0 51 36 41 39 rrcurveto
          -14 79 rlineto
          -44 -27 -28 -12 -47 0 rrcurveto
          hintmask 00010000
          -60 0 -24 37 -60 0 -64 0 -56 -39 -38 -32 rrcurveto
          endchar
        </CharString>
        <CharString name="aring">
          31 -5 155 451 67 67 66 hstem
          269 203 vstem
          269 701 rmoveto
          20 callsubr
          68 hmoveto
          21 callsubr
          -268 -389 rmoveto
          -38 callsubr
          190 -24 rmoveto
          -37 callsubr
          endchar
        </CharString>
        <CharString name="aring.salt">
          37 -8 134 274 139 60 67 67 66 hstem
          274 203 vstem
          274 699 rmoveto
          20 callsubr
          68 hmoveto
          21 callsubr
          -276 -407 rmoveto
          104 callsubr
          191 -38 rmoveto
          105 callsubr
          endchar
        </CharString>
        <CharString name="aring.smcp">
          105 0 21 66 144 339 67 67 66 hstem
          314 203 vstem
          314 670 rmoveto
          20 callsubr
          68 hmoveto
          21 callsubr
          -362 -670 rmoveto
          60 callsubr
          39 -339 rmoveto
          61 callsubr
          endchar
        </CharString>
        <CharString name="asciicircum">
          -137 531 140 hstem
          112 322 vstem
          112 531 rmoveto
          -40 callsubr
          0 vmoveto
          131 hmoveto
          endchar
        </CharString>
        <CharString name="asciitilde">
          -112 531 106 -71 106 hstemhm
          hintmask 10000000
          122 598 rmoveto
          16 -67 rlineto
          hintmask 01000000
          -4 callsubr
          hintmask 10000000
          -3 callsubr
          hintmask 01000000
          -2 callsubr
          endchar
        </CharString>
        <CharString name="asterisk">
          -98 561 94 -89 70 hstemhm
          hintmask 01000000
          117 566 rmoveto
          hintmask 10000000
          143 -5 10 94 rlineto
          hintmask 01000000
          -142 -19 rlineto
          14 -218 rmoveto
          63 -21 71 135 -88 24 rlineto
          60 -97 rmoveto
          113 -66 50 56 -99 89 rlineto
          -41 184 rmoveto
          18 -138 93 34 -41 126 rlineto
          -21 -173 rmoveto
          47 -73 117 97 -32 57 rlineto
          endchar
        </CharString>
        <CharString name="asterisk.smcp">
          -98 388 94 -89 70 hstemhm
          hintmask 01000000
          90 393 rmoveto
          hintmask 10000000
          143 -5 10 94 rlineto
          hintmask 01000000
          -142 -19 rlineto
          14 -218 rmoveto
          63 -21 71 135 -88 24 rlineto
          60 -97 rmoveto
          113 -66 50 56 -99 89 rlineto
          -41 184 rmoveto
          18 -138 93 34 -41 126 rlineto
          -21 -173 rmoveto
          47 -73 117 97 -32 57 rlineto
          endchar
        </CharString>
        <CharString name="at">
          405 -199 144 -117 117 51 144 263 143 48 145 hstemhm
          hintmask 10111000
          40 59 rmoveto
          -80 callsubr
          hintmask 01111000
          -79 callsubr
          hintmask 10111000
          -78 callsubr
          302 -247 rmoveto
          -77 callsubr
          endchar
        </CharString>
        <CharString name="at.alt">
          338 -149 144 -117 117 51 144 263 143 48 145 hstemhm
          hintmask 10111000
          58 109 rmoveto
          -80 callsubr
          hintmask 01111000
          -79 callsubr
          hintmask 10111000
          -78 callsubr
          302 -247 rmoveto
          -77 callsubr
          endchar
        </CharString>
        <CharString name="at.smcp">
          404 -189 144 -117 117 51 144 263 143 48 135 hstemhm
          hintmask 10111000
          46 69 rmoveto
          -80 callsubr
          hintmask 01111000
          -79 callsubr
          hintmask 10111000
          -386 hlineto
          -86 0 -11 37 9 57 rrcurveto
          70 442 rlineto
          9 57 16 56 95 0 rrcurveto
          342 hlineto
          71 0 22 -22 -13 -91 rrcurveto
          -36 -244 rlineto
          -12 -81 -7 -9 -48 0 rrcurveto
          47 330 rlineto
          -51 49 -57 20 -118 0 -104 0 -107 -32 -34 -222 -27 -177 54 -115 125 -4 73 -2 27 36 15 23 rrcurveto
          24 -50 124 0 rlineto
          144 0 52 44 16 110 rrcurveto
          45 304 rlineto
          22 151 -31 117 -170 0 rrcurveto
          -355 hlineto
          -155 0 -111 -21 -30 -187 rrcurveto
          302 -247 rmoveto
          -77 callsubr
          endchar
        </CharString>
        <CharString name="atilde">
          31 -5 155 451 106 -71 106 hstemhm
          hintmask 01000000
          190 668 rmoveto
          16 -67 rlineto
          hintmask 00100000
          -4 callsubr
          hintmask 01000000
          -3 callsubr
          hintmask 00100000
          -2 callsubr
          hintmask 10000000
          -121 -356 rmoveto
          -38 callsubr
          190 -24 rmoveto
          -37 callsubr
          endchar
        </CharString>
        <CharString name="atilde.salt">
          37 -8 134 274 139 60 106 -71 106 hstemhm
          hintmask 00100000
          199 666 rmoveto
          16 -67 rlineto
          hintmask 00010000
          -4 callsubr
          hintmask 00100000
          -3 callsubr
          hintmask 00010000
          -2 callsubr
          hintmask 11000000
          -133 -374 rmoveto
          104 callsubr
          191 -38 rmoveto
          105 callsubr
          endchar
        </CharString>
        <CharString name="atilde.smcp">
          105 0 21 66 144 399 106 -71 106 hstemhm
          hintmask 00100000
          252 697 rmoveto
          16 -67 rlineto
          hintmask 00010000
          -4 callsubr
          hintmask 00100000
          -3 callsubr
          hintmask 00010000
          -2 callsubr
          hintmask 11000000
          -232 -697 rmoveto
          60 callsubr
          39 -339 rmoveto
          61 callsubr
          endchar
        </CharString>
        <CharString name="b">
          44 -6 157 249 139 246 -20 hstem
          34 hmoveto
          -36 callsubr
          98 -612 rmoveto
          -35 callsubr
          endchar
        </CharString>
        <CharString name="b.salt">
          41 -8 134 273 140 242 -20 hstem
          38 28 rmoveto
          107 callsubr
          91 -655 rmoveto
          108 callsubr
          endchar
        </CharString>
        <CharString name="b.smcp">
          35 0 155 78 124 60 154 hstem
          45 hmoveto
          62 callsubr
          129 -416 rmoveto
          63 callsubr
          -28 202 rmoveto
          64 callsubr
          endchar
        </CharString>
        <CharString name="b.superior">
          -110 360 118 149 105 hstem
          80 364 rmoveto
          124 0 28 37 rlineto
          24 -25 20 -16 43 0 86 0 47 24 21 132 20 129 -11 87 -104 0 -32 0 -38 -8 -28 -15 rrcurveto
          28 178 -145 0 rlineto
          83 -396 rmoveto
          20 125 rlineto
          8 8 21 3 17 0 19 0 9 -8 -11 -68 -10 -65 -12 -8 -19 0 -21 0 -16 3 -5 10 rrcurveto
          endchar
        </CharString>
        <CharString name="backslash">
          -18 132 770 rmoveto
          148 -842 196 0 -148 842 rlineto
          endchar
        </CharString>
        <CharString name="bar">
          -265 36 287 vstem
          36 -72 rmoveto
          154 0 133 842 -154 0 rlineto
          endchar
        </CharString>
        <CharString name="braceleft">
          -194 782 -20 hstem
          52 205 rmoveto
          40 3 16 -22 -5 -34 rrcurveto
          -35 -220 rlineto
          -20 -124 53 -78 176 0 rrcurveto
          23 144 rlineto
          -46 0 4 33 10 65 rrcurveto
          32 199 rlineto
          9 57 -34 33 -63 13 66 5 44 27 12 74 rrcurveto
          21 136 rlineto
          14 91 8 21 42 0 rrcurveto
          24 154 rlineto
          -164 0 -81 -36 -19 -120 rrcurveto
          -37 -231 rlineto
          -6 -38 -29 -12 -33 -3 rrcurveto
          endchar
        </CharString>
        <CharString name="braceright">
          -193 782 -20 hstem
          -22 -270 rmoveto
          176 0 65 30 23 132 rrcurveto
          44 260 rlineto
          6 34 21 22 40 -3 rrcurveto
          22 137 rlineto
          -33 3 -23 12 4 38 rrcurveto
          19 172 rlineto
          19 120 -52 95 -164 0 rrcurveto
          -25 -154 rlineto
          42 0 0 -21 -14 -91 rrcurveto
          -21 -136 rlineto
          -12 -74 36 -27 64 -5 -67 -13 -44 -33 -9 -57 rrcurveto
          -32 -199 rlineto
          -10 -65 -6 -33 -46 0 rrcurveto
          endchar
        </CharString>
        <CharString name="bracketleft">
          -170 628 154 hstem
          50 -19 rmoveto
          -18 -106 18 -145 156 0 rrcurveto
          96 0 24 154 -35 0 rlineto
          -38 0 -19 18 10 60 rrcurveto
          96 588 rlineto
          10 60 26 18 38 0 rrcurveto
          30 0 24 154 -80 0 rlineto
          -150 0 -63 -44 -22 -132 rrcurveto
          endchar
        </CharString>
        <CharString name="bracketright">
          -176 -270 154 898 -20 hstem
          -22 -270 rmoveto
          100 hlineto
          169 0 45 80 13 97 rrcurveto
          90 641 rlineto
          18 132 -45 102 -139 0 rrcurveto
          -84 0 -25 -154 30 0 rlineto
          38 0 22 -18 -10 -60 rrcurveto
          -93 -588 rlineto
          -10 -60 -27 -18 -38 0 rrcurveto
          -30 hlineto
          endchar
        </CharString>
        <CharString name="breve">
          -270 532 65 hstem
          54 67 96 67 vstem
          54 644 rmoveto
          46 callsubr
          endchar
        </CharString>
        <CharString name="brokenbar">
          -265 36 287 vstem
          36 -72 rmoveto
          154 0 52 328 -154 0 rlineto
          27 173 rmoveto
          154 0 54 341 -154 0 rlineto
          endchar
        </CharString>
        <CharString name="bullet">
          -209 274 217 hstem
          96 235 vstem
          96 306 rmoveto
          25 callsubr
          endchar
        </CharString>
        <CharString name="bullet.smcp">
          -208 214 217 hstem
          87 235 vstem
          87 246 rmoveto
          25 callsubr
          endchar
        </CharString>
        <CharString name="c">
          -26 -5 144 258 144 hstem
          70 296 rmoveto
          -34 callsubr
          endchar
        </CharString>
        <CharString name="c.smcp">
          -5 1 144 294 144 hstem
          78 330 rmoveto
          65 callsubr
          endchar
        </CharString>
        <CharString name="c.superior">
          -170 361 108 144 108 hstem
          104 561 rmoveto
          -22 -138 47 -61 70 -1 93 -1 46 5 52 25 rrcurveto
          14 83 rlineto
          0 -44 -4 -61 vhcurveto
          -48 0 -13 2 12 69 13 72 14 1 45 0 rrcurveto
          59 39 -4 0 hvcurveto
          14 85 rlineto
          -55 23 -86 4 -37 0 -72 0 -58 -22 -22 -138 rrcurveto
          endchar
        </CharString>
        <CharString name="c_h">
          551 -7 144 -116 -21 392 144 246 -20 hstemhm
          hintmask 10110000
          64 296 rmoveto
          -37 -233 120 -70 99 0 194 0 289 -51 47 297 rrcurveto
          19 120 rlineto
          16 27 26 10 37 0 22 0 10 -10 -7 -42 rrcurveto
          hintmask 01110000
          -54 -344 194 0 53 340 rlineto
          18 112 -2 88 -138 0 -81 0 -44 -32 -32 -29 rrcurveto
          48 303 -193 0 -83 -524 rlineto
          hintmask 10110000
          -18 -111 -40 -10 -189 0 -72 0 -27 10 18 115 21 132 22 -2 68 0 rrcurveto
          89 59 -6 0 hvcurveto
          18 114 rlineto
          -96 41 -104 -5 -52 0 rrcurveto
          -102 0 -83 -32 -33 -208 rrcurveto
          endchar
        </CharString>
        <CharString name="c_k">
          534 0 139 253 144 246 -20 hstem
          65 296 rmoveto
          -33 -208 48 -88 235 0 62 0 73 13 75 23 rrcurveto
          -6 -36 194 0 19 120 rlineto
          27 14 26 15 26 16 rrcurveto
          69 -165 210 0 -126 277 rlineto
          86 78 60 88 12 88 rrcurveto
          -203 hlineto
          -4 -73 -65 -76 -87 -66 rrcurveto
          74 466 -194 0 -93 -587 rlineto
          -83 -35 -80 -21 -58 0 -56 0 -33 3 19 122 21 130 21 -2 68 0 rrcurveto
          89 59 -6 0 hvcurveto
          18 114 rlineto
          -78 31 -122 5 -52 0 -102 0 -83 -32 -33 -208 rrcurveto
          endchar
        </CharString>
        <CharString name="c_t">
          337 -7 144 260 134 hstem
          63 291 rmoveto
          -37 -233 70 -65 102 0 130 0 60 7 82 31 rrcurveto
          18 114 rlineto
          0 -66 -8 -92 vhcurveto
          -72 0 -22 -8 20 128 24 152 39 -13 60 0 rrcurveto
          244 1 -33 -208 rlineto
          -22 -141 71 -50 80 0 rrcurveto
          120 0 18 113 rlineto
          -7 -39 21 0 hvcurveto
          -20 12 -12 14 11 71 rrcurveto
          27 168 89 0 21 134 -89 0 23 148 -166 0 -51 -148 -353 2 rlineto
          -102 0 -89 -10 -37 -232 rrcurveto
          endchar
        </CharString>
        <CharString name="cacute">
          -26 -5 144 258 144 58 143 hstem
          303 245 vstem
          303 599 rmoveto
          12 callsubr
          -333 -446 rmoveto
          -34 callsubr
          endchar
        </CharString>
        <CharString name="cacute.smcp">
          -5 1 144 294 144 60 143 hstem
          312 245 vstem
          312 643 rmoveto
          12 callsubr
          -334 -456 rmoveto
          65 callsubr
          endchar
        </CharString>
        <CharString name="caron">
          -142 531 140 hstem
          11 322 vstem
          11 671 rmoveto
          48 callsubr
          -37 -140 rmoveto
          126 hmoveto
          endchar
        </CharString>
        <CharString name="caron.smcp">
          -143 531 140 hstem
          134 316 vstem
          134 671 rmoveto
          69 -140 131 0 116 140 -117 0 -55 -51 -33 51 rlineto
          -42 -140 rmoveto
          131 hmoveto
          endchar
        </CharString>
        <CharString name="ccaron">
          -26 -5 144 258 144 58 140 hstem
          219 322 vstem
          219 739 rmoveto
          48 callsubr
          -37 -140 rmoveto
          126 hmoveto
          -349 -303 rmoveto
          -34 callsubr
          endchar
        </CharString>
        <CharString name="ccaron.smcp">
          -5 1 144 294 144 60 140 hstem
          228 322 vstem
          228 783 rmoveto
          48 callsubr
          -37 -140 rmoveto
          126 hmoveto
          -350 -313 rmoveto
          65 callsubr
          endchar
        </CharString>
        <CharString name="ccedilla">
          -26 -5 144 253 144 hstem
          70 296 rmoveto
          -33 -208 66 -93 99 0 83 1 105 -16 83 53 rrcurveto
          18 114 rlineto
          0 -66 -8 -92 vhcurveto
          -72 0 -17 3 19 122 21 130 22 -2 68 0 rrcurveto
          89 59 -6 0 hvcurveto
          18 114 rlineto
          -96 41 -105 -5 -52 0 -102 0 -82 -32 -33 -208 rrcurveto
          44 -480 rmoveto
          61 hlineto
          92 0 36 44 16 102 rrcurveto
          -117 hlineto
          -6 -38 0 -2 -30 -12 rrcurveto
          -40 -15 rlineto
          endchar
        </CharString>
        <CharString name="ccedilla.smcp">
          -5 -185 146 40 144 294 144 hstem
          167 205 vstem
          167 -185 rmoveto
          13 callsubr
          -102 436 rmoveto
          65 callsubr
          endchar
        </CharString>
        <CharString name="ccircumflex">
          -26 -5 144 258 144 57 140 hstem
          184 322 vstem
          184 598 rmoveto
          19 callsubr
          0 vmoveto
          131 hmoveto
          -367 -442 rmoveto
          -34 callsubr
          endchar
        </CharString>
        <CharString name="ccircumflex.smcp">
          -5 1 144 294 144 60 140 hstem
          214 322 vstem
          214 643 rmoveto
          19 callsubr
          0 vmoveto
          131 hmoveto
          -389 -453 rmoveto
          65 callsubr
          endchar
        </CharString>
        <CharString name="cdotaccent">
          -26 -5 144 258 144 58 142 hstem
          278 152 vstem
          278 622 rmoveto
          49 callsubr
          -223 -420 rmoveto
          -34 callsubr
          endchar
        </CharString>
        <CharString name="cdotaccent.smcp">
          -5 1 144 294 144 60 142 hstem
          301 152 vstem
          301 666 rmoveto
          49 callsubr
          -238 -430 rmoveto
          65 callsubr
          endchar
        </CharString>
        <CharString name="cedilla">
          -277 -183 146 hstem
          0 205 vstem
          -183 vmoveto
          13 callsubr
          endchar
        </CharString>
        <CharString name="cent">
          -32 -6 145 253 242 hstem
          64 296 rmoveto
          -32 -205 63 -94 97 -2 rrcurveto
          -15 -90 108 0 14 89 rlineto
          57 0 60 7 51 32 rrcurveto
          18 114 rlineto
          0 -66 -8 -92 vhcurveto
          -72 0 -17 3 19 122 21 130 22 -2 68 0 rrcurveto
          89 59 -6 0 hvcurveto
          18 114 rlineto
          -49 21 -51 9 -45 4 rrcurveto
          16 100 -108 0 -16 -98 rlineto
          -102 0 -82 -32 -33 -208 rrcurveto
          endchar
        </CharString>
        <CharString name="circumflex">
          -210 531 140 hstem
          37 322 vstem
          37 531 rmoveto
          19 callsubr
          0 vmoveto
          131 hmoveto
          endchar
        </CharString>
        <CharString name="circumflex.smcp">
          -137 531 140 hstem
          112 322 vstem
          112 531 rmoveto
          112 0 58 51 41 -51 111 0 -69 140 -131 0 rlineto
          0 vmoveto
          131 hmoveto
          endchar
        </CharString>
        <CharString name="colon">
          -258 0 165 201 165 hstem
          51 238 vstem
          51 23 rmoveto
          -98 callsubr
          39 249 rmoveto
          -2 -14 9 -9 14 0 rrcurveto
          113 hlineto
          14 0 11 5 3 18 rrcurveto
          18 117 rlineto
          3 16 -5 9 -18 0 rrcurveto
          -113 hlineto
          -16 0 -10 -10 -2 -15 rrcurveto
          endchar
        </CharString>
        <CharString name="comma">
          -261 -88 62 hstem
          39 191 vstem
          39 -88 rmoveto
          -100 callsubr
          endchar
        </CharString>
        <CharString name="copyright">
          276 0 104 43 104 228 104 45 104 hstem
          88 388 rmoveto
          2 callsubr
          114 -20 rmoveto
          3 callsubr
          72 14 rmoveto
          -28 -177 67 -58 79 0 67 0 67 0 56 28 rrcurveto
          14 92 rlineto
          -41 -8 -49 -8 -59 0 -49 0 -24 27 13 84 15 95 20 22 54 0 33 0 51 -3 62 -9 rrcurveto
          14 92 rlineto
          -55 22 -88 2 -41 0 -90 0 -62 -40 -26 -161 rrcurveto
          endchar
        </CharString>
        <CharString name="currency">
          -79 151 95 127 95 hstem
          61 182 rmoveto
          50 -56 54 49 rlineto
          22 -15 27 -9 30 0 23 0 23 5 21 9 rrcurveto
          48 -53 62 61 -39 43 rlineto
          23 26 16 32 6 35 4 28 -3 27 -9 23 rrcurveto
          59 52 -53 53 -53 -48 rlineto
          -22 15 -26 9 -30 0 -32 0 -32 -10 -28 -17 rrcurveto
          -42 47 -64 -59 44 -48 rlineto
          -14 -21 -11 -25 -4 -26 -4 -28 4 -25 8 -23 rrcurveto
          87 76 rmoveto
          6 35 32 29 35 0 35 0 24 -29 -6 -35 -6 -35 -32 -28 -35 0 -35 0 -24 28 6 35 rrcurveto
          endchar
        </CharString>
        <CharString name="d">
          34 -6 157 249 139 246 -20 hstem
          69 303 rmoveto
          -33 callsubr
          196 -30 rmoveto
          -32 callsubr
          endchar
        </CharString>
        <CharString name="d.salt">
          -8 134 273 140 243 -20 hstem
          69 291 rmoveto
          109 callsubr
          193 -37 rmoveto
          110 callsubr
          endchar
        </CharString>
        <CharString name="d.smcp">
          62 0 164 244 164 hstem
          45 hmoveto
          66 callsubr
          129 -408 rmoveto
          67 callsubr
          endchar
        </CharString>
        <CharString name="d.superior">
          -110 360 118 149 105 hstem
          105 571 rmoveto
          -22 -122 31 -89 86 0 43 0 26 16 32 25 rrcurveto
          16 -37 124 0 83 523 -145 0 -28 -178 rlineto
          -24 15 -36 8 -32 0 -104 0 -32 -58 -18 -103 rrcurveto
          147 -20 rmoveto
          11 68 11 8 19 0 17 0 19 -3 6 -8 rrcurveto
          -20 -125 rlineto
          -9 -10 -16 -3 -21 0 -19 0 -8 8 10 65 rrcurveto
          endchar
        </CharString>
        <CharString name="dagger">
          50 424 149 hstem
          97 424 rmoveto
          131 -15 -65 -481 173 0 91 481 134 15 24 149 -130 15 16 182 -173 0 -42 -182 -135 -15 rlineto
          endchar
        </CharString>
        <CharString name="daggerdbl">
          19 424 149 hstem
          78 124 rmoveto
          138 -19 -24 -177 173 0 33 179 144 17 24 149 -133 18 22 118 135 15 23 149 -129 15 15 182 -173 0 -41 -182 -136 -15 rlineto
          -23 -149 130 -15 -15 -117 -139 -19 rlineto
          endchar
        </CharString>
        <CharString name="dcaron">
          264 -6 157 249 139 246 -20 hstem
          69 284 rmoveto
          -32 -201 43 -89 119 0 59 0 36 22 44 33 rrcurveto
          22 -49 166 0 124 785 -194 0 -44 -276 rlineto
          -33 19 -49 11 -45 0 -144 0 -41 -58 -31 -197 rrcurveto
          196 -11 rmoveto
          53 callsubr
          417 308 rmoveto
          50 callsubr
          endchar
        </CharString>
        <CharString name="dcaron.salt">
          168 -8 134 273 140 243 -20 hstem
          69 291 rmoveto
          -32 -200 67 -99 125 0 93 0 142 -4 62 40 rrcurveto
          119 754 -194 0 -44 -282 rlineto
          -17 29 -49 10 -35 0 -153 0 -54 -56 -30 -192 rrcurveto
          193 -37 rmoveto
          114 callsubr
          403 327 rmoveto
          115 callsubr
          endchar
        </CharString>
        <CharString name="dcaron.smcp">
          63 0 164 244 164 60 140 hstem
          245 322 vstem
          245 772 rmoveto
          48 callsubr
          -37 -140 rmoveto
          126 hmoveto
          -390 -632 rmoveto
          66 callsubr
          129 -408 rmoveto
          67 callsubr
          endchar
        </CharString>
        <CharString name="dcroat">
          -6 157 249 139 57 74 115 -20 hstem
          69 286 rmoveto
          -32 -201 43 -91 119 0 59 0 36 22 44 33 rrcurveto
          22 -49 166 0 94 596 59 0 12 74 -59 0 18 115 -194 0 -18 -115 -94 0 -12 -74 94 0 -14 -87 rlineto
          -33 19 -49 11 -45 0 -144 0 -41 -56 -31 -197 rrcurveto
          196 -13 rmoveto
          53 callsubr
          endchar
        </CharString>
        <CharString name="dcroat.salt">
          132 -8 134 273 140 67 74 102 -20 hstem
          36 291 rmoveto
          -32 -200 67 -99 125 0 93 0 142 -4 62 40 rrcurveto
          91 578 52 0 12 74 -52 0 16 102 -194 0 -16 -102 -81 0 -12 -74 81 0 -16 -106 rlineto
          -17 29 -49 9 -45 1 -139 2 -58 -58 -30 -192 rrcurveto
          193 -37 rmoveto
          114 callsubr
          endchar
        </CharString>
        <CharString name="dcroat.smcp">
          90 0 164 89 74 81 164 hstem
          51 253 rmoveto
          97 callsubr
          223 -163 rmoveto
          98 callsubr
          endchar
        </CharString>
        <CharString name="degree">
          -259 535 62 71 63 hstem
          126 203 vstem
          126 632 rmoveto
          -5 -57 43 -40 56 0 56 0 48 40 5 57 5 57 -42 42 -56 0 -56 0 -49 -42 -5 -57 rrcurveto
          66 hmoveto
          2 20 18 16 20 0 20 0 13 -16 -2 -20 -2 -20 -16 -15 -20 0 -20 0 -15 15 2 20 rrcurveto
          endchar
        </CharString>
        <CharString name="degree.smcp">
          -259 369 65 67 65 hstem
          100 203 vstem
          100 469 rmoveto
          -5 -57 42 -43 56 0 56 0 49 39 5 57 5 57 -41 44 -56 0 -56 0 -50 -40 -5 -57 rrcurveto
          68 -2 rmoveto
          96 callsubr
          endchar
        </CharString>
        <CharString name="dieresis">
          -74 516 131 hstem
          120 131 124 131 vstem
          120 582 rmoveto
          1 callsubr
          255 hmoveto
          1 callsubr
          endchar
        </CharString>
        <CharString name="dieresis.smcp">
          -74 516 131 hstem
          120 131 124 131 vstem
          120 582 rmoveto
          1 callsubr
          255 hmoveto
          1 callsubr
          endchar
        </CharString>
        <CharString name="divide">
          -33 117 125 34 154 30 125 hstem
          71 276 rmoveto
          -81 callsubr
          91 -290 rmoveto
          -2 -14 9 -9 14 0 rrcurveto
          93 hlineto
          14 0 11 5 3 18 rrcurveto
          13 77 rlineto
          3 16 -6 9 -18 0 rrcurveto
          -93 hlineto
          -16 0 -10 -10 -2 -15 rrcurveto
          42 266 rmoveto
          -2 -14 8 -9 14 0 rrcurveto
          93 hlineto
          14 0 12 5 3 18 rrcurveto
          12 77 rlineto
          3 16 -6 9 -18 0 rrcurveto
          -93 hlineto
          -16 0 -10 -10 -2 -15 rrcurveto
          endchar
        </CharString>
        <CharString name="dollar">
          51 -8 174 398 174 hstem
          58 26 rmoveto
          74 -26 12 -7 88 -1 rrcurveto
          -13 -82 108 0 13 82 rlineto
          97 2 104 16 29 181 rrcurveto
          5 33 rlineto
          13 80 -14 157 -152 0 rrcurveto
          -64 hlineto
          -54 0 -4 17 5 31 rrcurveto
          2 11 rlineto
          7 42 20 2 54 0 66 0 80 -3 63 -7 rrcurveto
          24 151 rlineto
          -50 19 -40 11 -73 3 rrcurveto
          13 86 -108 0 -13 -86 rlineto
          -112 -4 -101 -24 -21 -144 rrcurveto
          -8 -61 rlineto
          -7 -47 -21 -191 191 0 rrcurveto
          60 hlineto
          44 0 7 -15 -5 -29 rrcurveto
          -2 -16 rlineto
          -5 -30 -18 -11 -43 0 -93 0 -95 7 -39 4 rrcurveto
          endchar
        </CharString>
        <CharString name="dollar.smcp">
          20 -10 154 276 236 hstem
          52 16 rmoveto
          18 -13 57 -7 62 -3 rrcurveto
          -13 -83 108 0 13 80 rlineto
          129 0 79 -14 25 157 rrcurveto
          5 30 rlineto
          14 90 -8 109 -128 0 rrcurveto
          -110 hlineto
          -19 0 -4 8 2 14 rrcurveto
          2 12 rlineto
          2 14 10 10 16 0 rrcurveto
          114 118 -9 0 hvcurveto
          21 137 rlineto
          -50 10 -68 7 -58 4 rrcurveto
          13 87 -108 0 -13 -83 rlineto
          -132 -2 -44 -57 -14 -88 rrcurveto
          -6 -37 rlineto
          -15 -96 22 -95 125 0 rrcurveto
          100 hlineto
          16 0 10 -3 -3 -17 rrcurveto
          -3 -14 rlineto
          0 -4 -20 -25 -104 -131 7 0 vhcurveto
          endchar
        </CharString>
        <CharString name="dotaccent">
          -361 513 142 hstem
          95 152 vstem
          95 536 rmoveto
          49 callsubr
          endchar
        </CharString>
        <CharString name="dotlessi">
          -263 21 -21 531 -20 hstem
          20 278 vstem
          20 hmoveto
          -25 callsubr
          endchar
        </CharString>
        <CharString name="e">
          14 22 136 239 144 hstem
          71 318 rmoveto
          -31 callsubr
          200 -2 rmoveto
          -30 callsubr
          endchar
        </CharString>
        <CharString name="e.smcp">
          -6 -2 164 -146 146 44 156 -149 141 54 163 -163 146 hstemhm
          hintmask 10000000
          64 123 rmoveto
          68 callsubr
          hintmask 01000000
          69 callsubr
          hintmask 10100000
          70 callsubr
          hintmask 00010000
          71 callsubr
          hintmask 00101000
          72 callsubr
          hintmask 00000100
          73 callsubr
          hintmask 10001000
          74 callsubr
          endchar
        </CharString>
        <CharString name="e.superior">
          -141 613 111 hstem
          106 570 rmoveto
          -24 -129 33 -71 89 -11 94 -11 55 14 54 19 rrcurveto
          18 98 rlineto
          -33 -5 -56 -5 -31 0 -47 0 -24 4 4 25 24 -11 185 -28 8 161 4 82 -90 23 -73 -1 -137 -1 -33 -45 -20 -108 rrcurveto
          139 -2 rmoveto
          4 28 5 17 36 0 19 0 13 -5 -4 -20 -10 -44 -63 24 0 0 rrcurveto
          endchar
        </CharString>
        <CharString name="eacute">
          14 22 136 239 144 60 143 hstem
          303 245 vstem
          303 601 rmoveto
          12 callsubr
          -332 -426 rmoveto
          -31 callsubr
          200 -2 rmoveto
          -30 callsubr
          endchar
        </CharString>
        <CharString name="eacute.smcp">
          -6 -2 164 -146 146 44 156 -149 141 54 146 -146 163 60 143 hstemhm
          315 245 hintmask 00000011
          315 631 rmoveto
          12 callsubr
          hintmask 10000000
          -351 -651 rmoveto
          68 callsubr
          hintmask 01000000
          69 callsubr
          hintmask 10100000
          70 callsubr
          hintmask 00010000
          71 callsubr
          hintmask 00100100
          72 callsubr
          hintmask 00001000
          73 callsubr
          hintmask 10000100
          74 callsubr
          endchar
        </CharString>
        <CharString name="ecaron">
          14 22 136 239 144 60 140 hstem
          219 322 vstem
          219 741 rmoveto
          48 callsubr
          -37 -140 rmoveto
          126 hmoveto
          -348 -283 rmoveto
          -31 callsubr
          200 -2 rmoveto
          -30 callsubr
          endchar
        </CharString>
        <CharString name="ecaron.smcp">
          -6 -2 164 -146 146 44 156 -149 141 54 146 -146 163 60 140 hstemhm
          229 322 hintmask 00000011
          229 771 rmoveto
          48 callsubr
          -37 -140 rmoveto
          126 hmoveto
          hintmask 10000000
          -365 -508 rmoveto
          68 callsubr
          hintmask 01000000
          69 callsubr
          hintmask 10100000
          70 callsubr
          hintmask 00010000
          71 callsubr
          hintmask 00100100
          72 callsubr
          hintmask 00001000
          73 callsubr
          hintmask 10000100
          74 callsubr
          endchar
        </CharString>
        <CharString name="ecircumflex">
          14 22 136 239 144 60 140 hstem
          197 322 vstem
          197 601 rmoveto
          19 callsubr
          0 vmoveto
          131 hmoveto
          -379 -423 rmoveto
          -31 callsubr
          200 -2 rmoveto
          -30 callsubr
          endchar
        </CharString>
        <CharString name="ecircumflex.smcp">
          -6 -2 164 -146 146 44 156 -149 141 54 146 -146 163 60 140 hstemhm
          210 322 hintmask 00000011
          210 631 rmoveto
          19 callsubr
          0 vmoveto
          131 hmoveto
          hintmask 10000000
          -399 -648 rmoveto
          68 callsubr
          hintmask 01000000
          69 callsubr
          hintmask 10100000
          70 callsubr
          hintmask 00010000
          71 callsubr
          hintmask 00100100
          72 callsubr
          hintmask 00001000
          73 callsubr
          hintmask 10000100
          74 callsubr
          endchar
        </CharString>
        <CharString name="edieresis">
          14 22 136 239 144 60 131 hstem
          175 131 124 131 vstem
          175 667 rmoveto
          1 callsubr
          255 hmoveto
          1 callsubr
          -359 -349 rmoveto
          -31 callsubr
          200 -2 rmoveto
          -30 callsubr
          endchar
        </CharString>
        <CharString name="edieresis.smcp">
          -6 -2 164 -146 146 44 156 -149 141 54 146 -146 163 46 131 hstemhm
          180 131 124 131 hintmask 0000001110000000
          180 683 rmoveto
          1 callsubr
          255 hmoveto
          1 callsubr
          hintmask 1000000000000000
          -371 -560 rmoveto
          68 callsubr
          hintmask 0100000000000000
          69 callsubr
          hintmask 1010000000000000
          70 callsubr
          hintmask 0001000000000000
          71 callsubr
          hintmask 0010010000000000
          72 callsubr
          hintmask 0000100000000000
          73 callsubr
          hintmask 1000010000000000
          74 callsubr
          endchar
        </CharString>
        <CharString name="edotaccent">
          14 22 136 239 144 60 142 hstem
          292 152 vstem
          292 624 rmoveto
          49 callsubr
          -236 -400 rmoveto
          -31 callsubr
          200 -2 rmoveto
          -30 callsubr
          endchar
        </CharString>
        <CharString name="edotaccent.smcp">
          -6 -2 164 -146 146 44 156 -149 141 54 146 -146 163 60 142 hstemhm
          301 152 hintmask 00000011
          301 654 rmoveto
          49 callsubr
          hintmask 10000000
          -252 -625 rmoveto
          68 callsubr
          hintmask 01000000
          69 callsubr
          hintmask 10100000
          70 callsubr
          hintmask 00010000
          71 callsubr
          hintmask 00100100
          72 callsubr
          hintmask 00001000
          73 callsubr
          hintmask 10000100
          74 callsubr
          endchar
        </CharString>
        <CharString name="egrave">
          14 22 136 239 144 60 143 hstem
          213 199 vstem
          213 744 rmoveto
          -39 callsubr
          -287 -426 rmoveto
          -31 callsubr
          200 -2 rmoveto
          -30 callsubr
          endchar
        </CharString>
        <CharString name="egrave.smcp">
          -6 -2 164 -146 146 44 156 -149 141 54 146 -146 163 60 143 hstemhm
          224 199 hintmask 00000011
          224 774 rmoveto
          -39 callsubr
          hintmask 10000000
          -305 -651 rmoveto
          68 callsubr
          hintmask 01000000
          69 callsubr
          hintmask 10100000
          70 callsubr
          hintmask 00010000
          71 callsubr
          hintmask 00100100
          72 callsubr
          hintmask 00001000
          73 callsubr
          hintmask 10000100
          74 callsubr
          endchar
        </CharString>
        <CharString name="eight">
          101 0 164 133 153 123 164 hstem
          70 199 rmoveto
          -86 callsubr
          191 -42 rmoveto
          -85 callsubr
          45 284 rmoveto
          -84 callsubr
          endchar
        </CharString>
        <CharString name="eight.denominator">
          -54 -1 123 69 115 61 123 hstem
          55 131 rmoveto
          35 callsubr
          145 -20 rmoveto
          36 callsubr
          29 182 rmoveto
          37 callsubr
          endchar
        </CharString>
        <CharString name="eight.numerator">
          -53 255 123 69 115 61 123 hstem
          96 387 rmoveto
          35 callsubr
          145 -20 rmoveto
          4 21 rlineto
          2 14 4 10 28 0 rrcurveto
          36 hlineto
          26 0 3 -11 -2 -13 rrcurveto
          -4 -21 rlineto
          -2 -15 -4 -9 -29 0 rrcurveto
          -34 hlineto
          -23 0 -8 6 3 18 rrcurveto
          29 182 rmoveto
          37 callsubr
          endchar
        </CharString>
        <CharString name="eight.oldstyle">
          106 0 164 133 153 123 164 hstem
          70 199 rmoveto
          -86 callsubr
          191 -42 rmoveto
          -85 callsubr
          45 284 rmoveto
          -84 callsubr
          endchar
        </CharString>
        <CharString name="eight.smcp">
          33 0 155 265 155 hstem
          63 150 rmoveto
          -10 -60 0 -90 128 0 rrcurveto
          183 hlineto
          54 0 92 5 18 115 rrcurveto
          11 70 rlineto
          5 34 -7 65 -41 8 58 12 12 54 3 17 rrcurveto
          7 33 rlineto
          20 125 -62 37 -86 0 rrcurveto
          -166 hlineto
          -90 0 -67 -15 -20 -127 rrcurveto
          -4 -43 rlineto
          -4 -41 7 -54 47 -17 -33 -10 -38 -10 -9 -58 rrcurveto
          191 -16 rmoveto
          3 15 rlineto
          3 20 9 2 16 0 rrcurveto
          30 hlineto
          23 0 1 -5 -3 -20 rrcurveto
          -2 -15 rlineto
          -4 -23 -1 -3 -26 0 rrcurveto
          -23 hlineto
          -23 0 -8 0 5 29 rrcurveto
          31 195 rmoveto
          4 22 rlineto
          2 15 10 4 15 0 rrcurveto
          32 hlineto
          16 0 6 -4 -2 -15 rrcurveto
          -4 -25 rlineto
          -2 -10 0 -12 -23 0 rrcurveto
          -34 hlineto
          -25 0 3 13 2 12 rrcurveto
          endchar
        </CharString>
        <CharString name="eight.tnum">
          91 0 164 133 153 123 164 hstem
          66 199 rmoveto
          -86 callsubr
          191 -42 rmoveto
          -85 callsubr
          45 284 rmoveto
          -84 callsubr
          endchar
        </CharString>
        <CharString name="eight.tosf">
          91 0 164 133 153 123 164 hstem
          66 199 rmoveto
          -86 callsubr
          191 -42 rmoveto
          -85 callsubr
          45 284 rmoveto
          -84 callsubr
          endchar
        </CharString>
        <CharString name="eightinferior">
          -75 -201 123 69 115 61 123 hstem
          35 -69 rmoveto
          35 callsubr
          145 -20 rmoveto
          36 callsubr
          29 182 rmoveto
          37 callsubr
          endchar
        </CharString>
        <CharString name="eightsuperior">
          -75 355 123 69 115 61 123 hstem
          107 487 rmoveto
          35 callsubr
          145 -20 rmoveto
          36 callsubr
          29 182 rmoveto
          37 callsubr
          endchar
        </CharString>
        <CharString name="ellipsis">
          284 0 165 hstem
          123 23 rmoveto
          -98 callsubr
          253 -117 rmoveto
          -98 callsubr
          253 -117 rmoveto
          -98 callsubr
          endchar
        </CharString>
        <CharString name="emacron">
          14 22 136 239 144 50 93 hstem
          207 307 vstem
          207 591 rmoveto
          6 callsubr
          -151 -366 rmoveto
          -31 callsubr
          200 -2 rmoveto
          -30 callsubr
          endchar
        </CharString>
        <CharString name="emacron.smcp">
          -6 -2 164 -146 146 44 156 -149 141 54 146 -146 163 61 93 hstemhm
          218 307 hintmask 00000011
          218 632 rmoveto
          6 callsubr
          hintmask 10000000
          -169 -602 rmoveto
          68 callsubr
          hintmask 01000000
          69 callsubr
          hintmask 10100000
          70 callsubr
          hintmask 00010000
          71 callsubr
          hintmask 00100100
          72 callsubr
          hintmask 00001000
          73 callsubr
          hintmask 10000100
          74 callsubr
          endchar
        </CharString>
        <CharString name="emdash">
          221 212 155 hstem
          63 212 rmoveto
          45 callsubr
          endchar
        </CharString>
        <CharString name="emdash.alt">
          220 282 155 hstem
          74 282 rmoveto
          45 callsubr
          endchar
        </CharString>
        <CharString name="emdash.smcp">
          220 199 155 hstem
          61 199 rmoveto
          45 callsubr
          endchar
        </CharString>
        <CharString name="endash">
          -64 210 155 hstem
          59 210 rmoveto
          44 callsubr
          endchar
        </CharString>
        <CharString name="endash.alt">
          -2 280 155 hstem
          74 280 rmoveto
          44 callsubr
          endchar
        </CharString>
        <CharString name="endash.smcp">
          -3 195 155 hstem
          60 195 rmoveto
          44 callsubr
          endchar
        </CharString>
        <CharString name="eng">
          46 21 -21 396 144 -9 -20 hstemhm
          hintmask 11000000
          34 hmoveto
          194 0 57 359 rlineto
          16 27 26 10 37 0 22 0 9 -10 -7 -42 rrcurveto
          -54 -344 -9 -54 rlineto
          -15 -84 -14 -7 -57 -15 rrcurveto
          23 -108 rlineto
          64 -2 165 43 28 177 rrcurveto
          9 50 54 340 rlineto
          18 112 -2 88 -138 0 -81 0 -25 -32 -50 -29 rrcurveto
          hintmask 10100000
          -19 callsubr
          endchar
        </CharString>
        <CharString name="eng.smcp">
          86 -212 127 106 -21 hstem
          39 hmoveto
          194 0 36 225 101 -222 -4 -27 rlineto
          -9 -59 -18 -2 -47 0 rrcurveto
          -21 -127 rlineto
          172 -8 89 30 23 148 rrcurveto
          7 42 90 571 -193 0 -34 -220 -105 220 -191 0 rlineto
          endchar
        </CharString>
        <CharString name="eogonek">
          14 2 20 0 136 239 144 hstemhm
          hintmask 10000000
          438 22 rmoveto
          47 callsubr
          hintmask 01100000
          -436 296 rmoveto
          -31 callsubr
          200 -2 rmoveto
          -30 callsubr
          endchar
        </CharString>
        <CharString name="eogonek.smcp">
          -6 -4 20 -18 164 -146 146 44 156 -149 141 54 146 -146 163 hstemhm
          hintmask 10000000
          418 16 rmoveto
          47 callsubr
          hintmask 01000000
          -423 107 rmoveto
          68 callsubr
          hintmask 00100000
          69 callsubr
          hintmask 01010000
          70 callsubr
          hintmask 00001000
          71 callsubr
          hintmask 00010010
          72 callsubr
          hintmask 00000100
          73 callsubr
          hintmask 01000010
          74 callsubr
          endchar
        </CharString>
        <CharString name="equal">
          -48 162 154 65 154 hstem
          45 162 rmoveto
          -81 callsubr
          11 65 rmoveto
          -81 callsubr
          endchar
        </CharString>
        <CharString name="estimated">
          154 0 21 237 17 239 19 hstem
          34 111 379 112 vstem
          34 266 rmoveto
          0 -78 28 -63 55 -51 55 -51 67 -23 96 0 62 0 30 6 42 16 40 16 35 27 38 40 rrcurveto
          -56 hlineto
          -43 -48 -72 -36 -76 0 rrcurveto
          -114 -76 66 27 hvcurveto
          133 vlineto
          13 5 -2 7 vhcurveto
          479 hlineto
          -4 89 -31 75 -58 45 -58 45 -61 21 -89 0 -97 0 -64 -25 -56 -50 -55 -52 -29 -62 0 -78 rrcurveto
          111 18 rmoveto
          137 vlineto
          23 81 70 108 86 104 -57 -42 vhcurveto
          -133 vlineto
          -10 -1 3 -12 vhcurveto
          -357 hlineto
          -5 -4 0 9 hvcurveto
          endchar
        </CharString>
        <CharString name="eth">
          27 0 176 181 174 97 155 hstem
          63 287 rmoveto
          -28 -179 43 -108 137 0 rrcurveto
          110 hlineto
          107 0 97 35 32 199 30 191 6 169 -69 85 rrcurveto
          53 27 -24 56 -77 -40 rlineto
          -61 40 -90 21 -134 0 rrcurveto
          -25 -155 rlineto
          48 1 41 0 32 -5 rrcurveto
          -45 -24 23 -56 96 50 rlineto
          17 -16 12 -21 4 -31 -19 5 -54 0 -6 0 rrcurveto
          -20 hlineto
          -135 0 -74 -74 -27 -170 rrcurveto
          194 -23 rmoveto
          12 78 11 15 34 0 rrcurveto
          27 hlineto
          40 0 0 -5 -14 -88 -13 -80 -2 -8 -40 0 rrcurveto
          -27 hlineto
          -42 0 3 16 11 72 rrcurveto
          endchar
        </CharString>
        <CharString name="eth.smcp">
          90 0 164 89 74 81 164 hstem
          51 253 rmoveto
          97 callsubr
          223 -163 rmoveto
          98 callsubr
          endchar
        </CharString>
        <CharString name="exclam">
          -238 0 165 566 -20 hstem
          57 288 vstem
          57 23 rmoveto
          -107 callsubr
          18 56 rmoveto
          146 0 105 535 -184 0 rlineto
          endchar
        </CharString>
        <CharString name="exclam.smcp">
          -240 0 165 hstem
          56 263 vstem
          56 23 rmoveto
          -107 callsubr
          18 57 rmoveto
          145 0 81 373 -183 0 rlineto
          endchar
        </CharString>
        <CharString name="exclamdown">
          -234 296 165 hstem
          4 286 vstem
          4 -270 rmoveto
          -1 callsubr
          1 58 rmoveto
          0 callsubr
          endchar
        </CharString>
        <CharString name="exclamdown.alt">
          -184 296 165 hstem
          73 286 vstem
          73 -270 rmoveto
          -1 callsubr
          1 58 rmoveto
          0 callsubr
          endchar
        </CharString>
        <CharString name="exclamdown.smcp">
          -239 21 -21 405 165 hstem
          46 260 vstem
          46 hmoveto
          183 0 40 373 -145 0 rlineto
          2 57 rmoveto
          -2 -14 6 -11 15 0 rrcurveto
          114 hlineto
          16 0 10 10 2 15 rrcurveto
          19 117 rlineto
          2 14 -9 9 -14 0 rrcurveto
          -114 hlineto
          -14 0 -10 -8 -2 -15 rrcurveto
          endchar
        </CharString>
        <CharString name="f">
          -109 21 -21 397 134 121 134 hstem
          73 397 rmoveto
          -29 callsubr
          endchar
        </CharString>
        <CharString name="f.salt">
          -136 21 -21 397 134 123 132 hstem
          34 hmoveto
          111 callsubr
          endchar
        </CharString>
        <CharString name="f.smcp">
          -5 21 -21 186 156 -149 141 74 163 -163 146 hstemhm
          hintmask 11000000
          45 hmoveto
          194 0 29 186 rlineto
          hintmask 10100000
          75 callsubr
          hintmask 11010000
          76 callsubr
          hintmask 10001000
          73 callsubr
          hintmask 11010000
          74 callsubr
          endchar
        </CharString>
        <CharString name="f.superior">
          -207 619 101 67 101 hstem
          115 320 vstem
          115 619 rmoveto
          48 0 -40 -255 146 0 40 255 72 0 16 101 -72 0 3 22 rlineto
          5 34 -1 12 38 -1 rrcurveto
          0 50 -1 1 vhcurveto
          14 84 rlineto
          -27 15 -29 3 -36 0 -89 0 -47 -26 -19 -86 rrcurveto
          -11 -52 -48 -17 rlineto
          endchar
        </CharString>
        <CharString name="f_f">
          291 21 -21 397 134 110 135 -124 134 hstemhm
          hintmask 11010000
          73 397 rmoveto
          97 0 -63 -397 194 0 63 397 181 0 -63 -397 194 0 63 397 98 0 21 134 -98 0 6 39 rlineto
          10 62 -1 21 50 -1 rrcurveto
          0 72 -1 1 vhcurveto
          18 111 rlineto
          -36 20 -40 4 -49 0 -120 0 -70 -35 -19 -121 rrcurveto
          -16 -99 -179 0 6 36 rlineto
          hintmask 11100000
          8 48 5 27 45 -1 rrcurveto
          0 61 -1 1 vhcurveto
          18 112 rlineto
          -35 18 -52 6 -49 0 -120 0 -57 -84 -11 -72 rrcurveto
          -14 -89 -101 -17 rlineto
          endchar
        </CharString>
        <CharString name="f_f_i">
          521 21 -21 397 134 110 135 -124 134 hstemhm
          hintmask 11010000
          73 397 rmoveto
          97 0 -63 -397 195 0 63 397 171 0 -63 -397 194 0 63 397 142 0 -63 -397 194 0 82 521 -334 10 3 19 rlineto
          15 92 67 10 50 0 rrcurveto
          0 192 -1 1 vhcurveto
          17 111 rlineto
          -36 20 -180 5 -49 -1 -147 -4 -104 -101 -19 -121 rrcurveto
          -4 -29 -171 0 6 36 rlineto
          hintmask 11100000
          11 48 3 27 45 -1 rrcurveto
          0 61 -1 1 vhcurveto
          18 112 rlineto
          -35 18 -52 6 -49 0 -120 0 -57 -84 -11 -72 rrcurveto
          -14 -89 -101 -17 rlineto
          endchar
        </CharString>
        <CharString name="f_t">
          239 20 -20 398 134 120 134 hstem
          73 397 rmoveto
          72 0 -63 -397 194 0 63 398 186 0 -33 -208 rlineto
          -22 -141 71 -50 80 0 rrcurveto
          120 0 17 113 rlineto
          -7 -38 21 0 hvcurveto
          -20 12 -12 14 11 71 rrcurveto
          27 168 89 0 21 134 -89 0 23 148 -166 0 -51 -148 -186 0 6 38 rlineto
          10 62 -1 21 50 -1 rrcurveto
          0 72 -1 1 vhcurveto
          18 111 rlineto
          -36 20 -40 4 -49 0 -120 0 -70 -35 -19 -121 rrcurveto
          -16 -99 -74 -17 rlineto
          endchar
        </CharString>
        <CharString name="f_y">
          448 21 -21 397 134 121 134 hstem
          848 186 vstem
          73 397 rmoveto
          72 0 -63 -397 194 0 63 397 78 0 rlineto
          61 1 22 -15 4 -68 rrcurveto
          10 -159 rlineto
          6 -90 43 -66 116 0 -37 -74 -45 -50 -96 -44 rrcurveto
          -136 vlineto
          56 8 186 4 125 292 rrcurveto
          130 324 rlineto
          21 50 28 81 -13 77 rrcurveto
          -186 hlineto
          -5 -66 -11 -44 -10 -28 rrcurveto
          -86 -238 rlineto
          -16 1 -20 7 -1 31 rrcurveto
          -5 196 rlineto
          -2 87 -58 54 -125 -1 rrcurveto
          -149 0 6 39 rlineto
          10 62 -1 21 50 -1 rrcurveto
          0 72 -1 1 vhcurveto
          18 111 rlineto
          -36 20 -40 4 -49 0 -120 0 -70 -35 -19 -121 rrcurveto
          -16 -99 -74 -17 rlineto
          endchar
        </CharString>
        <CharString name="ffl">
          604 21 -21 397 134 110 135 -124 134 hstemhm
          hintmask 11010000
          73 397 rmoveto
          97 0 -63 -397 195 0 63 397 175 0 -63 -397 194 0 63 397 98 0 22 134 -98 0 6 39 rlineto
          10 62 19 20 50 0 rrcurveto
          0 47 -1 45 vhcurveto
          -74 -462 rlineto
          -22 -141 69 -48 95 0 rrcurveto
          108 0 18 113 rlineto
          -7 -38 21 0 hvcurveto
          -20 12 -13 14 11 69 rrcurveto
          87 554 -321 3 rlineto
          -120 0 -109 -31 -29 -185 rrcurveto
          -6 -39 -176 0 6 36 rlineto
          hintmask 11100000
          9 48 5 27 45 -1 rrcurveto
          0 61 -1 1 vhcurveto
          18 112 rlineto
          -35 18 -52 6 -49 0 -120 0 -57 -84 -11 -72 rrcurveto
          -14 -89 -101 -17 rlineto
          endchar
        </CharString>
        <CharString name="fi">
          100 21 -21 397 134 121 134 hstem
          34 397 rmoveto
          72 0 -63 -397 194 0 63 397 142 0 -63 -397 194 0 83 521 -335 10 3 19 rlineto
          15 92 67 10 50 0 rrcurveto
          0 192 -1 1 vhcurveto
          18 111 rlineto
          -36 20 -180 5 -49 -1 -147 -4 -96 -71 -19 -121 rrcurveto
          -13 -59 -74 -17 rlineto
          endchar
        </CharString>
        <CharString name="five">
          77 -4 179 -155 155 137 164 82 174 hstemhm
          hintmask 01110000
          46 20 rmoveto
          hintmask 10110000
          -90 callsubr
          endchar
        </CharString>
        <CharString name="five.denominator">
          -102 -4 134 -116 116 225 131 hstemhm
          hintmask 01100000
          33 14 rmoveto
          hintmask 10100000
          31 callsubr
          endchar
        </CharString>
        <CharString name="five.numerator">
          -102 252 134 -116 116 225 131 hstemhm
          hintmask 01100000
          73 270 rmoveto
          hintmask 10100000
          31 callsubr
          endchar
        </CharString>
        <CharString name="five.oldstyle">
          90 -104 179 -155 155 137 164 82 174 hstemhm
          hintmask 01110000
          30 -80 rmoveto
          hintmask 10110000
          -90 callsubr
          endchar
        </CharString>
        <CharString name="five.smcp">
          6 -1 169 -145 145 228 174 hstemhm
          hintmask 01100000
          46 23 rmoveto
          hintmask 10100000
          79 -23 97 -2 99 1 85 1 88 20 19 122 rrcurveto
          7 43 rlineto
          18 116 -41 66 -118 0 rrcurveto
          -32 hlineto
          -23 0 -30 -3 -24 -21 rrcurveto
          14 53 242 0 28 174 -403 0 -76 -371 160 0 rlineto
          4 24 22 1 13 0 rrcurveto
          33 hlineto
          20 0 4 0 -4 -26 rrcurveto
          -1 -7 rlineto
          -4 -23 -10 0 -19 0 rrcurveto
          -224 hlineto
          endchar
        </CharString>
        <CharString name="five.tnum">
          91 -4 179 -155 155 137 164 82 174 hstemhm
          hintmask 01110000
          46 20 rmoveto
          hintmask 10110000
          -90 callsubr
          endchar
        </CharString>
        <CharString name="five.tosf">
          91 -104 179 -155 155 137 164 82 174 hstemhm
          hintmask 01110000
          30 -80 rmoveto
          hintmask 10110000
          -90 callsubr
          endchar
        </CharString>
        <CharString name="fiveinferior">
          -98 -204 134 -116 116 225 131 hstemhm
          hintmask 01100000
          -186 vmoveto
          hintmask 10100000
          31 callsubr
          endchar
        </CharString>
        <CharString name="fivesuperior">
          -97 352 134 -116 116 67 -21 179 131 hstemhm
          hintmask 01110000
          72 370 rmoveto
          hintmask 10110000
          31 callsubr
          endchar
        </CharString>
        <CharString name="fl">
          175 21 -21 397 134 121 134 hstem
          73 397 rmoveto
          72 0 -63 -397 194 0 63 397 98 0 21 134 -98 0 4 39 rlineto
          10 62 21 20 50 0 rrcurveto
          0 47 -1 45 vhcurveto
          -73 -462 rlineto
          -22 -141 69 -48 95 0 rrcurveto
          108 0 18 113 rlineto
          -7 -39 21 0 hvcurveto
          -20 12 -13 14 11 69 rrcurveto
          88 554 -311 3 rlineto
          -120 0 -116 -21 -29 -185 rrcurveto
          -10 -49 -74 -17 rlineto
          endchar
        </CharString>
        <CharString name="florin">
          80 -204 144 417 134 hstem
          -17 -179 rmoveto
          17 -14 52 -18 74 7 119 12 82 128 48 152 rrcurveto
          85 269 95 0 42 134 -95 0 5 15 rlineto
          28 87 27 63 69 0 rrcurveto
          38 0 37 119 rlineto
          -16 7 -44 26 -91 -8 -117 -10 -79 -137 -46 -147 rrcurveto
          -5 -15 -74 0 -42 -134 74 0 -85 -269 rlineto
          -22 -70 -28 -78 -70 0 rrcurveto
          -40 hlineto
          endchar
        </CharString>
        <CharString name="four">
          120 23 -21 730 -20 hstem
          46 224 rmoveto
          -91 callsubr
          endchar
        </CharString>
        <CharString name="four.denominator">
          -63 22 -21 hstem
          32 144 rmoveto
          30 callsubr
          endchar
        </CharString>
        <CharString name="four.numerator">
          -64 72 400 rmoveto
          30 callsubr
          endchar
        </CharString>
        <CharString name="four.oldstyle">
          100 22 124 rmoveto
          -91 callsubr
          endchar
        </CharString>
        <CharString name="four.smcp">
          53 23 -21 hstem
          43 205 rmoveto
          32 -97 255 0 -17 -106 194 0 17 106 53 19 23 149 -50 0 29 180 -157 0 -52 -95 -14 -85 -64 0 164 294 -201 0 rlineto
          endchar
        </CharString>
        <CharString name="four.tnum">
          91 23 -21 730 -20 hstem
          20 224 rmoveto
          -91 callsubr
          endchar
        </CharString>
        <CharString name="four.tosf">
          91 22 124 rmoveto
          -91 callsubr
          endchar
        </CharString>
        <CharString name="fourinferior">
          -74 -8 -56 rmoveto
          30 callsubr
          endchar
        </CharString>
        <CharString name="foursuperior">
          -44 92 500 rmoveto
          30 callsubr
          endchar
        </CharString>
        <CharString name="fraction">
          -120 21 -21 hstem
          -51 hmoveto
          131 0 487.955993652 770 -131 0 rlineto
          endchar
        </CharString>
        <CharString name="g">
          45 6 140 263 134 hstem
          5 -248 rmoveto
          -28 callsubr
          242 410 rmoveto
          -27 callsubr
          endchar
        </CharString>
        <CharString name="g.salt">
          3 -270 147 271 135 116 134 hstem
          10 -96 rmoveto
          54 callsubr
          155 -200 rmoveto
          55 callsubr
          71 430 rmoveto
          56 callsubr
          endchar
        </CharString>
        <CharString name="g.smcp">
          44 -7 173 256 132 hstem
          76 316 rmoveto
          77 callsubr
          endchar
        </CharString>
        <CharString name="g.superior">
          -114 192 98 71 106 162 102 hstem
          69 192 rmoveto
          164 -16 rlineto
          138 -15 55 63 16 99 rrcurveto
          59 380 rlineto
          -37 17 -96 11 -78 0 -92 0 -64 -28 -21 -130 -21 -132 27 -80 111 0 33 0 22 8 19 21 rrcurveto
          -6 -42 rlineto
          -6 -39 -26 -19 -38 0 rrcurveto
          -143 hlineto
          175 266 rmoveto
          6 37 5 36 39 0 rrcurveto
          32 0 -24 -154 rlineto
          -9 -7 -12 -1 -13 0 -35 0 0 20 11 69 rrcurveto
          endchar
        </CharString>
        <CharString name="gbreve">
          45 6 140 263 134 60 65 hstem
          269 67 96 67 vstem
          269 715 rmoveto
          46 callsubr
          -331 -963 rmoveto
          -28 callsubr
          242 410 rmoveto
          -27 callsubr
          endchar
        </CharString>
        <CharString name="gbreve.salt">
          3 -270 147 271 135 116 134 66 65 hstem
          231.098007202 67 96 67 vstem
          231.09765625 711 rmoveto
          46 callsubr
          -288.09765625 -807 rmoveto
          54 callsubr
          155 -200 rmoveto
          55 callsubr
          71 430 rmoveto
          56 callsubr
          endchar
        </CharString>
        <CharString name="gbreve.smcp">
          44 -7 173 256 132 87 65 hstem
          305 67 96 67 vstem
          305 753 rmoveto
          46 callsubr
          -296 -437 rmoveto
          77 callsubr
          endchar
        </CharString>
        <CharString name="gcircumflex">
          45 6 140 263 134 60 140 hstem
          213 322 vstem
          213 603 rmoveto
          19 callsubr
          0 vmoveto
          131 hmoveto
          -461 -991 rmoveto
          -28 callsubr
          242 410 rmoveto
          -27 callsubr
          endchar
        </CharString>
        <CharString name="gcircumflex.salt">
          3 -270 147 271 135 116 134 66 140 hstem
          177.350006104 322 vstem
          177.349609375 599 rmoveto
          19 callsubr
          0 vmoveto
          131 hmoveto
          -420.349609375 -835 rmoveto
          54 callsubr
          155 -200 rmoveto
          55 callsubr
          71 430 rmoveto
          56 callsubr
          endchar
        </CharString>
        <CharString name="gcircumflex.smcp">
          44 -7 173 256 132 87 140 hstem
          221 322 vstem
          221 641 rmoveto
          19 callsubr
          0 vmoveto
          131 hmoveto
          -398 -465 rmoveto
          77 callsubr
          endchar
        </CharString>
        <CharString name="gcommaaccent">
          138 6 140 263 134 236 56 hstem
          28 -248 rmoveto
          -28 callsubr
          242 410 rmoveto
          -27 callsubr
          43 340 rmoveto
          -2 -14 3 -10 16 0 rrcurveto
          100 hlineto
          14 0 10 8 3 16 rrcurveto
          16 103 rlineto
          2 15 -8 7 -13 0 rrcurveto
          -10 0 1 4 rlineto
          1 9 3 11 27 -1 rrcurveto
          9 56 rlineto
          0 0 -133 43 -18 -112 rrcurveto
          endchar
        </CharString>
        <CharString name="gcommaaccent.salt">
          3 -270 147 271 135 116 134 236 56 hstem
          10 -96 rmoveto
          54 callsubr
          155 -200 rmoveto
          55 callsubr
          71 430 rmoveto
          56 callsubr
          10 277 rmoveto
          -2 -14 3 -10 16 0 rrcurveto
          100 hlineto
          14 0 10 8 3 16 rrcurveto
          16 103 rlineto
          2 15 -8 7 -13 0 rrcurveto
          -10 0 1 4 rlineto
          1 9 3 11 27 -1 rrcurveto
          8 56 rlineto
          0 0 -132 43 -18 -112 rrcurveto
          endchar
        </CharString>
        <CharString name="gcommaaccent.smcp">
          44 -294.199996948 55.8000030518 231.399993896 173 256 132 hstem
          76 316 rmoveto
          77 callsubr
          143.800003052 -508.5 rmoveto
          -2.69998168945 -15.3000030518 9 -7.19999694824 12.5999908447 0 rrcurveto
          9.89999389648 0 -0.899993896484 -4.5 rlineto
          -1.80001831055 -9 -1.79998779297 -10.8000030518 -27 0.900009155273 rrcurveto
          -9 -55.8000030518 rlineto
          0 1.52587890625e-05 132.299987793 -42.3000030518 18 111.600006104 rrcurveto
          21.6000061035 134.999603271 rlineto
          1.80000305176 13.4999847412 -3.60000610352 10.8008117676 -16.1999969482 0 rrcurveto
          -99.8999938965 hlineto
          -14.4000091553 1.52587890625e-05 -9 -8.10060119629 -2.69999694824 -16.2002105713 rrcurveto
          endchar
        </CharString>
        <CharString name="gdotaccent">
          45 6 140 263 134 60 142 hstem
          301 152 vstem
          301 626 rmoveto
          49 callsubr
          -311 -968 rmoveto
          -28 callsubr
          242 410 rmoveto
          -27 callsubr
          endchar
        </CharString>
        <CharString name="gdotaccent.salt">
          3 -270 147 271 135 116 134 66 142 hstem
          283.442993164 152 vstem
          283.443359375 622 rmoveto
          49 callsubr
          -288.443359375 -812 rmoveto
          54 callsubr
          155 -200 rmoveto
          55 callsubr
          71 430 rmoveto
          56 callsubr
          endchar
        </CharString>
        <CharString name="gdotaccent.smcp">
          44 -7 173 256 132 87 142 hstem
          326 152 vstem
          326 664 rmoveto
          49 callsubr
          -265 -442 rmoveto
          77 callsubr
          endchar
        </CharString>
        <CharString name="germandbls">
          59 -8 144 -115 -21 613 171 hstemhm
          hintmask 01100000
          34 hmoveto
          194 0 75 476 rlineto
          16 101 13 36 62 0 38 0 20 -11 -9 -56 -3 -21 -8 -21 -33 -28 -40 -34 -32 -27 -10 -64 -15 -98 107 -4 -9 -59 rrcurveto
          -1 -6 rlineto
          hintmask 10100000
          -6 -40 -28 -8 -23 0 -13 0 -18 2 -31 4 rrcurveto
          -20 -131 rlineto
          32 -11 25 -8 68 0 95 0 87 30 21 130 rrcurveto
          3 17 rlineto
          17 110 -115 26 7 43 5 32 32 4 32 38 119 141 4 221 -281 0 -188 0 -81 -102 -18 -116 rrcurveto
          endchar
        </CharString>
        <CharString name="germandbls.smcp">
          533 -10 154 -153 154 275 153 -152 153 hstemhm
          hintmask 10100000
          45 16 rmoveto
          90 callsubr
          hintmask 01010000
          504 -134 rmoveto
          90 callsubr
          endchar
        </CharString>
        <CharString name="grave">
          -272 531 143 hstem
          117 199 vstem
          117 674 rmoveto
          -39 callsubr
          endchar
        </CharString>
        <CharString name="grave.smcp">
          -272 531 143 hstem
          117 199 vstem
          117 674 rmoveto
          -39 callsubr
          endchar
        </CharString>
        <CharString name="greater">
          -85 48 130 rmoveto
          397 136 26 170 -354 130 -27 -170 178 -34 -193 -62 rlineto
          endchar
        </CharString>
        <CharString name="greaterequal">
          -104 63 134 hstem
          37 63 rmoveto
          375 0 21 134 -375 0 rlineto
          5 33 rmoveto
          394 116 27 170 -358 110 -27 -166 182 -20 -191 -40 rlineto
          endchar
        </CharString>
        <CharString name="guillemotleft">
          81 84 354 rmoveto
          5 callsubr
          -2 -203 rmoveto
          5 callsubr
          endchar
        </CharString>
        <CharString name="guillemotright">
          80 66 244 rmoveto
          87 -98 234 208 -173 203 -102 -85 94 -104 rlineto
          96 -124 rmoveto
          87 -98 234 208 -174 203 -102 -85 95 -104 rlineto
          endchar
        </CharString>
        <CharString name="guilsinglleft">
          -237 5 320 vstem
          5 354 rmoveto
          178 -208 109 98 -94 110 127 108 -82 95 rlineto
          endchar
        </CharString>
        <CharString name="guilsinglright">
          -158 84 321 vstem
          84 244 rmoveto
          78 -98 243 208 -173 203 -112 -95 92 -108 rlineto
          endchar
        </CharString>
        <CharString name="h">
          21 -21 396 144 242 -20 hstem
          34 hmoveto
          -26 callsubr
          endchar
        </CharString>
        <CharString name="h.smcp">
          61 20 -21 hstem
          44 -1 rmoveto
          78 callsubr
          endchar
        </CharString>
        <CharString name="h.superior">
          -111 620 109 hstem
          80 364 rmoveto
          146 0 37 233 rlineto
          11 17 18 6 24 0 15 0 5 -7 -4 -27 rrcurveto
          -35 -222 146 0 36 230 rlineto
          12 76 -1 59 -100 0 -59 0 -30 -24 -25 -22 rrcurveto
          32 202 -145 0 rlineto
          endchar
        </CharString>
        <CharString name="hbar">
          66 21 -21 396 144 60 74 108 -20 hstem
          60 hmoveto
          194 0 57 359 rlineto
          16 27 26 10 37 0 22 0 9 -10 -7 -42 rrcurveto
          -54 -344 194 0 54 340 rlineto
          18 112 -2 88 -138 0 -81 0 -26 -32 -50 -29 rrcurveto
          19 121 95 0 12 74 -95 0 17 108 -193 0 -17 -108 -60 0 -12 -74 60 0 rlineto
          endchar
        </CharString>
        <CharString name="hbar.smcp">
          142 20 -21 410 71 hstem
          82 -1 rmoveto
          194 0 30 189 111 0 -30 -189 194 0 65 410 48 0 11 71 -48 0 14 90 -194 0 -14 -90 -111 0 14 90 -194 0 rlineto
          -14 -90 -55 0 -11 -71 55 0 rlineto
          186 -47 rmoveto
          8 47 111 0 -8 -47 rlineto
          endchar
        </CharString>
        <CharString name="hcircumflex">
          0 21 375 144 222 20 60 140 hstem
          31 322 vstem
          31 842 rmoveto
          19 callsubr
          0 vmoveto
          131 hmoveto
          -315 -982 rmoveto
          -26 callsubr
          endchar
        </CharString>
        <CharString name="hcircumflex.smcp">
          61 -1 21 610 140 hstem
          233 322 vstem
          233 630 rmoveto
          19 callsubr
          0 vmoveto
          131 hmoveto
          -442 -771 rmoveto
          78 callsubr
          endchar
        </CharString>
        <CharString name="hungarumlaut">
          -42 531 143 hstem
          134 531 rmoveto
          12 callsubr
          73 -143 rmoveto
          12 callsubr
          endchar
        </CharString>
        <CharString name="hyphen">
          -162 213 154 hstem
          61 213 rmoveto
          -99 callsubr
          endchar
        </CharString>
        <CharString name="hyphen.alt">
          -162 283 154 hstem
          74 283 rmoveto
          -99 callsubr
          endchar
        </CharString>
        <CharString name="hyphen.smcp">
          -161 198 154 hstem
          61 198 rmoveto
          -99 callsubr
          endchar
        </CharString>
        <CharString name="i">
          -263 21 -21 531 -20 70 165 hstem
          29 309 vstem
          29 hmoveto
          -25 callsubr
          11 73 rmoveto
          -24 callsubr
          endchar
        </CharString>
        <CharString name="i.smcp">
          -243 21 -21 hstem
          45 284 vstem
          45 hmoveto
          79 callsubr
          endchar
        </CharString>
        <CharString name="i.superior">
          -326 745 124 hstem
          79 225 vstem
          79 364 rmoveto
          146 0 56 356 -146 0 rlineto
          8 42 rmoveto
          -2 -11 6 -6 11 0 rrcurveto
          113 hlineto
          11 0 6 6 2 11 rrcurveto
          14 88 rlineto
          2 11 -4 8 -11 0 rrcurveto
          -113 hlineto
          -12 0 -7 -8 -2 -11 rrcurveto
          endchar
        </CharString>
        <CharString name="iacute">
          -263 0 21 490 20 68 143 hstemhm
          20 278 -143 245 hintmask 00101000
          155 599 rmoveto
          12 callsubr
          hintmask 11010000
          -235 -742 rmoveto
          -25 callsubr
          endchar
        </CharString>
        <CharString name="iacute.smcp">
          -243 0 21 609 143 hstemhm
          45 284 -141 245 hintmask 01010000
          188 630 rmoveto
          12 callsubr
          hintmask 10100000
          -243 -773 rmoveto
          79 callsubr
          endchar
        </CharString>
        <CharString name="icircumflex">
          -263 0 21 490 20 68 140 hstemhm
          20 278 -249 322 hintmask 00101000
          49 599 rmoveto
          19 callsubr
          0 vmoveto
          131 hmoveto
          hintmask 11010000
          -282 -739 rmoveto
          -25 callsubr
          endchar
        </CharString>
        <CharString name="icircumflex.smcp">
          -243 0 21 609 140 hstemhm
          45 284 -252 322 hintmask 01010000
          77 630 rmoveto
          19 callsubr
          0 vmoveto
          131 hmoveto
          hintmask 10100000
          -285 -770 rmoveto
          79 callsubr
          endchar
        </CharString>
        <CharString name="idieresis">
          -263 0 21 490 20 68 131 hstemhm
          20 278 -270 131 124 131 hintmask 00101100
          28 665 rmoveto
          1 callsubr
          255 hmoveto
          1 callsubr
          hintmask 11010000
          -263 -665 rmoveto
          -25 callsubr
          endchar
        </CharString>
        <CharString name="idieresis.smcp">
          -243 0 21 609 131 hstemhm
          24 284 -279 131 124 131 hintmask 01011000
          29 696 rmoveto
          1 callsubr
          255 hmoveto
          1 callsubr
          hintmask 10100000
          -260 -696 rmoveto
          79 callsubr
          endchar
        </CharString>
        <CharString name="igrave">
          -263 0 21 490 20 68 143 hstemhm
          20 278 -233 199 hintmask 00101000
          65 742 rmoveto
          -39 callsubr
          hintmask 11010000
          -190 -742 rmoveto
          -25 callsubr
          endchar
        </CharString>
        <CharString name="igrave.smcp">
          -243 0 21 609 143 hstemhm
          45 284 -240 199 hintmask 01010000
          89 773 rmoveto
          -39 callsubr
          hintmask 10100000
          -189 -773 rmoveto
          79 callsubr
          endchar
        </CharString>
        <CharString name="imacron">
          -263 0 21 490 20 68 93 hstemhm
          20 278 -237.19670105 307 hintmask 00101000
          60.8037109375 599 rmoveto
          6 callsubr
          hintmask 11010000
          -55.8037109375 -692 rmoveto
          -25 callsubr
          endchar
        </CharString>
        <CharString name="imacron.smcp">
          -243 0 21 609 93 hstemhm
          45 284 -232 307 hintmask 01010000
          97 630 rmoveto
          6 callsubr
          hintmask 10100000
          -67 -723 rmoveto
          79 callsubr
          endchar
        </CharString>
        <CharString name="infinity">
          141 169 123 99 123 hstem
          40 361 rmoveto
          -15 -92 26 -100 127 0 74 0 51 10 60 76 46 -76 60 -10 63 0 127 0 52 60 15 92 14 87 -15 106 -138 0 -76 0 -71 -21 -48 -66 rrcurveto
          -37 60 -46 27 -76 0 -138 0 -41 -66 -14 -87 rrcurveto
          133 -20 rmoveto
          4 28 6 22 44 0 28 0 25 -25 12 -25 -20 -24 -27 -25 -34 0 -38 0 -4 21 4 28 rrcurveto
          296 -1 rmoveto
          20 25 26 26 38 0 43 0 1 -22 -4 -28 -4 -28 -16 -21 -36 0 -34 0 -22 24 -12 24 rrcurveto
          endchar
        </CharString>
        <CharString name="integral">
          -71 -204 144 716 144 -144 119 hstemhm
          hintmask 11000000
          -17 -179 rmoveto
          19 -14 45 -11 73 0 120 0 63 106 29 186 rrcurveto
          66 418 rlineto
          14 87 17 63 69 0 rrcurveto
          38 0 rlineto
          hintmask 10100000
          19 119 rlineto
          hintmask 11000000
          -17 7 -26 18 -92 0 -117 0 -72 -126 -27 -168 rrcurveto
          -66 -418 rlineto
          -11 -70 -15 -78 -70 0 rrcurveto
          -40 hlineto
          endchar
        </CharString>
        <CharString name="iogonek">
          -263 -17 20 -3 21 490 20 50 165 hstemhm
          29 309 hintmask 10000000
          101 3 rmoveto
          47 callsubr
          hintmask 01111000
          -141 -3 rmoveto
          -25 callsubr
          11 73 rmoveto
          -24 callsubr
          endchar
        </CharString>
        <CharString name="iogonek.smcp">
          -243 -19 20 -1 21 hstemhm
          45 284 hintmask 10000000
          112 1 rmoveto
          47 callsubr
          hintmask 01100000
          -136 -1 rmoveto
          79 callsubr
          endchar
        </CharString>
        <CharString name="itilde">
          -263 0 21 490 20 68 106 -71 106 hstemhm
          20 278 hintmask 00100000
          38 666 rmoveto
          16 -67 rlineto
          hintmask 00010000
          -4 callsubr
          hintmask 00100000
          -3 callsubr
          hintmask 00010000
          -2 callsubr
          hintmask 11001000
          -18 -666 rmoveto
          -25 callsubr
          endchar
        </CharString>
        <CharString name="itilde.smcp">
          -243 0 21 609 106 -71 106 hstemhm
          45 284 hintmask 01000000
          79 697 rmoveto
          16 -67 rlineto
          hintmask 00100000
          -4 callsubr
          hintmask 01000000
          -3 callsubr
          hintmask 00100000
          -2 callsubr
          hintmask 10010000
          -34 -697 rmoveto
          79 callsubr
          endchar
        </CharString>
        <CharString name="j">
          -250 531 -20 70 165 hstem
          -6 -270 rmoveto
          -23 callsubr
          9 73 rmoveto
          -2 -14 9 -9 14 0 rrcurveto
          150 hlineto
          14 0 10 8 2 15 rrcurveto
          19 117 rlineto
          2 14 -6 11 -15 0 rrcurveto
          -150 hlineto
          -16 0 -10 -10 -2 -15 rrcurveto
          endchar
        </CharString>
        <CharString name="j.smcp">
          -177 23 21 rmoveto
          80 callsubr
          endchar
        </CharString>
        <CharString name="j.superior">
          -326 743 125 hstem
          52 253 vstem
          52 181 rmoveto
          112 hlineto
          42 52 12 69 8 58 rrcurveto
          57 358 -146 0 rlineto
          6 42 rmoveto
          -2 -11 6 -6 11 0 rrcurveto
          113 hlineto
          11 0 7 6 2 11 rrcurveto
          14 89 rlineto
          2 11 -5 8 -11 0 rrcurveto
          -113 hlineto
          -12 0 -7 -8 -2 -11 rrcurveto
          endchar
        </CharString>
        <CharString name="jcircumflex">
          -250 531 -20 hstem
          -270 vmoveto
          -23 callsubr
          -60 63 rmoveto
          112 0 57 51 42 -51 111 0 -69 140 -131 0 rlineto
          0 vmoveto
          131 hmoveto
          endchar
        </CharString>
        <CharString name="jcircumflex.smcp">
          -177 630 140 hstem
          148 322 vstem
          148 630 rmoveto
          19 callsubr
          0 vmoveto
          131 hmoveto
          -378 -749 rmoveto
          80 callsubr
          endchar
        </CharString>
        <CharString name="k">
          49 21 -21 531 -20 271 -20 hstem
          34 hmoveto
          -22 callsubr
          endchar
        </CharString>
        <CharString name="k.smcp">
          71 20 -21 hstem
          44 -1 rmoveto
          81 callsubr
          endchar
        </CharString>
        <CharString name="k.superior">
          -91 80 364 rmoveto
          146 0 24 151 30 1 61 -152 158 0 -87 193 rlineto
          37 22 49 38 27 99 rrcurveto
          -150 hlineto
          -25 -63 -28 -33 -60 -20 rrcurveto
          47 285 -146 0 rlineto
          endchar
        </CharString>
        <CharString name="kcommaaccent">
          49 -284.199996948 55.8000030518 226.399993896 21 490 20 231 20 hstem
          200.100006104 171.899993896 vstem
          hintmask 00000000
          200.099609375 -284.200195312 rmoveto
          58 callsubr
          -175.099609375 226.400390625 rmoveto
          -22 callsubr
          endchar
        </CharString>
        <CharString name="kcommaaccent.smcp">
          71 -284.199996948 55.8000030518 227.399993896 21 hstem
          192.100006104 171.899993896 vstem
          hintmask 00000000
          192.099609375 -284.200195312 rmoveto
          58 callsubr
          -157.099609375 227.400390625 rmoveto
          81 callsubr
          endchar
        </CharString>
        <CharString name="kgreenlandic">
          86 21 -21 531 -20 hstem
          34 hmoveto
          195 0 31 196 30 0 75 -196 211 0 -106 246 204 285 -220 0 -150 -201 -23 0 32 201 -195 0 rlineto
          endchar
        </CharString>
        <CharString name="l">
          -193 21 -21 783 -20 hstem
          61 189 rmoveto
          -21 callsubr
          endchar
        </CharString>
        <CharString name="l.smcp">
          -9 0 174 hstem
          68 146 rmoveto
          82 callsubr
          endchar
        </CharString>
        <CharString name="l.superior">
          -277 364 85 hstem
          100 209 vstem
          100 490 rmoveto
          -15 -94 51 -32 70 0 rrcurveto
          80 0 13 85 rlineto
          -5 -28 14 0 hvcurveto
          -15 8 -7 9 7 45 rrcurveto
          58 361 -147 0 rlineto
          endchar
        </CharString>
        <CharString name="lacute">
          -193 0 21 742 20 60 143 hstem
          207 245 vstem
          207 843 rmoveto
          12 callsubr
          -246 -797 rmoveto
          -21 callsubr
          endchar
        </CharString>
        <CharString name="lacute.smcp">
          -9 0 174 456 143 hstem
          187 245 vstem
          187 630 rmoveto
          12 callsubr
          -219 -627 rmoveto
          82 callsubr
          endchar
        </CharString>
        <CharString name="lcaron">
          -94 21 -21 783 -20 hstem
          62 189 rmoveto
          -22 -141 59 -48 95 0 rrcurveto
          118 0 18 113 rlineto
          -7 -39 21 0 hvcurveto
          -20 12 -13 14 11 69 rrcurveto
          88 554 -194 0 rlineto
          229 -202 rmoveto
          52 callsubr
          endchar
        </CharString>
        <CharString name="lcaron.smcp">
          -22 0 174 hstem
          51 146 rmoveto
          82 callsubr
          223 -158 rmoveto
          52 callsubr
          endchar
        </CharString>
        <CharString name="lcommaaccent">
          -193 -284.199996948 55.8000030518 228.399993896 21 742 20 hstem
          62.1000061035 171.899993896 vstem
          hintmask 00000000
          62.099609375 -284.200195312 rmoveto
          58 callsubr
          -10.099609375 417.400390625 rmoveto
          -21 callsubr
          endchar
        </CharString>
        <CharString name="lcommaaccent.smcp">
          -9 -294.199996948 55.8000030518 238.399993896 174 hstem
          168.100006104 171.899993896 vstem
          hintmask 00000000
          168.099609375 -294.200195312 rmoveto
          58 callsubr
          -109.099609375 384.400390625 rmoveto
          82 callsubr
          endchar
        </CharString>
        <CharString name="less">
          -84 70 266 rmoveto
          353 -136 27 170 -176 48 192 48 27 170 -396 -130 rlineto
          endchar
        </CharString>
        <CharString name="lessequal">
          -3 63 134 hstem
          78 63 rmoveto
          374 0 21 134 -374 0 rlineto
          24 149 rmoveto
          356 -116 27 166 -179 27 188 33 27 170 -392 -110 rlineto
          endchar
        </CharString>
        <CharString name="logicalnot">
          -49 159 211 -144 144 hstemhm
          hintmask 01000000
          55 226 rmoveto
          283 0 rlineto
          hintmask 10000000
          -11 -67 144 0 rlineto
          hintmask 01000000
          9 57 16 97 9 57 rrcurveto
          -427 hlineto
          endchar
        </CharString>
        <CharString name="lozenge">
          -11 21 -21 732 -20 hstem
          70 373 rmoveto
          148 -373 74 0 260 373 -144 359 -74 0 rlineto
          -94 -366 rmoveto
          99 128 48 -114 -102 -139 rlineto
          endchar
        </CharString>
        <CharString name="lslash">
          -185 21 -21 783 -20 hstem
          19 335 rmoveto
          76 30 -28 -176 rlineto
          -22 -141 69 -48 95 0 rrcurveto
          108 0 18 113 rlineto
          -7 -39 21 0 hvcurveto
          -20 12 -13 14 11 69 rrcurveto
          35 218 99 40 13 81 -99 -40 40 255 -194 0 -54 -337 -75 -30 rlineto
          endchar
        </CharString>
        <CharString name="lslash.smcp">
          5 0 174 hstem
          45 216 rmoveto
          61 23 -15 -93 rlineto
          -16 -104 60 -42 79 0 rrcurveto
          296 0 27 174 -170 0 rlineto
          -47 0 -31 -1 11 68 rrcurveto
          12 77 82 32 13 81 -82 -32 27 171 -194 0 -40 -250 -60 -23 rlineto
          endchar
        </CharString>
        <CharString name="m">
          342 21 -21 396 144 -9 -20 hstemhm
          hintmask 11000000
          34 hmoveto
          -20 callsubr
          hintmask 10100000
          -19 callsubr
          endchar
        </CharString>
        <CharString name="m.salt">
          339 21 -21 386 154 hstem
          34 hmoveto
          101 callsubr
          endchar
        </CharString>
        <CharString name="m.smcp">
          276 21 -21 hstem
          31 hmoveto
          83 callsubr
          endchar
        </CharString>
        <CharString name="m.superior">
          107 616 108 hstem
          80 364 rmoveto
          146 0 36 229 rlineto
          11 17 18 6 24 0 15 0 6 -6 -4 -27 rrcurveto
          -35 -219 146 0 34 217 rlineto
          1 6 1 5 1 5 11 14 20 5 22 0 15 0 6 -6 -4 -27 rrcurveto
          -35 -219 146 0 36 227 rlineto
          12 75 -3 58 -100 0 -56 0 -40 -25 -35 -21 -12 28 -26 18 -52 0 -60 0 -24 -21 -31 -25 rrcurveto
          -12 39 -122 0 rlineto
          endchar
        </CharString>
        <CharString name="macron">
          -167 531 93 hstem
          112 307 vstem
          112 531 rmoveto
          6 callsubr
          endchar
        </CharString>
        <CharString name="macron.smcp">
          -167 481 93 hstem
          104 307 vstem
          104 481 rmoveto
          6 callsubr
          endchar
        </CharString>
        <CharString name="minus">
          -59 279 154 hstem
          74 279 rmoveto
          7 callsubr
          endchar
        </CharString>
        <CharString name="multiply">
          -51 73 263 rmoveto
          94 -114 107 98 75 -87 117 97 -78 92 117 100 -91 109 -115 -97 -78 93 -119 -106 77 -93 rlineto
          endchar
        </CharString>
        <CharString name="n">
          21 -21 396 144 -9 -20 hstemhm
          hintmask 11000000
          34 hmoveto
          -18 callsubr
          hintmask 10100000
          -19 callsubr
          endchar
        </CharString>
        <CharString name="n.salt">
          21 -21 386 154 hstem
          34 hmoveto
          102 callsubr
          endchar
        </CharString>
        <CharString name="n.smcp">
          86 21 -21 hstem
          45 hmoveto
          84 callsubr
          endchar
        </CharString>
        <CharString name="n.superior">
          -111 616 108 hstem
          80 364 rmoveto
          146 0 36 229 rlineto
          11 17 18 6 24 0 15 0 6 -6 -4 -27 rrcurveto
          -35 -219 146 0 36 227 rlineto
          12 75 -3 58 -102 0 -60 0 -27 -22 -28 -24 rrcurveto
          -13 39 -122 0 rlineto
          endchar
        </CharString>
        <CharString name="nacute">
          0 21 375 144 -29 20 69 143 hstemhm
          322 245 hintmask 00011000
          322 600 rmoveto
          12 callsubr
          hintmask 11000000
          -388 -743 rmoveto
          -18 callsubr
          hintmask 10100000
          -19 callsubr
          endchar
        </CharString>
        <CharString name="nacute.salt">
          0 21 365 154 60 143 hstem
          322 245 vstem
          322 600 rmoveto
          12 callsubr
          -388 -743 rmoveto
          102 callsubr
          endchar
        </CharString>
        <CharString name="nacute.smcp">
          86 0 21 610 143 hstem
          352 245 vstem
          352 631 rmoveto
          12 callsubr
          -407 -774 rmoveto
          84 callsubr
          endchar
        </CharString>
        <CharString name="ncaron">
          0 21 375 144 -29 20 69 140 hstemhm
          237 322 hintmask 00011000
          237 740 rmoveto
          48 callsubr
          -37 -140 rmoveto
          126 hmoveto
          hintmask 11000000
          -403 -600 rmoveto
          -18 callsubr
          hintmask 10100000
          -19 callsubr
          endchar
        </CharString>
        <CharString name="ncaron.salt">
          0 21 365 154 60 140 hstem
          237 322 vstem
          237 740 rmoveto
          48 callsubr
          -37 -140 rmoveto
          126 hmoveto
          -403 -600 rmoveto
          102 callsubr
          endchar
        </CharString>
        <CharString name="ncaron.smcp">
          86 0 21 610 140 hstem
          268 322 vstem
          268 771 rmoveto
          48 callsubr
          -37 -140 rmoveto
          126 hmoveto
          -423 -631 rmoveto
          84 callsubr
          endchar
        </CharString>
        <CharString name="ncommaaccent">
          -284.199996948 55.8000030518 228.399993896 21 375 144 -29 20 hstemhm
          171.100006104 171.899993896 hintmask 00001000
          171.099609375 -284.200195312 rmoveto
          58 callsubr
          hintmask 01100000
          -146.099609375 228.400390625 rmoveto
          -18 callsubr
          hintmask 01010000
          -19 callsubr
          endchar
        </CharString>
        <CharString name="ncommaaccent.salt">
          -285.199996948 55.8000030518 229.399993896 21 365 154 hstem
          171.100006104 171.899993896 vstem
          hintmask 00000000
          171.099609375 -285.200195312 rmoveto
          58 callsubr
          -146.099609375 229.400390625 rmoveto
          102 callsubr
          endchar
        </CharString>
        <CharString name="ncommaaccent.smcp">
          86 -284.199996948 55.8000030518 228.399993896 21 hstem
          198.100006104 171.899993896 vstem
          hintmask 00000000
          198.099609375 -284.200195312 rmoveto
          58 callsubr
          -162.099609375 228.400390625 rmoveto
          84 callsubr
          endchar
        </CharString>
        <CharString name="nine">
          83 20 148 106 164 121 174 hstem
          61 20 rmoveto
          -83 callsubr
          217 325 rmoveto
          -82 callsubr
          endchar
        </CharString>
        <CharString name="nine.denominator">
          -79 5 112 57 124 65 131 hstem
          43 5 rmoveto
          38 callsubr
          157 211 rmoveto
          39 callsubr
          endchar
        </CharString>
        <CharString name="nine.numerator">
          -79 261 112 57 124 65 131 hstem
          84 261 rmoveto
          38 callsubr
          157 211 rmoveto
          39 callsubr
          endchar
        </CharString>
        <CharString name="nine.oldstyle">
          71 -80 148 106 164 121 174 hstem
          65 -80 rmoveto
          -83 callsubr
          217 325 rmoveto
          -82 callsubr
          endchar
        </CharString>
        <CharString name="nine.smcp">
          15 -1 174 -159 159 hstemhm
          hintmask 01000000
          54 14 rmoveto
          hintmask 10000000
          75 -16 106 1 79 0 88 0 104 32 35 220 40 252 -78 73 -124 0 rrcurveto
          -120 hlineto
          -73 0 -68 -30 -19 -117 rrcurveto
          -7 -44 rlineto
          -13 -85 16 -92 106 0 55 0 7 0 76 12 -5 -31 -3 -16 -50 0 rrcurveto
          -202 hlineto
          207 197 rmoveto
          1 5 rlineto
          3 22 3 5 18 0 rrcurveto
          22 hlineto
          28 0 6 -3 -8 -52 rrcurveto
          -56 hlineto
          -18 0 -2 2 3 21 rrcurveto
          endchar
        </CharString>
        <CharString name="nine.tnum">
          91 20 148 106 164 121 174 hstem
          61 20 rmoveto
          -83 callsubr
          217 325 rmoveto
          -82 callsubr
          endchar
        </CharString>
        <CharString name="nine.tosf">
          91 -80 148 106 164 121 174 hstem
          45 -80 rmoveto
          -83 callsubr
          217 325 rmoveto
          -82 callsubr
          endchar
        </CharString>
        <CharString name="nineinferior">
          -77 -195 112 57 124 65 131 hstem
          21 -195 rmoveto
          38 callsubr
          157 211 rmoveto
          39 callsubr
          endchar
        </CharString>
        <CharString name="ninesuperior">
          -76 361 112 57 124 65 131 hstem
          93 361 rmoveto
          38 callsubr
          157 211 rmoveto
          39 callsubr
          endchar
        </CharString>
        <CharString name="notequal">
          27 162 154 65 154 hstem
          112 162 rmoveto
          65 0 -50 -69 81 0 50 69 281 0 24 154 -193 0 48 65 156 0 24 154 -69 0 43 58 -81 0 -43 -58 -277 0 rlineto
          -24 -154 190 0 -48 -65 -153 0 rlineto
          endchar
        </CharString>
        <CharString name="ntilde">
          0 21 375 144 -29 20 69 106 -71 106 hstemhm
          hintmask 00010000
          210 667 rmoveto
          16 -67 rlineto
          hintmask 00001000
          -4 callsubr
          hintmask 00010000
          -3 callsubr
          hintmask 00001000
          -2 callsubr
          hintmask 11000000
          -176 -667 rmoveto
          -18 callsubr
          hintmask 10100000
          -19 callsubr
          endchar
        </CharString>
        <CharString name="ntilde.salt">
          0 21 365 154 60 106 -71 106 hstemhm
          hintmask 00100000
          213 667 rmoveto
          16 -67 rlineto
          hintmask 00010000
          -4 callsubr
          hintmask 00100000
          -3 callsubr
          hintmask 00010000
          -2 callsubr
          hintmask 11000000
          -179 -667 rmoveto
          102 callsubr
          endchar
        </CharString>
        <CharString name="ntilde.smcp">
          86 0 21 610 106 -71 106 hstemhm
          hintmask 01000000
          211 698 rmoveto
          16 -67 rlineto
          hintmask 00100000
          -4 callsubr
          hintmask 01000000
          -3 callsubr
          hintmask 00100000
          -2 callsubr
          hintmask 10000000
          -166 -698 rmoveto
          84 callsubr
          endchar
        </CharString>
        <CharString name="numbersign">
          234 21 -21 191 132 86 132 191 -20 hstem
          41 192 rmoveto
          142 0 -67 -192 132 0 67 192 89 -1 -67 -191 132 0 67 191 180 0 39 132 -168 0 29 86 168 0 40 132 -167 0 rlineto
          67 191 -132 0 -67 -191 -88 0 68 191 -132 0 -68 -191 -154 0 -42 -132 149 0 -29 -85 -147 0 rlineto
          279 hmoveto
          29 85 94 0 -29 -86 rlineto
          endchar
        </CharString>
</ttFont>
